<svg width="32" height="32" viewBox="0 0 32 32" fill="none" xmlns="http://www.w3.org/2000/svg">
<path fill-rule="evenodd" clip-rule="evenodd" d="M29 16C29 23.1797 23.1797 29 16 29C8.8203 29 3 23.1797 3 16C3 8.8203 8.8203 3 16 3C23.1797 3 29 8.8203 29 16ZM22.3706 11.3686C23.0631 11.286 23.7217 11.102 24.3349 10.8299C23.8751 11.5175 23.2965 12.1178 22.6262 12.6026C22.6334 12.7493 22.6367 12.8966 22.6367 13.0449C22.6367 17.5641 19.1965 22.7752 12.9064 22.7752C10.975 22.7752 9.17776 22.2086 7.66406 21.238C7.93174 21.2703 8.20441 21.2867 8.4803 21.2867C10.0821 21.2867 11.5569 20.7398 12.7274 19.8223C11.2313 19.7944 9.96826 18.8057 9.53306 17.4475C9.74216 17.4868 9.95621 17.5077 10.1768 17.5077C10.4889 17.5077 10.7905 17.4665 11.0779 17.3878C9.51333 17.0735 8.33468 15.6918 8.33468 14.0347V13.9915C8.80958 14.2556 9.3408 14.4022 9.88395 14.419C8.96645 13.8059 8.36262 12.7592 8.36262 11.5728C8.36262 10.9461 8.5312 10.3586 8.82572 9.85335C10.5124 11.9221 13.0323 13.2836 15.8746 13.4265C15.8166 13.1757 15.7865 12.9146 15.7865 12.6469C15.7865 10.7577 17.3177 9.22705 19.2059 9.22705C20.1895 9.22705 21.0786 9.64199 21.7022 10.3066C22.4683 10.1561 23.203 9.87541 23.8744 9.47668C23.6187 10.2748 23.0773 10.9454 22.3706 11.3686Z" fill="#E4F2FF"/>
</svg>
