<svg width="32" height="32" viewBox="0 0 32 32" fill="none" xmlns="http://www.w3.org/2000/svg">
<path fill-rule="evenodd" clip-rule="evenodd" d="M16.0001 2.66663C8.63341 2.66663 2.66675 8.78421 2.66675 16.3372C2.66675 22.3864 6.48341 27.4958 11.7834 29.3072C12.4501 29.4268 12.7001 29.0167 12.7001 28.6578C12.7001 28.3331 12.6834 27.2566 12.6834 26.1117C9.33342 26.7439 8.46675 25.2744 8.20008 24.5054C8.05008 24.1124 7.40008 22.8991 6.83342 22.5744C6.36675 22.3181 5.70008 21.6858 6.81675 21.6687C7.86675 21.6516 8.61675 22.6599 8.86675 23.07C10.0667 25.1376 11.9834 24.5567 12.7501 24.1978C12.8667 23.3092 13.2167 22.7111 13.6001 22.3694C10.6334 22.0276 7.53341 20.8485 7.53341 15.6195C7.53341 14.1328 8.05008 12.9025 8.90008 11.9455C8.76675 11.6038 8.30008 10.2025 9.03341 8.32283C9.03341 8.32283 10.1501 7.96398 12.7001 9.72407C13.7667 9.41648 14.9001 9.26268 16.0334 9.26268C17.1667 9.26268 18.3001 9.41648 19.3667 9.72407C21.9167 7.94689 23.0334 8.32283 23.0334 8.32283C23.7667 10.2025 23.3001 11.6038 23.1667 11.9455C24.0168 12.9025 24.5334 14.1157 24.5334 15.6195C24.5334 20.8656 21.4167 22.0276 18.4501 22.3694C18.9334 22.7966 19.3501 23.6168 19.3501 24.8984C19.3501 26.7269 19.3334 28.1964 19.3334 28.6578C19.3334 29.0167 19.5834 29.4439 20.2501 29.3072C25.5167 27.4958 29.3334 22.3694 29.3334 16.3372C29.3334 8.78421 23.3667 2.66663 16.0001 2.66663Z" fill="#E4F2FF"/>
</svg>
