<svg width="32" height="32" viewBox="0 0 32 32" fill="none" xmlns="http://www.w3.org/2000/svg">
<path fill-rule="evenodd" clip-rule="evenodd" d="M16 2.5C23.4558 2.5 29.5 8.54416 29.5 16C29.5 23.4558 23.4558 29.5 16 29.5C8.54416 29.5 2.5 23.4558 2.5 16C2.5 8.54416 8.54416 2.5 16 2.5ZM18.4693 9.80811C20.0381 9.89068 21.5243 10.3861 22.7628 11.3769C24.1665 14.0191 24.9096 16.9916 24.9922 20.0466C23.7537 21.3678 22.0197 22.1935 20.2032 22.1935C20.2032 22.1935 19.6252 21.5329 19.2124 20.9549C20.2858 20.7072 21.2766 20.1292 21.9371 19.221L21.936 19.2216C21.3584 19.5517 20.7808 19.8817 20.2032 20.1292C19.4601 20.4595 18.7169 20.6246 17.9738 20.7898L17.9725 20.79C17.3124 20.8724 16.6523 20.9549 15.9922 20.9549C15.3321 20.9549 14.672 20.8724 14.0119 20.79L14.0106 20.7898C13.2674 20.6246 12.5243 20.4595 11.7812 20.1292C11.2036 19.8817 10.626 19.5517 10.0484 19.2216L10.0472 19.221C10.7078 20.1292 11.6986 20.7072 12.772 20.9549C12.3592 21.5329 11.7812 22.1935 11.7812 22.1935C9.96466 22.1935 8.2307 21.3678 6.99219 20.0466C7.07476 16.9916 7.81788 14.0191 9.22154 11.3769C10.4601 10.3861 11.9463 9.89068 13.5151 9.80811L13.7628 10.0558C12.3592 10.3861 11.1206 11.0466 9.96466 11.9549C11.3683 11.2118 12.9371 10.7164 14.5885 10.5512C15.0839 10.4686 15.4968 10.4686 15.9922 10.4686C16.4876 10.4686 16.9005 10.4686 17.3959 10.5512C19.0472 10.7164 20.6161 11.2118 22.0197 11.9549C20.8638 11.0466 19.6252 10.3861 18.2215 10.0558L18.4693 9.80811ZM11.6986 16.909C11.6986 17.8173 12.4417 18.5604 13.2674 18.5604C14.0931 18.5604 14.8363 17.8173 14.8363 16.909C14.8363 16.0008 14.0931 15.2577 13.2674 15.2577C12.4417 15.2577 11.6986 16.0008 11.6986 16.909ZM17.1481 16.909C17.1481 17.8173 17.8912 18.5604 18.7169 18.5604C19.5426 18.5604 20.2858 17.8173 20.2858 16.909C20.2858 16.0008 19.5426 15.2577 18.7169 15.2577C17.8912 15.2577 17.1481 16.0008 17.1481 16.909Z" fill="#E4F2FF"/>
</svg>
