<svg width="25" height="54" viewBox="0 0 25 54" fill="none" xmlns="http://www.w3.org/2000/svg">
<g clip-path="url(#clip0_1303_46)">
<path fill-rule="evenodd" clip-rule="evenodd" d="M6.67073 53.0394L15.4113 53.0394C15.846 53.0394 16.2459 52.8017 16.4537 52.4199L19.4382 46.9347C19.7204 46.2151 21.0578 44.5524 24.1501 43.659C24.2648 43.615 24.3699 43.5688 24.464 43.5234C24.7884 43.3668 24.9535 43.0241 24.9535 42.6639L24.9535 19.7004C24.9535 19.5601 24.9292 19.4256 24.8845 19.3007L24.8845 10.3401C24.8845 9.97993 24.7194 9.63715 24.3949 9.48076C24.3016 9.43578 24.1975 9.39007 24.084 9.34651C21.0029 8.45637 19.6703 6.79972 19.3892 6.08266L16.4166 0.619529C16.2088 0.237685 15.8089 -7.99446e-07 15.3742 -8.37449e-07L6.67404 -1.59804e-06C5.84142 -1.67083e-06 5.26766 0.83507 5.56627 1.61231L7.3286 6.19948C7.50475 6.658 7.94343 6.96061 8.43462 6.96061L17.7561 6.96061C17.9247 6.96061 18.0963 6.98988 18.2316 7.09038C18.9875 7.6519 19.1322 9.07504 19.1037 9.77031L19.1037 33.2143C19.1037 33.3308 19.1205 33.4433 19.1517 33.5496L19.1517 43.2337C19.1804 43.9317 19.035 45.3607 18.2758 45.9239C18.1404 46.0243 17.9687 46.0536 17.8002 46.0536L8.44098 46.0536C7.94979 46.0536 7.51114 46.3562 7.33498 46.8147L5.56295 51.4271C5.26435 52.2044 5.8381 53.0394 6.67073 53.0394Z" fill="#2DE3E3"/>
</g>
<defs>
<clipPath id="clip0_1303_46">
<rect width="23.9783" height="53.0394" fill="white" transform="translate(24.9565 53.0394) rotate(-180)"/>
</clipPath>
</defs>
</svg>
