<svg width="32" height="32" viewBox="0 0 32 32" fill="none" xmlns="http://www.w3.org/2000/svg">
<path fill-rule="evenodd" clip-rule="evenodd" d="M16 3C23.1797 3 29 8.8203 29 16C29 23.1797 23.1797 29 16 29C8.8203 29 3 23.1797 3 16C3 8.8203 8.8203 3 16 3ZM16.4059 12.3875C15.1445 12.9232 12.6236 14.0319 8.84317 15.7135C8.22927 15.9628 7.90769 16.2066 7.87841 16.4451C7.82894 16.848 8.32303 17.0066 8.99588 17.2227C9.08752 17.2521 9.18247 17.2826 9.27981 17.3149C9.94194 17.5346 10.8326 17.7917 11.2956 17.8019C11.7156 17.8112 12.1844 17.6344 12.702 17.2716C16.2342 14.8371 18.0575 13.6066 18.172 13.5801C18.2527 13.5614 18.3646 13.5379 18.4405 13.6066C18.5163 13.6754 18.5088 13.8058 18.5008 13.8408C18.4518 14.0538 16.5117 15.8955 15.5078 16.8484C15.1949 17.1455 14.9729 17.3562 14.9276 17.4043C14.8259 17.5121 14.7223 17.6141 14.6227 17.7121C14.0075 18.3176 13.5463 18.7716 14.6482 19.513C15.1778 19.8693 15.6016 20.164 16.0244 20.458C16.486 20.779 16.9465 21.0991 17.5423 21.4979C17.694 21.5994 17.8389 21.7049 17.9801 21.8077C18.5174 22.1988 19.0002 22.5502 19.5966 22.4942C19.9431 22.4616 20.301 22.129 20.4828 21.1367C20.9125 18.7918 21.7569 13.711 21.952 11.6174C21.9692 11.434 21.9477 11.1992 21.9304 11.0961C21.9131 10.9931 21.877 10.8463 21.7458 10.7375C21.5904 10.6088 21.3506 10.5817 21.2433 10.5836C20.7556 10.5924 20.0072 10.8581 16.4059 12.3875Z" fill="#E4F2FF"/>
</svg>
