<svg width="32" height="32" viewBox="0 0 32 32" fill="none" xmlns="http://www.w3.org/2000/svg">
<path d="M16 3C8.82024 3 3 8.82025 3 16C3 23.1797 8.82024 29 16 29C23.1797 29 29 23.1797 29 16C28.9999 8.82025 23.1796 3 16 3ZM12.5316 22.2849H9.67728V13.0635H12.5316V22.2849ZM11.0908 11.8559C10.1586 11.8559 9.40295 11.0941 9.40295 10.1544C9.40295 9.21468 10.1587 8.45287 11.0908 8.45287C12.0229 8.45287 12.7786 9.21468 12.7786 10.1544C12.7786 11.0941 12.0229 11.8559 11.0908 11.8559ZM23.228 22.2849H20.3875V17.4444C20.3875 16.1169 19.8832 15.3758 18.8335 15.3758C17.691 15.3758 17.0941 16.1476 17.0941 17.4444V22.2849H14.3565V13.0635H17.0941V14.3055C17.0941 14.3055 17.9176 12.7823 19.8729 12.7823C21.8283 12.7823 23.228 13.9762 23.228 16.4461L23.228 22.2849Z" fill="#E4F2FF"/>
</svg>
