<svg width="24" height="54" viewBox="0 0 24 54" fill="none" xmlns="http://www.w3.org/2000/svg">
<g clip-path="url(#clip0_1303_41)">
<path fill-rule="evenodd" clip-rule="evenodd" d="M18.2858 0H9.54529C9.11058 0 8.71066 0.237685 8.50289 0.619531L5.51832 6.10472C5.23615 6.82438 3.89873 8.48704 0.806427 9.38041C0.691785 9.42441 0.586677 9.47061 0.492563 9.51603C0.168173 9.67259 0.00305176 10.0154 0.00305176 10.3756V33.3391C0.00305176 33.4793 0.02738 33.6139 0.0720464 33.7388V42.6993C0.0720464 43.0595 0.237164 43.4023 0.561634 43.5587C0.654936 43.6036 0.759039 43.6494 0.872518 43.6929C3.95365 44.5831 5.28624 46.2397 5.56739 46.9568L8.53996 52.4199C8.74772 52.8017 9.14764 53.0394 9.58235 53.0394H18.2825C19.1151 53.0394 19.6889 52.2044 19.3903 51.4271L17.628 46.8399C17.4518 46.3814 17.0131 46.0788 16.5219 46.0788H7.20044C7.03189 46.0788 6.86021 46.0496 6.72491 45.949C5.96902 45.3875 5.82431 43.9644 5.85285 43.2691V19.8251C5.85285 19.7087 5.83608 19.5961 5.80482 19.4898V9.80574C5.77616 9.10772 5.9215 7.67871 6.68078 7.11554C6.81616 7.01513 6.98781 6.98585 7.15636 6.98585H16.5156C17.0068 6.98585 17.4454 6.68324 17.6216 6.22473L19.3936 1.61231C19.6922 0.835071 19.1184 0 18.2858 0Z" fill="#2DE3E3"/>
</g>
<defs>
<clipPath id="clip0_1303_41">
<rect width="23.9783" height="53.0394" fill="white"/>
</clipPath>
</defs>
</svg>
