<svg width="120" height="25" viewBox="0 0 120 25" fill="none" xmlns="http://www.w3.org/2000/svg">
<path d="M17.0987 13.2152C17.0926 12.4629 17.3706 11.7359 17.8772 11.1796C18.3838 10.6234 19.0816 10.2788 19.8313 10.2147H32.3691L28.297 12.9272H21.4722C21.0322 12.929 20.6107 13.1045 20.2996 13.4157C19.9885 13.7268 19.8129 14.1482 19.8112 14.5882V21.3729L17.1322 24.5944L17.0987 13.2152Z" fill="#E4F2FF"/>
<path d="M16.1508 9.57851C15.4519 9.59524 14.7741 9.33806 14.2621 8.86187L5.2137 0.000976562L10.1364 0.965428L15.0658 5.80108C15.3814 6.11073 15.8058 6.2842 16.248 6.2842C16.6901 6.2842 17.1145 6.11073 17.4301 5.80108L22.3729 0.972125L27.2822 0.000976562L18.4347 8.70783C17.8103 9.27544 16.9946 9.5864 16.1508 9.57851Z" fill="#E4F2FF"/>
<path d="M12.5508 21.3657V14.5877C12.5508 14.1466 12.376 13.7234 12.0647 13.4108C11.7534 13.0983 11.3309 12.9218 10.8898 12.92H4.05824L-0.000488281 10.2075H12.2628C13.0376 10.2189 13.7812 10.5144 14.3524 11.038C14.6299 11.2742 14.8545 11.5664 15.0114 11.8953C15.1684 12.2242 15.2542 12.5825 15.2633 12.9468V24.5939L12.5508 21.3657Z" fill="#E4F2FF"/>
<path d="M55.2454 6.17436H40.4237V18.4309H55.2454C55.8114 18.4687 56.3791 18.3915 56.9144 18.2038C57.4496 18.0162 57.9413 17.7221 58.3598 17.3392C58.7268 16.9283 59.0053 16.4463 59.1781 15.9233C59.3509 15.4002 59.4144 14.8471 59.3645 14.2985V10.4407C59.3645 8.98734 59.0363 7.94922 58.3598 7.26606C57.9413 6.8832 57.4496 6.58908 56.9144 6.40145C56.3791 6.21382 55.8114 6.13657 55.2454 6.17436ZM43.1161 16.0399V8.56539H54.6092C54.8981 8.54511 55.1882 8.582 55.4629 8.67394C55.7375 8.76588 55.9914 8.91107 56.2099 9.1012C56.3997 9.31585 56.5449 9.56619 56.6369 9.83758C56.7289 10.109 56.7659 10.396 56.7457 10.6818V13.9235C56.7659 14.2093 56.7289 14.4963 56.6369 14.7677C56.5449 15.0391 56.3997 15.2894 56.2099 15.5041C55.9918 15.6948 55.738 15.8404 55.4632 15.9324C55.1885 16.0244 54.8982 16.0609 54.6092 16.0399H43.1161Z" fill="#E4F2FF"/>
<path d="M100.962 6.17201L92.878 12.2668L100.955 18.4286H96.8899L90.5406 13.5862L84.8744 18.4286H80.742L88.3103 12.2668L80.7621 6.17201H84.8744L90.4133 10.9675L96.8162 6.19211L100.962 6.17201Z" fill="#E4F2FF"/>
<path d="M64.2945 10.1652V11.1364H76.1291V13.4671H64.2945V14.4383C64.2799 14.6542 64.3085 14.8708 64.3787 15.0755C64.4488 15.2802 64.5591 15.4689 64.703 15.6304C65.1643 15.9058 65.7027 16.0233 66.2368 15.9653H76.0286L80.161 18.43H65.2723C64.7847 18.4599 64.2962 18.3911 63.8358 18.2277C63.3755 18.0642 62.9529 17.8096 62.5933 17.479C62.2691 17.1159 62.0199 16.6922 61.8602 16.2325C61.7004 15.7727 61.6332 15.2858 61.6623 14.7999V9.84372C61.6332 9.35784 61.7004 8.87099 61.8602 8.4112C62.0199 7.95142 62.2691 7.52778 62.5933 7.16469C62.9529 6.83407 63.3755 6.57942 63.8358 6.416C64.2962 6.25258 64.7847 6.18375 65.2723 6.21364H80.2012L76.109 8.65825H65.922C65.7061 8.6433 65.4893 8.67175 65.2846 8.74192C65.0798 8.81209 64.8912 8.92255 64.7298 9.0668C64.5834 9.20843 64.4688 9.37966 64.3937 9.56906C64.3186 9.75847 64.2848 9.9617 64.2945 10.1652Z" fill="#E4F2FF"/>
<path d="M115.867 15.9653L119.999 18.43H105.057C104.569 18.4599 104.081 18.3911 103.62 18.2277C103.16 18.0642 102.737 17.8096 102.378 17.479C102.053 17.1159 101.804 16.6922 101.645 16.2325C101.485 15.7727 101.418 15.2858 101.447 14.7999V9.84372C101.418 9.35784 101.485 8.87099 101.645 8.4112C101.804 7.95142 102.053 7.52778 102.378 7.16469C102.737 6.83407 103.16 6.57942 103.62 6.416C104.081 6.25258 104.569 6.18375 105.057 6.21364H119.986L115.867 8.61807H105.68C105.464 8.60311 105.247 8.63156 105.042 8.70173C104.837 8.7719 104.649 8.88237 104.487 9.02662C104.343 9.17288 104.232 9.34845 104.161 9.54143C104.091 9.73441 104.063 9.94029 104.079 10.1451V11.1163H115.913V13.4671H104.106V14.4383C104.09 14.6543 104.117 14.8713 104.188 15.0762C104.258 15.2812 104.369 15.4697 104.514 15.6304C104.975 15.9058 105.514 16.0233 106.048 15.9653H115.867Z" fill="#E4F2FF"/>
</svg>
