<svg width="190" height="66" viewBox="0 0 190 66" fill="none" xmlns="http://www.w3.org/2000/svg">
<rect width="183.071" height="65.6758" rx="16.4189" fill="#0A81BE"/>
<path d="M23.3816 28.3379H22.0429L25.0509 19.9792H26.5079L29.5159 28.3379H28.1772L25.8141 21.4974H25.7488L23.3816 28.3379ZM23.6061 25.0646H27.9487V26.1258H23.6061V25.0646ZM34.9411 25.738V22.0688H36.1655V28.3379H34.9656V27.2522H34.9003C34.7561 27.5869 34.5248 27.8658 34.2064 28.0889C33.8908 28.3093 33.4976 28.4195 33.0269 28.4195C32.6242 28.4195 32.2678 28.3311 31.9576 28.1542C31.6501 27.9746 31.4079 27.7094 31.2311 27.3584C31.0569 27.0073 30.9699 26.5734 30.9699 26.0564V22.0688H32.1902V25.9094C32.1902 26.3366 32.3086 26.6768 32.5453 26.9298C32.782 27.1828 33.0895 27.3094 33.4677 27.3094C33.6963 27.3094 33.9235 27.2522 34.1493 27.138C34.3778 27.0237 34.567 26.8509 34.7166 26.6196C34.869 26.3883 34.9438 26.0945 34.9411 25.738ZM41.0764 22.0688V23.0484H37.6521V22.0688H41.0764ZM38.5704 20.5669H39.7907V26.4972C39.7907 26.7339 39.8261 26.9121 39.8969 27.0318C39.9676 27.1488 40.0588 27.2291 40.1703 27.2726C40.2846 27.3135 40.4084 27.3339 40.5417 27.3339C40.6397 27.3339 40.7254 27.3271 40.7989 27.3135C40.8723 27.2999 40.9295 27.289 40.9703 27.2808L41.1907 28.2889C41.1199 28.3161 41.0193 28.3433 40.8886 28.3705C40.758 28.4005 40.5948 28.4168 40.3989 28.4195C40.0778 28.425 39.7785 28.3678 39.501 28.2481C39.2234 28.1284 38.999 27.9434 38.8275 27.693C38.6561 27.4427 38.5704 27.1284 38.5704 26.7502V20.5669ZM45.3445 28.4644C44.7567 28.4644 44.2438 28.3297 43.8058 28.0604C43.3677 27.791 43.0276 27.4141 42.7854 26.9298C42.5432 26.4455 42.4222 25.8795 42.4222 25.2319C42.4222 24.5816 42.5432 24.013 42.7854 23.5259C43.0276 23.0389 43.3677 22.6606 43.8058 22.3913C44.2438 22.1219 44.7567 21.9872 45.3445 21.9872C45.9322 21.9872 46.4451 22.1219 46.8831 22.3913C47.3212 22.6606 47.6613 23.0389 47.9035 23.5259C48.1457 24.013 48.2667 24.5816 48.2667 25.2319C48.2667 25.8795 48.1457 26.4455 47.9035 26.9298C47.6613 27.4141 47.3212 27.791 46.8831 28.0604C46.4451 28.3297 45.9322 28.4644 45.3445 28.4644ZM45.3485 27.44C45.7295 27.44 46.0451 27.3393 46.2954 27.138C46.5457 26.9366 46.7308 26.6686 46.8505 26.3339C46.9729 25.9992 47.0342 25.6306 47.0342 25.2279C47.0342 24.8279 46.9729 24.4605 46.8505 24.1259C46.7308 23.7885 46.5457 23.5177 46.2954 23.3137C46.0451 23.1096 45.7295 23.0076 45.3485 23.0076C44.9649 23.0076 44.6465 23.1096 44.3935 23.3137C44.1432 23.5177 43.9568 23.7885 43.8343 24.1259C43.7146 24.4605 43.6547 24.8279 43.6547 25.2279C43.6547 25.6306 43.7146 25.9992 43.8343 26.3339C43.9568 26.6686 44.1432 26.9366 44.3935 27.138C44.6465 27.3393 44.9649 27.44 45.3485 27.44ZM51.1941 24.6156V28.3379H49.9737V22.0688H51.1451V23.0892H51.2226C51.3668 22.7572 51.5927 22.4906 51.9001 22.2892C52.2103 22.0879 52.6008 21.9872 53.0715 21.9872C53.4987 21.9872 53.8728 22.077 54.1939 22.2566C54.515 22.4334 54.7639 22.6974 54.9408 23.0484C55.1177 23.3994 55.2061 23.8334 55.2061 24.3503V28.3379H53.9857V24.4973C53.9857 24.0429 53.8674 23.6878 53.6307 23.432C53.3939 23.1735 53.0688 23.0443 52.6552 23.0443C52.3722 23.0443 52.1205 23.1055 51.9001 23.228C51.6825 23.3504 51.5097 23.53 51.3818 23.7667C51.2566 24.0007 51.1941 24.2837 51.1941 24.6156ZM59.8282 28.4644C59.2405 28.4644 58.7276 28.3297 58.2895 28.0604C57.8514 27.791 57.5113 27.4141 57.2692 26.9298C57.027 26.4455 56.9059 25.8795 56.9059 25.2319C56.9059 24.5816 57.027 24.013 57.2692 23.5259C57.5113 23.0389 57.8514 22.6606 58.2895 22.3913C58.7276 22.1219 59.2405 21.9872 59.8282 21.9872C60.4159 21.9872 60.9288 22.1219 61.3669 22.3913C61.805 22.6606 62.1451 23.0389 62.3873 23.5259C62.6294 24.013 62.7505 24.5816 62.7505 25.2319C62.7505 25.8795 62.6294 26.4455 62.3873 26.9298C62.1451 27.4141 61.805 27.791 61.3669 28.0604C60.9288 28.3297 60.4159 28.4644 59.8282 28.4644ZM59.8323 27.44C60.2132 27.44 60.5289 27.3393 60.7792 27.138C61.0295 26.9366 61.2145 26.6686 61.3343 26.3339C61.4567 25.9992 61.5179 25.6306 61.5179 25.2279C61.5179 24.8279 61.4567 24.4605 61.3343 24.1259C61.2145 23.7885 61.0295 23.5177 60.7792 23.3137C60.5289 23.1096 60.2132 23.0076 59.8323 23.0076C59.4486 23.0076 59.1303 23.1096 58.8772 23.3137C58.6269 23.5177 58.4405 23.7885 58.3181 24.1259C58.1984 24.4605 58.1385 24.8279 58.1385 25.2279C58.1385 25.6306 58.1984 25.9992 58.3181 26.3339C58.4405 26.6686 58.6269 26.9366 58.8772 27.138C59.1303 27.3393 59.4486 27.44 59.8323 27.44ZM64.4575 28.3379V22.0688H65.6288V23.0892H65.7064C65.837 22.7436 66.0506 22.4743 66.3472 22.2811C66.6438 22.0852 66.9988 21.9872 67.4124 21.9872C67.8314 21.9872 68.1824 22.0852 68.4654 22.2811C68.7511 22.477 68.962 22.7464 69.098 23.0892H69.1633C69.313 22.7545 69.5511 22.4879 69.8776 22.2892C70.2041 22.0879 70.5932 21.9872 71.0449 21.9872C71.6136 21.9872 72.0775 22.1654 72.4366 22.5219C72.7985 22.8783 72.9795 23.4157 72.9795 24.134V28.3379H71.7591V24.2483C71.7591 23.8238 71.6435 23.5164 71.4122 23.3259C71.1809 23.1354 70.9048 23.0402 70.5837 23.0402C70.1864 23.0402 69.8776 23.1627 69.6572 23.4075C69.4368 23.6497 69.3266 23.9613 69.3266 24.3422V28.3379H68.1103V24.1708C68.1103 23.8306 68.0042 23.5572 67.792 23.3504C67.5798 23.1436 67.3036 23.0402 66.9635 23.0402C66.7322 23.0402 66.5186 23.1014 66.3227 23.2239C66.1295 23.3436 65.973 23.5109 65.8533 23.7259C65.7363 23.9408 65.6778 24.1898 65.6778 24.4728V28.3379H64.4575ZM77.6006 28.4644C77.0128 28.4644 76.4999 28.3297 76.0619 28.0604C75.6238 27.791 75.2837 27.4141 75.0415 26.9298C74.7994 26.4455 74.6783 25.8795 74.6783 25.2319C74.6783 24.5816 74.7994 24.013 75.0415 23.5259C75.2837 23.0389 75.6238 22.6606 76.0619 22.3913C76.4999 22.1219 77.0128 21.9872 77.6006 21.9872C78.1883 21.9872 78.7012 22.1219 79.1393 22.3913C79.5773 22.6606 79.9175 23.0389 80.1596 23.5259C80.4018 24.013 80.5229 24.5816 80.5229 25.2319C80.5229 25.8795 80.4018 26.4455 80.1596 26.9298C79.9175 27.4141 79.5773 27.791 79.1393 28.0604C78.7012 28.3297 78.1883 28.4644 77.6006 28.4644ZM77.6047 27.44C77.9856 27.44 78.3012 27.3393 78.5515 27.138C78.8019 26.9366 78.9869 26.6686 79.1066 26.3339C79.2291 25.9992 79.2903 25.6306 79.2903 25.2279C79.2903 24.8279 79.2291 24.4605 79.1066 24.1259C78.9869 23.7885 78.8019 23.5177 78.5515 23.3137C78.3012 23.1096 77.9856 23.0076 77.6047 23.0076C77.221 23.0076 76.9026 23.1096 76.6496 23.3137C76.3993 23.5177 76.2129 23.7885 76.0904 24.1259C75.9707 24.4605 75.9109 24.8279 75.9109 25.2279C75.9109 25.6306 75.9707 25.9992 76.0904 26.3339C76.2129 26.6686 76.3993 26.9366 76.6496 27.138C76.9026 27.3393 77.221 27.44 77.6047 27.44ZM86.2011 25.738V22.0688H87.4255V28.3379H86.2255V27.2522H86.1602C86.016 27.5869 85.7847 27.8658 85.4664 28.0889C85.1508 28.3093 84.7576 28.4195 84.2869 28.4195C83.8842 28.4195 83.5277 28.3311 83.2175 28.1542C82.9101 27.9746 82.6679 27.7094 82.491 27.3584C82.3169 27.0073 82.2298 26.5734 82.2298 26.0564V22.0688H83.4502V25.9094C83.4502 26.3366 83.5685 26.6768 83.8053 26.9298C84.042 27.1828 84.3494 27.3094 84.7277 27.3094C84.9562 27.3094 85.1834 27.2522 85.4093 27.138C85.6378 27.0237 85.8269 26.8509 85.9766 26.6196C86.1289 26.3883 86.2038 26.0945 86.2011 25.738ZM94.1077 23.5994L93.0016 23.7953C92.9554 23.6538 92.8819 23.5191 92.7812 23.3912C92.6833 23.2633 92.55 23.1586 92.3813 23.0769C92.2126 22.9953 92.0017 22.9545 91.7486 22.9545C91.4031 22.9545 91.1147 23.032 90.8834 23.1871C90.6521 23.3395 90.5365 23.5368 90.5365 23.7789C90.5365 23.9885 90.614 24.1572 90.7691 24.285C90.9242 24.4129 91.1745 24.5177 91.5201 24.5993L92.5159 24.8279C93.0928 24.9612 93.5227 25.1666 93.8057 25.4442C94.0887 25.7217 94.2301 26.0822 94.2301 26.5257C94.2301 26.9012 94.1213 27.2359 93.9036 27.5298C93.6887 27.8209 93.388 28.0495 93.0016 28.2154C92.618 28.3814 92.1731 28.4644 91.667 28.4644C90.965 28.4644 90.3922 28.3148 89.9487 28.0155C89.5052 27.7134 89.2331 27.2849 89.1325 26.7298L90.312 26.5502C90.3854 26.8577 90.5365 27.0903 90.765 27.2482C90.9936 27.4032 91.2915 27.4808 91.6588 27.4808C92.0588 27.4808 92.3785 27.3978 92.618 27.2318C92.8574 27.0631 92.9771 26.8577 92.9771 26.6155C92.9771 26.4196 92.9037 26.255 92.7567 26.1217C92.6125 25.9884 92.3908 25.8877 92.0915 25.8197L91.0303 25.587C90.4453 25.4537 90.0127 25.2415 89.7324 24.9503C89.4549 24.6592 89.3161 24.2905 89.3161 23.8443C89.3161 23.4742 89.4195 23.1504 89.6263 22.8729C89.8331 22.5953 90.1188 22.379 90.4834 22.2239C90.848 22.0661 91.2657 21.9872 91.7364 21.9872C92.4139 21.9872 92.9472 22.1341 93.3363 22.428C93.7254 22.7191 93.9825 23.1096 94.1077 23.5994ZM99.3032 28.3379V22.0688H100.524V28.3379H99.3032ZM99.9195 21.1015C99.7072 21.1015 99.5249 21.0308 99.3726 20.8893C99.2229 20.7451 99.1481 20.5737 99.1481 20.375C99.1481 20.1737 99.2229 20.0023 99.3726 19.8608C99.5249 19.7166 99.7072 19.6445 99.9195 19.6445C100.132 19.6445 100.313 19.7166 100.462 19.8608C100.615 20.0023 100.691 20.1737 100.691 20.375C100.691 20.5737 100.615 20.7451 100.462 20.8893C100.313 21.0308 100.132 21.1015 99.9195 21.1015ZM103.73 24.6156V28.3379H102.51V22.0688H103.681V23.0892H103.759C103.903 22.7572 104.129 22.4906 104.436 22.2892C104.747 22.0879 105.137 21.9872 105.608 21.9872C106.035 21.9872 106.409 22.077 106.73 22.2566C107.051 22.4334 107.3 22.6974 107.477 23.0484C107.654 23.3994 107.742 23.8334 107.742 24.3503V28.3379H106.522V24.4973C106.522 24.0429 106.404 23.6878 106.167 23.432C105.93 23.1735 105.605 23.0443 105.192 23.0443C104.909 23.0443 104.657 23.1055 104.436 23.228C104.219 23.3504 104.046 23.53 103.918 23.7667C103.793 24.0007 103.73 24.2837 103.73 24.6156ZM112.65 22.0688V23.0484H109.226V22.0688H112.65ZM110.144 20.5669H111.365V26.4972C111.365 26.7339 111.4 26.9121 111.471 27.0318C111.541 27.1488 111.633 27.2291 111.744 27.2726C111.858 27.3135 111.982 27.3339 112.116 27.3339C112.214 27.3339 112.299 27.3271 112.373 27.3135C112.446 27.2999 112.503 27.289 112.544 27.2808L112.765 28.2889C112.694 28.3161 112.593 28.3433 112.463 28.3705C112.332 28.4005 112.169 28.4168 111.973 28.4195C111.652 28.425 111.352 28.3678 111.075 28.2481C110.797 28.1284 110.573 27.9434 110.401 27.693C110.23 27.4427 110.144 27.1284 110.144 26.7502V20.5669ZM116.98 28.4644C116.362 28.4644 115.83 28.3324 115.384 28.0685C114.94 27.8019 114.597 27.4277 114.355 26.9461C114.116 26.4618 113.996 25.8945 113.996 25.2442C113.996 24.602 114.116 24.0361 114.355 23.5463C114.597 23.0565 114.935 22.6742 115.367 22.3994C115.803 22.1246 116.312 21.9872 116.894 21.9872C117.248 21.9872 117.59 22.0457 117.922 22.1627C118.254 22.2797 118.552 22.4634 118.816 22.7137C119.08 22.964 119.288 23.2892 119.441 23.6892C119.593 24.0864 119.669 24.5694 119.669 25.1381V25.5707H114.686V24.6565H118.473C118.473 24.3354 118.408 24.051 118.277 23.8034C118.147 23.5531 117.963 23.3558 117.726 23.2116C117.492 23.0674 117.218 22.9953 116.902 22.9953C116.559 22.9953 116.26 23.0797 116.004 23.2484C115.751 23.4143 115.555 23.632 115.416 23.9014C115.28 24.168 115.212 24.4578 115.212 24.7707V25.485C115.212 25.904 115.286 26.2604 115.433 26.5543C115.582 26.8482 115.79 27.0727 116.057 27.2277C116.324 27.3801 116.635 27.4563 116.992 27.4563C117.223 27.4563 117.434 27.4237 117.624 27.3584C117.815 27.2903 117.979 27.1897 118.118 27.0563C118.257 26.923 118.363 26.7584 118.437 26.5625L119.592 26.7706C119.499 27.1107 119.333 27.4087 119.094 27.6645C118.857 27.9175 118.559 28.1148 118.2 28.2563C117.843 28.395 117.437 28.4644 116.98 28.4644ZM121.368 28.3379V22.0688H122.548V23.0647H122.613C122.727 22.7273 122.928 22.462 123.217 22.2688C123.508 22.0729 123.837 21.975 124.205 21.975C124.281 21.975 124.371 21.9777 124.474 21.9831C124.58 21.9886 124.663 21.9954 124.723 22.0035V23.1708C124.674 23.1572 124.587 23.1422 124.462 23.1259C124.337 23.1069 124.211 23.0974 124.086 23.0974C123.798 23.0974 123.541 23.1586 123.315 23.281C123.092 23.4007 122.915 23.5681 122.784 23.783C122.654 23.9953 122.588 24.2374 122.588 24.5095V28.3379H121.368ZM127.892 28.4767C127.495 28.4767 127.136 28.4032 126.815 28.2563C126.493 28.1066 126.239 27.8903 126.051 27.6073C125.866 27.3243 125.774 26.9774 125.774 26.5666C125.774 26.2128 125.842 25.9217 125.978 25.6931C126.114 25.4646 126.298 25.2836 126.529 25.1503C126.76 25.017 127.019 24.9163 127.304 24.8483C127.59 24.7803 127.881 24.7286 128.178 24.6932C128.553 24.6497 128.858 24.6143 129.092 24.5871C129.326 24.5571 129.496 24.5095 129.602 24.4442C129.708 24.3789 129.761 24.2728 129.761 24.1259V24.0973C129.761 23.7409 129.661 23.4647 129.459 23.2688C129.261 23.0729 128.964 22.9749 128.57 22.9749C128.159 22.9749 127.835 23.0661 127.598 23.2484C127.364 23.4279 127.202 23.6279 127.113 23.8483L125.966 23.5871C126.102 23.2062 126.3 22.8987 126.562 22.6647C126.825 22.428 127.129 22.2566 127.472 22.1505C127.815 22.0416 128.175 21.9872 128.553 21.9872C128.804 21.9872 129.069 22.0171 129.349 22.077C129.632 22.1341 129.896 22.2403 130.141 22.3953C130.389 22.5504 130.591 22.7722 130.749 23.0606C130.907 23.3463 130.986 23.7177 130.986 24.1748V28.3379H129.794V27.4808H129.745C129.666 27.6386 129.548 27.7937 129.39 27.9461C129.232 28.0984 129.029 28.225 128.782 28.3256C128.534 28.4263 128.238 28.4767 127.892 28.4767ZM128.157 27.4971C128.495 27.4971 128.783 27.4305 129.023 27.2971C129.265 27.1638 129.448 26.9897 129.574 26.7747C129.701 26.557 129.765 26.3244 129.765 26.0768V25.2687C129.722 25.3122 129.638 25.353 129.512 25.3911C129.39 25.4265 129.25 25.4578 129.092 25.485C128.934 25.5095 128.78 25.5326 128.631 25.5544C128.481 25.5734 128.356 25.5897 128.255 25.6033C128.019 25.6333 127.802 25.6836 127.606 25.7544C127.413 25.8251 127.258 25.9271 127.141 26.0605C127.027 26.1911 126.97 26.3652 126.97 26.5829C126.97 26.8849 127.081 27.1135 127.304 27.2686C127.527 27.4209 127.812 27.4971 128.157 27.4971ZM135.597 28.4644C134.99 28.4644 134.467 28.327 134.029 28.0522C133.594 27.7747 133.259 27.3924 133.025 26.9053C132.791 26.4183 132.674 25.8605 132.674 25.2319C132.674 24.5952 132.794 24.0334 133.034 23.5463C133.273 23.0565 133.61 22.6742 134.046 22.3994C134.481 22.1246 134.994 21.9872 135.584 21.9872C136.061 21.9872 136.485 22.0756 136.858 22.2525C137.231 22.4266 137.531 22.6715 137.76 22.9872C137.991 23.3028 138.129 23.6715 138.172 24.0932H136.984C136.919 23.7994 136.769 23.5463 136.535 23.3341C136.304 23.1218 135.994 23.0157 135.605 23.0157C135.265 23.0157 134.967 23.1055 134.711 23.2851C134.458 23.462 134.261 23.715 134.119 24.0442C133.978 24.3708 133.907 24.7571 133.907 25.2034C133.907 25.6605 133.976 26.055 134.115 26.387C134.254 26.7189 134.45 26.9761 134.703 27.1584C134.959 27.3407 135.259 27.4318 135.605 27.4318C135.836 27.4318 136.046 27.3896 136.233 27.3053C136.424 27.2182 136.583 27.0944 136.711 26.9339C136.842 26.7733 136.933 26.5802 136.984 26.3543H138.172C138.129 26.7597 137.997 27.1216 137.776 27.44C137.556 27.7583 137.261 28.0087 136.89 28.191C136.523 28.3733 136.092 28.4644 135.597 28.4644ZM142.748 22.0688V23.0484H139.324V22.0688H142.748ZM140.242 20.5669H141.463V26.4972C141.463 26.7339 141.498 26.9121 141.569 27.0318C141.639 27.1488 141.731 27.2291 141.842 27.2726C141.956 27.3135 142.08 27.3339 142.214 27.3339C142.312 27.3339 142.397 27.3271 142.471 27.3135C142.544 27.2999 142.601 27.289 142.642 27.2808L142.863 28.2889C142.792 28.3161 142.691 28.3433 142.561 28.3705C142.43 28.4005 142.267 28.4168 142.071 28.4195C141.75 28.425 141.45 28.3678 141.173 28.2481C140.895 28.1284 140.671 27.9434 140.499 27.693C140.328 27.4427 140.242 27.1284 140.242 26.7502V20.5669ZM144.443 28.3379V22.0688H145.663V28.3379H144.443ZM145.059 21.1015C144.847 21.1015 144.665 21.0308 144.512 20.8893C144.363 20.7451 144.288 20.5737 144.288 20.375C144.288 20.1737 144.363 20.0023 144.512 19.8608C144.665 19.7166 144.847 19.6445 145.059 19.6445C145.272 19.6445 145.452 19.7166 145.602 19.8608C145.754 20.0023 145.831 20.1737 145.831 20.375C145.831 20.5737 145.754 20.7451 145.602 20.8893C145.452 21.0308 145.272 21.1015 145.059 21.1015ZM150.291 28.4644C149.703 28.4644 149.19 28.3297 148.752 28.0604C148.314 27.791 147.974 27.4141 147.731 26.9298C147.489 26.4455 147.368 25.8795 147.368 25.2319C147.368 24.5816 147.489 24.013 147.731 23.5259C147.974 23.0389 148.314 22.6606 148.752 22.3913C149.19 22.1219 149.703 21.9872 150.291 21.9872C150.878 21.9872 151.391 22.1219 151.829 22.3913C152.267 22.6606 152.607 23.0389 152.85 23.5259C153.092 24.013 153.213 24.5816 153.213 25.2319C153.213 25.8795 153.092 26.4455 152.85 26.9298C152.607 27.4141 152.267 27.791 151.829 28.0604C151.391 28.3297 150.878 28.4644 150.291 28.4644ZM150.295 27.44C150.676 27.44 150.991 27.3393 151.242 27.138C151.492 26.9366 151.677 26.6686 151.797 26.3339C151.919 25.9992 151.98 25.6306 151.98 25.2279C151.98 24.8279 151.919 24.4605 151.797 24.1259C151.677 23.7885 151.492 23.5177 151.242 23.3137C150.991 23.1096 150.676 23.0076 150.295 23.0076C149.911 23.0076 149.593 23.1096 149.34 23.3137C149.089 23.5177 148.903 23.7885 148.78 24.1259C148.661 24.4605 148.601 24.8279 148.601 25.2279C148.601 25.6306 148.661 25.9992 148.78 26.3339C148.903 26.6686 149.089 26.9366 149.34 27.138C149.593 27.3393 149.911 27.44 150.295 27.44ZM156.14 24.6156V28.3379H154.92V22.0688H156.091V23.0892H156.169C156.313 22.7572 156.539 22.4906 156.846 22.2892C157.156 22.0879 157.547 21.9872 158.018 21.9872C158.445 21.9872 158.819 22.077 159.14 22.2566C159.461 22.4334 159.71 22.6974 159.887 23.0484C160.064 23.3994 160.152 23.8334 160.152 24.3503V28.3379H158.932V24.4973C158.932 24.0429 158.813 23.6878 158.577 23.432C158.34 23.1735 158.015 23.0443 157.601 23.0443C157.318 23.0443 157.067 23.1055 156.846 23.228C156.629 23.3504 156.456 23.53 156.328 23.7667C156.203 24.0007 156.14 24.2837 156.14 24.6156ZM28.5328 45.3379L26.688 39.0688H27.9492L29.1777 43.6727H29.2389L30.4715 39.0688H31.7327L32.9571 43.6523H33.0183L34.2387 39.0688H35.4998L33.6591 45.3379H32.4143L31.1409 40.8116H31.047L29.7736 45.3379H28.5328ZM37.0027 45.3379V39.0688H38.2231V45.3379H37.0027ZM37.619 38.1015C37.4068 38.1015 37.2245 38.0308 37.0721 37.8893C36.9224 37.7451 36.8476 37.5737 36.8476 37.375C36.8476 37.1737 36.9224 37.0023 37.0721 36.8608C37.2245 36.7166 37.4068 36.6445 37.619 36.6445C37.8312 36.6445 38.0122 36.7166 38.1618 36.8608C38.3142 37.0023 38.3904 37.1737 38.3904 37.375C38.3904 37.5737 38.3142 37.7451 38.1618 37.8893C38.0122 38.0308 37.8312 38.1015 37.619 38.1015ZM43.136 39.0688V40.0484H39.7117V39.0688H43.136ZM40.63 37.5669H41.8503V43.4972C41.8503 43.7339 41.8857 43.9121 41.9564 44.0318C42.0272 44.1488 42.1183 44.2291 42.2299 44.2726C42.3442 44.3135 42.468 44.3339 42.6013 44.3339C42.6993 44.3339 42.785 44.3271 42.8584 44.3135C42.9319 44.2999 42.989 44.289 43.0299 44.2808L43.2503 45.2889C43.1795 45.3161 43.0788 45.3433 42.9482 45.3705C42.8176 45.4005 42.6544 45.4168 42.4585 45.4195C42.1374 45.425 41.8381 45.3678 41.5605 45.2481C41.283 45.1284 41.0585 44.9434 40.8871 44.693C40.7157 44.4427 40.63 44.1284 40.63 43.7502V37.5669ZM46.1857 41.6156V45.3379H44.9654V36.9792H46.1694V40.0892H46.247C46.3939 39.7518 46.6184 39.4838 46.9204 39.2852C47.2224 39.0865 47.6169 38.9872 48.104 38.9872C48.5339 38.9872 48.9094 39.0756 49.2305 39.2525C49.5543 39.4294 49.8046 39.6933 49.9814 40.0443C50.161 40.3926 50.2508 40.8279 50.2508 41.3503V45.3379H49.0305V41.4973C49.0305 41.0374 48.9121 40.681 48.6754 40.4279C48.4387 40.1722 48.1094 40.0443 47.6877 40.0443C47.3993 40.0443 47.1408 40.1055 46.9122 40.228C46.6864 40.3504 46.5082 40.53 46.3776 40.7667C46.2497 41.0007 46.1857 41.2837 46.1857 41.6156ZM57.435 45.4767C57.0377 45.4767 56.6785 45.4032 56.3575 45.2563C56.0364 45.1066 55.782 44.8903 55.5943 44.6073C55.4092 44.3243 55.3167 43.9774 55.3167 43.5666C55.3167 43.2128 55.3847 42.9217 55.5208 42.6931C55.6568 42.4646 55.8405 42.2836 56.0718 42.1503C56.3031 42.017 56.5615 41.9163 56.8472 41.8483C57.1329 41.7803 57.4241 41.7286 57.7207 41.6932C58.0962 41.6497 58.4009 41.6143 58.6349 41.5871C58.8689 41.5571 59.039 41.5095 59.1451 41.4442C59.2512 41.3789 59.3043 41.2728 59.3043 41.1259V41.0973C59.3043 40.7409 59.2036 40.4647 59.0022 40.2688C58.8036 40.0729 58.507 39.9749 58.1125 39.9749C57.7016 39.9749 57.3778 40.0661 57.1411 40.2484C56.9071 40.4279 56.7452 40.6279 56.6554 40.8483L55.5085 40.5871C55.6446 40.2062 55.8432 39.8987 56.1044 39.6647C56.3684 39.428 56.6717 39.2566 57.0146 39.1505C57.3574 39.0416 57.718 38.9872 58.0962 38.9872C58.3465 38.9872 58.6118 39.0171 58.892 39.077C59.175 39.1341 59.4389 39.2403 59.6838 39.3953C59.9314 39.5504 60.1341 39.7722 60.292 40.0606C60.4498 40.3463 60.5287 40.7177 60.5287 41.1748V45.3379H59.3369V44.4808H59.2879C59.209 44.6386 59.0907 44.7937 58.9329 44.9461C58.775 45.0984 58.5723 45.225 58.3247 45.3256C58.0771 45.4263 57.7805 45.4767 57.435 45.4767ZM57.7003 44.4971C58.0377 44.4971 58.3261 44.4305 58.5655 44.2971C58.8077 44.1638 58.9914 43.9897 59.1165 43.7747C59.2444 43.557 59.3083 43.3244 59.3083 43.0768V42.2687C59.2648 42.3122 59.1805 42.353 59.0553 42.3911C58.9329 42.4265 58.7927 42.4578 58.6349 42.485C58.4771 42.5095 58.3234 42.5326 58.1737 42.5544C58.0241 42.5734 57.8989 42.5897 57.7982 42.6033C57.5615 42.6333 57.3452 42.6836 57.1493 42.7544C56.9561 42.8251 56.801 42.9271 56.684 43.0605C56.5697 43.1911 56.5126 43.3652 56.5126 43.5829C56.5126 43.8849 56.6241 44.1135 56.8472 44.2686C57.0704 44.4209 57.3547 44.4971 57.7003 44.4971ZM63.7192 41.6156V45.3379H62.4989V39.0688H63.6703V40.0892H63.7478C63.892 39.7572 64.1179 39.4906 64.4253 39.2892C64.7355 39.0879 65.126 38.9872 65.5967 38.9872C66.0239 38.9872 66.398 39.077 66.7191 39.2566C67.0402 39.4334 67.2891 39.6974 67.466 40.0484C67.6428 40.3994 67.7313 40.8334 67.7313 41.3503V45.3379H66.5109V41.4973C66.5109 41.0429 66.3926 40.6878 66.1559 40.432C65.9191 40.1735 65.594 40.0443 65.1804 40.0443C64.8974 40.0443 64.6457 40.1055 64.4253 40.228C64.2077 40.3504 64.0349 40.53 63.907 40.7667C63.7818 41.0007 63.7192 41.2837 63.7192 41.6156ZM70.2596 47.6888C70.0773 47.6888 69.9114 47.6738 69.7617 47.6439C69.6121 47.6167 69.5005 47.5868 69.427 47.5541L69.7209 46.5542C69.944 46.614 70.1426 46.6399 70.3168 46.6317C70.4909 46.6235 70.6447 46.5582 70.778 46.4358C70.914 46.3133 71.0337 46.1134 71.1371 45.8358L71.2882 45.4195L68.9944 39.0688H70.3005L71.8881 43.9339H71.9534L73.5411 39.0688H74.8512L72.2677 46.1746C72.148 46.5011 71.9956 46.7773 71.8106 47.0031C71.6256 47.2317 71.4052 47.4031 71.1494 47.5174C70.8936 47.6316 70.597 47.6888 70.2596 47.6888ZM82.5333 45.3379H79.8273V36.9792H82.619C83.438 36.9792 84.1414 37.1465 84.7291 37.4812C85.3168 37.8131 85.7672 38.2906 86.0801 38.9137C86.3957 39.5341 86.5535 40.2783 86.5535 41.1463C86.5535 42.017 86.3943 42.7652 86.076 43.3911C85.7603 44.0169 85.3032 44.4985 84.7046 44.8359C84.106 45.1706 83.3822 45.3379 82.5333 45.3379ZM81.0885 44.2359H82.4639C83.1006 44.2359 83.6298 44.1162 84.0516 43.8767C84.4733 43.6346 84.789 43.2849 84.9985 42.8278C85.208 42.368 85.3128 41.8075 85.3128 41.1463C85.3128 40.4905 85.208 39.9341 84.9985 39.477C84.7917 39.0199 84.4829 38.6729 84.072 38.4362C83.6611 38.1995 83.151 38.0811 82.5415 38.0811H81.0885V44.2359ZM91.0705 45.4644C90.4529 45.4644 89.9209 45.3324 89.4747 45.0685C89.0312 44.8019 88.6883 44.4277 88.4462 43.9461C88.2067 43.4618 88.087 42.8945 88.087 42.2442C88.087 41.602 88.2067 41.0361 88.4462 40.5463C88.6883 40.0565 89.0257 39.6742 89.4584 39.3994C89.8937 39.1246 90.4025 38.9872 90.9848 38.9872C91.3385 38.9872 91.6814 39.0457 92.0133 39.1627C92.3453 39.2797 92.6432 39.4634 92.9072 39.7137C93.1711 39.964 93.3792 40.2892 93.5316 40.6892C93.684 41.0864 93.7602 41.5694 93.7602 42.1381V42.5707H88.7768V41.6565H92.5643C92.5643 41.3354 92.499 41.051 92.3684 40.8034C92.2378 40.5531 92.0541 40.3558 91.8174 40.2116C91.5834 40.0674 91.3086 39.9953 90.993 39.9953C90.6501 39.9953 90.3508 40.0797 90.0951 40.2484C89.842 40.4143 89.6461 40.632 89.5073 40.9014C89.3713 41.168 89.3033 41.4578 89.3033 41.7707V42.485C89.3033 42.904 89.3767 43.2604 89.5237 43.5543C89.6733 43.8482 89.8815 44.0727 90.1481 44.2277C90.4148 44.3801 90.7263 44.4563 91.0828 44.4563C91.3141 44.4563 91.5249 44.4237 91.7154 44.3584C91.9059 44.2903 92.0705 44.1897 92.2092 44.0563C92.348 43.923 92.4541 43.7584 92.5276 43.5625L93.6826 43.7706C93.5901 44.1107 93.4241 44.4087 93.1847 44.6645C92.948 44.9175 92.65 45.1148 92.2909 45.2563C91.9344 45.395 91.5276 45.4644 91.0705 45.4644ZM95.5569 45.3379V36.9792H100.74V38.0648H96.8181V40.6116H100.369V41.6932H96.8181V45.3379H95.5569ZM102.538 45.3379V39.0688H103.758V45.3379H102.538ZM103.154 38.1015C102.942 38.1015 102.76 38.0308 102.608 37.8893C102.458 37.7451 102.383 37.5737 102.383 37.375C102.383 37.1737 102.458 37.0023 102.608 36.8608C102.76 36.7166 102.942 36.6445 103.154 36.6445C103.367 36.6445 103.548 36.7166 103.697 36.8608C103.85 37.0023 103.926 37.1737 103.926 37.375C103.926 37.5737 103.85 37.7451 103.697 37.8893C103.548 38.0308 103.367 38.1015 103.154 38.1015ZM109.131 47.6888V39.0688H110.323V40.0851H110.425C110.496 39.9545 110.598 39.8035 110.731 39.6321C110.865 39.4607 111.05 39.311 111.286 39.1831C111.523 39.0525 111.836 38.9872 112.225 38.9872C112.731 38.9872 113.183 39.1151 113.58 39.3709C113.977 39.6266 114.289 39.9953 114.515 40.4769C114.743 40.9585 114.858 41.5381 114.858 42.2156C114.858 42.8931 114.745 43.474 114.519 43.9584C114.293 44.44 113.983 44.8114 113.588 45.0726C113.194 45.3311 112.744 45.4603 112.237 45.4603C111.857 45.4603 111.545 45.3964 111.303 45.2685C111.063 45.1406 110.876 44.991 110.74 44.8196C110.604 44.6481 110.499 44.4958 110.425 44.3624H110.352V47.6888H109.131ZM110.327 42.2034C110.327 42.6442 110.391 43.0305 110.519 43.3625C110.647 43.6944 110.832 43.9543 111.074 44.142C111.316 44.3271 111.613 44.4196 111.964 44.4196C112.329 44.4196 112.633 44.323 112.878 44.1298C113.123 43.9339 113.308 43.6686 113.433 43.3339C113.561 42.9992 113.625 42.6224 113.625 42.2034C113.625 41.7898 113.563 41.4184 113.437 41.0891C113.315 40.7599 113.13 40.5001 112.882 40.3096C112.637 40.1191 112.331 40.0239 111.964 40.0239C111.61 40.0239 111.311 40.115 111.066 40.2973C110.824 40.4796 110.64 40.7341 110.515 41.0606C110.39 41.3871 110.327 41.768 110.327 42.2034ZM116.57 45.3379V39.0688H117.749V40.0647H117.815C117.929 39.7273 118.13 39.462 118.419 39.2688C118.71 39.0729 119.039 38.975 119.406 38.975C119.483 38.975 119.572 38.9777 119.676 38.9831C119.782 38.9886 119.865 38.9954 119.925 39.0035V40.1708C119.876 40.1572 119.789 40.1422 119.663 40.1259C119.538 40.1069 119.413 40.0974 119.288 40.0974C119 40.0974 118.742 40.1586 118.517 40.281C118.294 40.4007 118.117 40.5681 117.986 40.783C117.855 40.9953 117.79 41.2374 117.79 41.5095V45.3379H116.57ZM123.742 45.4644C123.154 45.4644 122.641 45.3297 122.203 45.0604C121.765 44.791 121.425 44.4141 121.183 43.9298C120.941 43.4455 120.819 42.8795 120.819 42.2319C120.819 41.5816 120.941 41.013 121.183 40.5259C121.425 40.0389 121.765 39.6606 122.203 39.3913C122.641 39.1219 123.154 38.9872 123.742 38.9872C124.329 38.9872 124.842 39.1219 125.28 39.3913C125.719 39.6606 126.059 40.0389 126.301 40.5259C126.543 41.013 126.664 41.5816 126.664 42.2319C126.664 42.8795 126.543 43.4455 126.301 43.9298C126.059 44.4141 125.719 44.791 125.28 45.0604C124.842 45.3297 124.329 45.4644 123.742 45.4644ZM123.746 44.44C124.127 44.44 124.442 44.3393 124.693 44.138C124.943 43.9366 125.128 43.6686 125.248 43.3339C125.37 42.9992 125.431 42.6306 125.431 42.2279C125.431 41.8279 125.37 41.4605 125.248 41.1259C125.128 40.7885 124.943 40.5177 124.693 40.3137C124.442 40.1096 124.127 40.0076 123.746 40.0076C123.362 40.0076 123.044 40.1096 122.791 40.3137C122.54 40.5177 122.354 40.7885 122.232 41.1259C122.112 41.4605 122.052 41.8279 122.052 42.2279C122.052 42.6306 122.112 42.9992 122.232 43.3339C122.354 43.6686 122.54 43.9366 122.791 44.138C123.044 44.3393 123.362 44.44 123.746 44.44ZM131.297 39.0688V40.0484H127.873V39.0688H131.297ZM128.791 37.5669H130.012V43.4972C130.012 43.7339 130.047 43.9121 130.118 44.0318C130.189 44.1488 130.28 44.2291 130.391 44.2726C130.506 44.3135 130.629 44.3339 130.763 44.3339C130.861 44.3339 130.946 44.3271 131.02 44.3135C131.093 44.2999 131.15 44.289 131.191 44.2808L131.412 45.2889C131.341 45.3161 131.24 45.3433 131.11 45.3705C130.979 45.4005 130.816 45.4168 130.62 45.4195C130.299 45.425 130 45.3678 129.722 45.2481C129.444 45.1284 129.22 44.9434 129.049 44.693C128.877 44.4427 128.791 44.1284 128.791 43.7502V37.5669ZM135.565 45.4644C134.978 45.4644 134.465 45.3297 134.027 45.0604C133.589 44.791 133.249 44.4141 133.006 43.9298C132.764 43.4455 132.643 42.8795 132.643 42.2319C132.643 41.5816 132.764 41.013 133.006 40.5259C133.249 40.0389 133.589 39.6606 134.027 39.3913C134.465 39.1219 134.978 38.9872 135.565 38.9872C136.153 38.9872 136.666 39.1219 137.104 39.3913C137.542 39.6606 137.882 40.0389 138.125 40.5259C138.367 41.013 138.488 41.5816 138.488 42.2319C138.488 42.8795 138.367 43.4455 138.125 43.9298C137.882 44.4141 137.542 44.791 137.104 45.0604C136.666 45.3297 136.153 45.4644 135.565 45.4644ZM135.57 44.44C135.95 44.44 136.266 44.3393 136.516 44.138C136.767 43.9366 136.952 43.6686 137.072 43.3339C137.194 42.9992 137.255 42.6306 137.255 42.2279C137.255 41.8279 137.194 41.4605 137.072 41.1259C136.952 40.7885 136.767 40.5177 136.516 40.3137C136.266 40.1096 135.95 40.0076 135.57 40.0076C135.186 40.0076 134.868 40.1096 134.615 40.3137C134.364 40.5177 134.178 40.7885 134.055 41.1259C133.936 41.4605 133.876 41.8279 133.876 42.2279C133.876 42.6306 133.936 42.9992 134.055 43.3339C134.178 43.6686 134.364 43.9366 134.615 44.138C134.868 44.3393 135.186 44.44 135.57 44.44ZM142.835 45.4644C142.229 45.4644 141.706 45.327 141.268 45.0522C140.833 44.7747 140.498 44.3924 140.264 43.9053C140.03 43.4183 139.913 42.8605 139.913 42.2319C139.913 41.5952 140.033 41.0334 140.272 40.5463C140.512 40.0565 140.849 39.6742 141.284 39.3994C141.72 39.1246 142.233 38.9872 142.823 38.9872C143.299 38.9872 143.724 39.0756 144.097 39.2525C144.469 39.4266 144.77 39.6715 144.999 39.9872C145.23 40.3028 145.367 40.6715 145.411 41.0932H144.223C144.158 40.7994 144.008 40.5463 143.774 40.3341C143.543 40.1218 143.233 40.0157 142.844 40.0157C142.503 40.0157 142.206 40.1055 141.95 40.2851C141.697 40.462 141.499 40.715 141.358 41.0442C141.216 41.3708 141.146 41.7571 141.146 42.2034C141.146 42.6605 141.215 43.055 141.354 43.387C141.493 43.7189 141.689 43.9761 141.942 44.1584C142.197 44.3407 142.498 44.4318 142.844 44.4318C143.075 44.4318 143.284 44.3896 143.472 44.3053C143.663 44.2182 143.822 44.0944 143.95 43.9339C144.08 43.7733 144.171 43.5802 144.223 43.3543H145.411C145.367 43.7597 145.235 44.1216 145.015 44.44C144.794 44.7583 144.499 45.0087 144.129 45.191C143.762 45.3733 143.331 45.4644 142.835 45.4644ZM149.701 45.4644C149.114 45.4644 148.601 45.3297 148.163 45.0604C147.725 44.791 147.384 44.4141 147.142 43.9298C146.9 43.4455 146.779 42.8795 146.779 42.2319C146.779 41.5816 146.9 41.013 147.142 40.5259C147.384 40.0389 147.725 39.6606 148.163 39.3913C148.601 39.1219 149.114 38.9872 149.701 38.9872C150.289 38.9872 150.802 39.1219 151.24 39.3913C151.678 39.6606 152.018 40.0389 152.26 40.5259C152.503 41.013 152.624 41.5816 152.624 42.2319C152.624 42.8795 152.503 43.4455 152.26 43.9298C152.018 44.4141 151.678 44.791 151.24 45.0604C150.802 45.3297 150.289 45.4644 149.701 45.4644ZM149.705 44.44C150.086 44.44 150.402 44.3393 150.652 44.138C150.903 43.9366 151.088 43.6686 151.207 43.3339C151.33 42.9992 151.391 42.6306 151.391 42.2279C151.391 41.8279 151.33 41.4605 151.207 41.1259C151.088 40.7885 150.903 40.5177 150.652 40.3137C150.402 40.1096 150.086 40.0076 149.705 40.0076C149.322 40.0076 149.003 40.1096 148.75 40.3137C148.5 40.5177 148.314 40.7885 148.191 41.1259C148.071 41.4605 148.012 41.8279 148.012 42.2279C148.012 42.6306 148.071 42.9992 148.191 43.3339C148.314 43.6686 148.5 43.9366 148.75 44.138C149.003 44.3393 149.322 44.44 149.705 44.44ZM155.551 36.9792V45.3379H154.331V36.9792H155.551Z" fill="#E4F2FF"/>
<rect x="163.367" y="39.4043" width="26.2703" height="26.2703" rx="6.56758" fill="#0A81BE"/>
<path d="M177.184 52.0582L181.485 52.0486L181.476 56.3503" stroke="#E4F2FF" stroke-width="0.820947" stroke-linecap="round" stroke-linejoin="round"/>
<path d="M181.21 52.324L176.284 57.2497" stroke="#E4F2FF" stroke-width="0.820947" stroke-linecap="round" stroke-linejoin="round"/>
</svg>
