<svg width="221" height="82" viewBox="0 0 221 82" fill="none" xmlns="http://www.w3.org/2000/svg">
<g opacity="0.2">
<path d="M0.134766 5.1914H1.26953V4.62402C1.26953 4.2314 1.34374 3.86272 1.49217 3.51798C1.6406 3.17324 1.8417 2.87399 2.09546 2.62022C2.35402 2.36167 2.65566 2.15818 3.0004 2.00975C3.34514 1.86132 3.71382 1.78711 4.10644 1.78711H5.80858V2.92187H4.10644C3.87182 2.92187 3.65157 2.96736 3.44569 3.05833C3.2398 3.14451 3.05786 3.26661 2.89985 3.42461C2.74664 3.57783 2.62454 3.75738 2.53357 3.96327C2.44738 4.16915 2.40429 4.3894 2.40429 4.62402V5.1914H4.67382V6.32616H2.40429V12H1.26953V6.32616H0.134766V5.1914Z" fill="#0A81BE"/>
<path d="M8.18211 6.89354C8.18211 6.50092 8.25632 6.13225 8.40475 5.78751C8.55318 5.44277 8.75427 5.14352 9.00804 4.88975C9.26659 4.6312 9.56824 4.42771 9.91298 4.27928C10.2577 4.13085 10.6264 4.05663 11.019 4.05663C11.4116 4.05663 11.7803 4.13085 12.125 4.27928C12.4698 4.42771 12.769 4.6312 13.0228 4.88975C13.2814 5.14352 13.4848 5.44277 13.6333 5.78751C13.7817 6.13225 13.8559 6.50092 13.8559 6.89354V9.16307C13.8559 9.55569 13.7817 9.92437 13.6333 10.2691C13.4848 10.6138 13.2814 10.9155 13.0228 11.174C12.769 11.4278 12.4698 11.6289 12.125 11.7773C11.7803 11.9258 11.4116 12 11.019 12C10.6264 12 10.2577 11.9258 9.91298 11.7773C9.56824 11.6289 9.26659 11.4278 9.00804 11.174C8.75427 10.9155 8.55318 10.6138 8.40475 10.2691C8.25632 9.92437 8.18211 9.55569 8.18211 9.16307V6.89354ZM9.31687 9.16307C9.31687 9.39768 9.35996 9.61793 9.44615 9.82382C9.53712 10.0297 9.65921 10.2116 9.81243 10.3697C9.97043 10.5229 10.1524 10.645 10.3583 10.7359C10.5642 10.8221 10.7844 10.8652 11.019 10.8652C11.2536 10.8652 11.4739 10.8221 11.6798 10.7359C11.8856 10.645 12.0652 10.5229 12.2184 10.3697C12.3764 10.2116 12.4985 10.0297 12.5847 9.82382C12.6757 9.61793 12.7212 9.39768 12.7212 9.16307V6.89354C12.7212 6.65893 12.6757 6.43868 12.5847 6.23279C12.4985 6.02691 12.3764 5.84736 12.2184 5.69414C12.0652 5.53614 11.8856 5.41404 11.6798 5.32786C11.4739 5.23688 11.2536 5.1914 11.019 5.1914C10.7844 5.1914 10.5642 5.23688 10.3583 5.32786C10.1524 5.41404 9.97043 5.53614 9.81243 5.69414C9.65921 5.84736 9.53712 6.02691 9.44615 6.23279C9.35996 6.43868 9.31687 6.65893 9.31687 6.89354V9.16307Z" fill="#0A81BE"/>
<path d="M16.2294 12V4.05663H17.3642V5.20576C17.4456 5.05733 17.5797 4.91609 17.7664 4.78202C17.9531 4.64317 18.1566 4.52107 18.3769 4.41574C18.6019 4.30561 18.827 4.21943 19.052 4.15718C19.2818 4.09015 19.4757 4.05663 19.6337 4.05663C19.9785 4.05663 20.2729 4.11409 20.5171 4.229C20.7661 4.34392 20.9768 4.50431 21.1491 4.7102C21.3263 4.9113 21.4699 5.1507 21.5801 5.4284C21.6902 5.70611 21.7788 6.00536 21.8458 6.32616H20.6679C20.6105 6.16337 20.5578 6.01254 20.5099 5.87369C20.4669 5.73484 20.4094 5.61514 20.3376 5.51459C20.2705 5.41404 20.182 5.33504 20.0718 5.27758C19.9665 5.22012 19.8205 5.1914 19.6337 5.1914C19.4805 5.1914 19.3177 5.22252 19.1454 5.28476C18.973 5.34222 18.803 5.42601 18.6354 5.53614C18.4678 5.64147 18.3074 5.76835 18.1542 5.91678C18.001 6.06042 17.8646 6.21604 17.7449 6.38362C17.6299 6.5512 17.5366 6.72835 17.4648 6.91509C17.3977 7.09703 17.3642 7.28137 17.3642 7.46811V12H16.2294Z" fill="#0A81BE"/>
<path d="M36.8632 14.2695C36.5807 14.2695 36.2982 14.1666 36.0157 13.9607C35.738 13.7548 35.4723 13.4795 35.2185 13.1347C34.9695 12.79 34.7373 12.3902 34.5218 11.9353C34.3064 11.4757 34.1196 10.9945 33.9616 10.4917C33.8036 9.98422 33.6791 9.4719 33.5882 8.95479C33.502 8.43289 33.4589 7.93494 33.4589 7.46092C33.4589 6.98691 33.502 6.49135 33.5882 5.97424C33.6791 5.45234 33.8036 4.94003 33.9616 4.43728C34.1196 3.92975 34.3064 3.44855 34.5218 2.99369C34.7373 2.53404 34.9695 2.13185 35.2185 1.78711C35.4723 1.44237 35.738 1.16706 36.0157 0.961172C36.2982 0.755286 36.5807 0.652344 36.8632 0.652344V1.78711C36.6717 1.88287 36.4825 2.03608 36.2958 2.24676C36.1139 2.45743 35.9391 2.7112 35.7715 3.00805C35.6039 3.30012 35.4483 3.62571 35.3047 3.98481C35.161 4.34392 35.0365 4.71738 34.9312 5.10521C34.8259 5.49304 34.7421 5.88806 34.6798 6.29025C34.6224 6.69244 34.5937 7.08267 34.5937 7.46092C34.5937 7.83918 34.6224 8.2294 34.6798 8.6316C34.7421 9.03379 34.8259 9.4288 34.9312 9.81664C35.0365 10.2045 35.161 10.5779 35.3047 10.937C35.4483 11.2961 35.6039 11.6241 35.7715 11.921C35.9391 12.213 36.1139 12.4644 36.2958 12.6751C36.4825 12.8858 36.6717 13.039 36.8632 13.1347V14.2695Z" fill="#0A81BE"/>
<path d="M46.0453 4.05663L43.7758 12H42.641L40.3715 4.05663H41.5062L43.2084 10.2978L44.9105 4.05663H46.0453Z" fill="#0A81BE"/>
<path d="M50.6883 12C50.3771 12 50.0826 11.9401 49.8049 11.8204C49.532 11.7007 49.2926 11.5379 49.0867 11.332C48.8808 11.1262 48.7181 10.8868 48.5984 10.6138C48.4787 10.3361 48.4188 10.0417 48.4188 9.73045C48.4188 9.41923 48.4787 9.12716 48.5984 8.85424C48.7181 8.57653 48.8808 8.33474 49.0867 8.12885C49.2926 7.92297 49.532 7.76018 49.8049 7.64048C50.0826 7.52077 50.3771 7.46092 50.6883 7.46092H52.9579V6.89354C52.9579 6.65893 52.9124 6.43868 52.8214 6.23279C52.7352 6.02691 52.6131 5.84736 52.4551 5.69414C52.3019 5.53614 52.1223 5.41404 51.9165 5.32786C51.7106 5.23688 51.4903 5.1914 51.2557 5.1914H49.5536V4.05663H51.2557C51.6483 4.05663 52.017 4.13085 52.3617 4.27928C52.7065 4.42771 53.0057 4.6312 53.2595 4.88975C53.5181 5.14352 53.7215 5.44277 53.87 5.78751C54.0184 6.13225 54.0926 6.50092 54.0926 6.89354V12H50.6883ZM50.6883 8.59569C50.5303 8.59569 50.3819 8.62681 50.243 8.68905C50.109 8.74651 49.9893 8.82791 49.8839 8.93324C49.7834 9.03379 49.702 9.15349 49.6398 9.29235C49.5823 9.42641 49.5536 9.57245 49.5536 9.73045C49.5536 9.88846 49.5823 10.0369 49.6398 10.1757C49.702 10.3098 49.7834 10.4295 49.8839 10.5348C49.9893 10.6354 50.109 10.7168 50.243 10.779C50.3819 10.8365 50.5303 10.8652 50.6883 10.8652H52.9579V8.59569H50.6883Z" fill="#0A81BE"/>
<path d="M56.4661 12V4.05663H57.6009V5.20576C57.6823 5.05733 57.8164 4.91609 58.0031 4.78202C58.1898 4.64317 58.3933 4.52107 58.6136 4.41574C58.8386 4.30561 59.0636 4.21943 59.2887 4.15718C59.5185 4.09015 59.7124 4.05663 59.8704 4.05663C60.2152 4.05663 60.5096 4.11409 60.7538 4.229C61.0028 4.34392 61.2135 4.50431 61.3858 4.7102C61.563 4.9113 61.7066 5.1507 61.8168 5.4284C61.9269 5.70611 62.0155 6.00536 62.0825 6.32616H60.9046C60.8472 6.16337 60.7945 6.01254 60.7466 5.87369C60.7036 5.73484 60.6461 5.61514 60.5743 5.51459C60.5072 5.41404 60.4187 5.33504 60.3085 5.27758C60.2032 5.22012 60.0572 5.1914 59.8704 5.1914C59.7172 5.1914 59.5544 5.22252 59.3821 5.28476C59.2097 5.34222 59.0397 5.42601 58.8721 5.53614C58.7045 5.64147 58.5441 5.76835 58.3909 5.91678C58.2377 6.06042 58.1013 6.21604 57.9816 6.38362C57.8666 6.5512 57.7733 6.72835 57.7015 6.91509C57.6344 7.09703 57.6009 7.28137 57.6009 7.46811V12H56.4661Z" fill="#0A81BE"/>
<path d="M74.8303 5.1914H73.6956V4.05663H75.9651V12H74.8303V5.1914ZM74.8303 1.78711H75.9651V2.92187H74.8303V1.78711Z" fill="#0A81BE"/>
<path d="M79.4734 8.59569V7.46092H86.282V8.59569H79.4734ZM79.4734 6.32616V5.1914H86.282V6.32616H79.4734Z" fill="#0A81BE"/>
<path d="M89.7903 2.92187H90.0704C90.1901 2.92187 90.3002 2.90032 90.4007 2.85723C90.5061 2.81414 90.597 2.75429 90.6736 2.67768C90.7503 2.60107 90.8101 2.51249 90.8532 2.41195C90.9011 2.30661 90.925 2.19409 90.925 2.07439V1.78711H92.0598V10.8652H93.1945V12H89.7903V10.8652H90.925V4.05663H89.7903V2.92187Z" fill="#0A81BE"/>
<path d="M97.8376 6.32616C97.8376 6.16816 97.8663 6.02212 97.9238 5.88806C97.986 5.7492 98.0674 5.6295 98.168 5.52895C98.2733 5.42362 98.393 5.34222 98.5271 5.28476C98.6659 5.22252 98.8144 5.1914 98.9724 5.1914C99.1304 5.1914 99.2764 5.22252 99.4105 5.28476C99.5493 5.34222 99.669 5.42362 99.7696 5.52895C99.8749 5.6295 99.9563 5.7492 100.014 5.88806C100.076 6.02212 100.107 6.16816 100.107 6.32616C100.107 6.48417 100.076 6.63259 100.014 6.77145C99.9563 6.90551 99.8749 7.02521 99.7696 7.13055C99.669 7.2311 99.5493 7.3125 99.4105 7.37474C99.2764 7.4322 99.1304 7.46092 98.9724 7.46092C98.8144 7.46092 98.6659 7.4322 98.5271 7.37474C98.393 7.3125 98.2733 7.2311 98.168 7.13055C98.0674 7.02521 97.986 6.90551 97.9238 6.77145C97.8663 6.63259 97.8376 6.48417 97.8376 6.32616ZM98.405 14.2695C98.247 14.2695 98.1129 14.2144 98.0028 14.1043C97.8927 13.9942 97.8376 13.8601 97.8376 13.7021C97.8376 13.5441 97.8927 13.4101 98.0028 13.2999C98.1129 13.1898 98.247 13.1347 98.405 13.1347C98.5486 13.1347 98.6587 13.1084 98.7354 13.0557C98.812 13.0079 98.867 12.936 98.9005 12.8403C98.9388 12.7445 98.9604 12.6248 98.9652 12.4812C98.97 12.3423 98.9724 12.1819 98.9724 12C98.8144 12 98.6659 11.9712 98.5271 11.9138C98.393 11.8515 98.2733 11.7702 98.168 11.6696C98.0674 11.5643 97.986 11.4446 97.9238 11.3105C97.8663 11.1716 97.8376 11.0232 97.8376 10.8652C97.8376 10.7072 97.8663 10.5612 97.9238 10.4271C97.986 10.2883 98.0674 10.1686 98.168 10.068C98.2733 9.96267 98.393 9.88127 98.5271 9.82382C98.6659 9.76157 98.8144 9.73045 98.9724 9.73045C99.1304 9.73045 99.2764 9.76157 99.4105 9.82382C99.5493 9.88127 99.669 9.96267 99.7696 10.068C99.8749 10.1686 99.9563 10.2883 100.014 10.4271C100.076 10.5612 100.107 10.7072 100.107 10.8652V12C100.107 12.2825 100.071 12.5602 99.9994 12.8331C99.9276 13.106 99.8198 13.3478 99.6762 13.5585C99.5373 13.7739 99.3602 13.9463 99.1447 14.0756C98.9341 14.2049 98.6875 14.2695 98.405 14.2695Z" fill="#0A81BE"/>
<path d="M115.067 5.1914H113.932V4.05663H116.202V12H115.067V5.1914ZM115.067 1.78711H116.202V2.92187H115.067V1.78711Z" fill="#0A81BE"/>
<path d="M133.273 2.92187V3.74062L130.12 6.89354L133.273 10.0465V10.8652H132.454L128.892 7.30292V6.48417L132.454 2.92187H133.273Z" fill="#0A81BE"/>
<path d="M135.805 8.59569V7.46092H142.613V8.59569H135.805ZM135.805 6.32616V5.1914H142.613V6.32616H135.805Z" fill="#0A81BE"/>
<path d="M156.438 1.78711C156.75 1.78711 157.042 1.84696 157.315 1.96666C157.592 2.08636 157.834 2.24915 158.04 2.45504C158.246 2.66092 158.409 2.90272 158.528 3.18042C158.648 3.45334 158.708 3.74541 158.708 4.05663V5.1914C158.708 5.40207 158.643 5.61035 158.514 5.81623C158.385 6.02212 158.212 6.22322 157.997 6.41953C157.786 6.61584 157.545 6.80975 157.272 7.00127C156.999 7.18801 156.721 7.37474 156.438 7.56147C156.156 7.74821 155.878 7.93255 155.605 8.11449C155.332 8.29644 155.088 8.47838 154.873 8.66033C154.662 8.83748 154.492 9.01703 154.363 9.19898C154.234 9.37614 154.169 9.55329 154.169 9.73045V10.8652H158.708V12H153.034V9.44317C153.034 9.2325 153.099 9.02182 153.228 8.81115C153.357 8.60048 153.527 8.3922 153.738 8.18631C153.954 7.98043 154.198 7.77933 154.471 7.58302C154.744 7.38192 155.021 7.18561 155.304 6.99409C155.586 6.80257 155.864 6.61584 156.137 6.43389C156.41 6.25195 156.652 6.07718 156.862 5.9096C157.078 5.73723 157.25 5.57444 157.379 5.42122C157.509 5.26322 157.573 5.11239 157.573 4.96875V4.05663C157.573 3.89863 157.542 3.75259 157.48 3.61853C157.422 3.47968 157.341 3.35998 157.236 3.25943C157.135 3.15409 157.015 3.07269 156.877 3.01524C156.743 2.95299 156.596 2.92187 156.438 2.92187H155.304C155.146 2.92187 154.997 2.95299 154.858 3.01524C154.724 3.07269 154.605 3.15409 154.499 3.25943C154.399 3.35998 154.317 3.47968 154.255 3.61853C154.198 3.75259 154.169 3.89863 154.169 4.05663H153.034C153.034 3.74541 153.094 3.45334 153.214 3.18042C153.333 2.90272 153.496 2.66092 153.702 2.45504C153.908 2.24915 154.147 2.08636 154.42 1.96666C154.698 1.84696 154.993 1.78711 155.304 1.78711H156.438Z" fill="#0A81BE"/>
<path d="M161.082 4.62402C161.082 4.2314 161.156 3.86272 161.304 3.51798C161.453 3.17324 161.654 2.87399 161.907 2.62022C162.166 2.36167 162.468 2.15818 162.812 2.00975C163.157 1.86132 163.526 1.78711 163.918 1.78711C164.311 1.78711 164.68 1.86132 165.024 2.00975C165.369 2.15818 165.668 2.36167 165.922 2.62022C166.181 2.87399 166.384 3.17324 166.533 3.51798C166.681 3.86272 166.755 4.2314 166.755 4.62402V9.16307C166.755 9.55569 166.681 9.92437 166.533 10.2691C166.384 10.6138 166.181 10.9155 165.922 11.174C165.668 11.4278 165.369 11.6289 165.024 11.7773C164.68 11.9258 164.311 12 163.918 12C163.526 12 163.157 11.9258 162.812 11.7773C162.468 11.6289 162.166 11.4278 161.907 11.174C161.654 10.9155 161.453 10.6138 161.304 10.2691C161.156 9.92437 161.082 9.55569 161.082 9.16307V4.62402ZM163.918 10.8652C164.153 10.8652 164.373 10.8221 164.579 10.7359C164.785 10.645 164.965 10.5229 165.118 10.3697C165.276 10.2116 165.398 10.0297 165.484 9.82382C165.575 9.61793 165.621 9.39768 165.621 9.16307V6.18252L162.216 8.87579V9.16307C162.216 9.39768 162.259 9.61793 162.346 9.82382C162.437 10.0297 162.559 10.2116 162.712 10.3697C162.87 10.5229 163.052 10.645 163.258 10.7359C163.464 10.8221 163.684 10.8652 163.918 10.8652ZM163.918 2.92187C163.684 2.92187 163.464 2.96736 163.258 3.05833C163.052 3.14451 162.87 3.26661 162.712 3.42461C162.559 3.57783 162.437 3.75738 162.346 3.96327C162.259 4.16915 162.216 4.3894 162.216 4.62402V7.42501L165.621 4.73175V4.62402C165.621 4.3894 165.575 4.16915 165.484 3.96327C165.398 3.75738 165.276 3.57783 165.118 3.42461C164.965 3.26661 164.785 3.14451 164.579 3.05833C164.373 2.96736 164.153 2.92187 163.918 2.92187Z" fill="#0A81BE"/>
<path d="M170.264 6.32616C170.264 6.16816 170.292 6.02212 170.35 5.88806C170.412 5.7492 170.493 5.6295 170.594 5.52895C170.699 5.42362 170.819 5.34222 170.953 5.28476C171.092 5.22252 171.24 5.1914 171.398 5.1914C171.556 5.1914 171.702 5.22252 171.837 5.28476C171.975 5.34222 172.095 5.42362 172.196 5.52895C172.301 5.6295 172.382 5.7492 172.44 5.88806C172.502 6.02212 172.533 6.16816 172.533 6.32616C172.533 6.48417 172.502 6.63259 172.44 6.77145C172.382 6.90551 172.301 7.02521 172.196 7.13055C172.095 7.2311 171.975 7.3125 171.837 7.37474C171.702 7.4322 171.556 7.46092 171.398 7.46092C171.24 7.46092 171.092 7.4322 170.953 7.37474C170.819 7.3125 170.699 7.2311 170.594 7.13055C170.493 7.02521 170.412 6.90551 170.35 6.77145C170.292 6.63259 170.264 6.48417 170.264 6.32616ZM170.831 14.2695C170.673 14.2695 170.539 14.2144 170.429 14.1043C170.319 13.9942 170.264 13.8601 170.264 13.7021C170.264 13.5441 170.319 13.4101 170.429 13.2999C170.539 13.1898 170.673 13.1347 170.831 13.1347C170.975 13.1347 171.085 13.1084 171.161 13.0557C171.238 13.0079 171.293 12.936 171.327 12.8403C171.365 12.7445 171.386 12.6248 171.391 12.4812C171.396 12.3423 171.398 12.1819 171.398 12C171.24 12 171.092 11.9712 170.953 11.9138C170.819 11.8515 170.699 11.7702 170.594 11.6696C170.493 11.5643 170.412 11.4446 170.35 11.3105C170.292 11.1716 170.264 11.0232 170.264 10.8652C170.264 10.7072 170.292 10.5612 170.35 10.4271C170.412 10.2883 170.493 10.1686 170.594 10.068C170.699 9.96267 170.819 9.88127 170.953 9.82382C171.092 9.76157 171.24 9.73045 171.398 9.73045C171.556 9.73045 171.702 9.76157 171.837 9.82382C171.975 9.88127 172.095 9.96267 172.196 10.068C172.301 10.1686 172.382 10.2883 172.44 10.4271C172.502 10.5612 172.533 10.7072 172.533 10.8652V12C172.533 12.2825 172.497 12.5602 172.425 12.8331C172.354 13.106 172.246 13.3478 172.102 13.5585C171.963 13.7739 171.786 13.9463 171.571 14.0756C171.36 14.2049 171.114 14.2695 170.831 14.2695Z" fill="#0A81BE"/>
<path d="M187.493 5.1914H186.358V4.05663H188.628V12H187.493V5.1914ZM187.493 1.78711H188.628V2.92187H187.493V1.78711Z" fill="#0A81BE"/>
<path d="M195.54 7.46092H193.271V6.32616H195.54V4.05663H196.675V6.32616H198.945V7.46092H196.675V9.73045H195.54V7.46092Z" fill="#0A81BE"/>
<path d="M203.588 7.46092H201.318V6.32616H203.588V4.05663H204.723V6.32616H206.992V7.46092H204.723V9.73045H203.588V7.46092Z" fill="#0A81BE"/>
<path d="M210.5 13.1347C210.692 13.039 210.879 12.8858 211.061 12.6751C211.247 12.4644 211.424 12.213 211.592 11.921C211.76 11.6241 211.915 11.2961 212.059 10.937C212.202 10.5779 212.327 10.2045 212.432 9.81664C212.538 9.4288 212.619 9.03379 212.677 8.6316C212.739 8.2294 212.77 7.83918 212.77 7.46092C212.77 7.08267 212.739 6.69244 212.677 6.29025C212.619 5.88806 212.538 5.49304 212.432 5.10521C212.327 4.71738 212.202 4.34392 212.059 3.98481C211.915 3.62571 211.76 3.30012 211.592 3.00805C211.424 2.7112 211.247 2.45743 211.061 2.24676C210.879 2.03608 210.692 1.88287 210.5 1.78711V0.652344C210.783 0.652344 211.063 0.755286 211.341 0.961172C211.623 1.16706 211.889 1.44237 212.138 1.78711C212.392 2.13185 212.626 2.53404 212.842 2.99369C213.057 3.44855 213.244 3.92975 213.402 4.43728C213.56 4.94003 213.682 5.45234 213.768 5.97424C213.859 6.49135 213.905 6.98691 213.905 7.46092C213.905 7.93494 213.859 8.43289 213.768 8.95479C213.682 9.4719 213.56 9.98422 213.402 10.4917C213.244 10.9945 213.057 11.4757 212.842 11.9353C212.626 12.3902 212.392 12.79 212.138 13.1347C211.889 13.4795 211.623 13.7548 211.341 13.9607C211.063 14.1666 210.783 14.2695 210.5 14.2695V13.1347Z" fill="#0A81BE"/>
<path d="M18.499 38.1914H17.3642V37.0566H19.6337V45H18.499V38.1914ZM18.499 34.7871H19.6337V35.9219H18.499V34.7871Z" fill="#0A81BE"/>
<path d="M24.2768 38.1914H25.4115V37.624C25.4115 37.2314 25.4858 36.8627 25.6342 36.518C25.7826 36.1732 25.9837 35.874 26.2375 35.6202C26.496 35.3617 26.7977 35.1582 27.1424 35.0098C27.4872 34.8613 27.8558 34.7871 28.2485 34.7871H29.9506V35.9219H28.2485C28.0138 35.9219 27.7936 35.9674 27.5877 36.0583C27.3818 36.1445 27.1999 36.2666 27.0419 36.4246C26.8887 36.5778 26.7666 36.7574 26.6756 36.9633C26.5894 37.1692 26.5463 37.3894 26.5463 37.624V38.1914H28.8158V39.3262H26.5463V45H25.4115V39.3262H24.2768V38.1914Z" fill="#0A81BE"/>
<path d="M44.9105 47.2695C44.628 47.2695 44.3455 47.1666 44.063 46.9607C43.7853 46.7548 43.5196 46.4795 43.2658 46.1347C43.0168 45.79 42.7846 45.3902 42.5692 44.9353C42.3537 44.4757 42.167 43.9945 42.009 43.4917C41.851 42.9842 41.7265 42.4719 41.6355 41.9548C41.5493 41.4329 41.5062 40.9349 41.5062 40.4609C41.5062 39.9869 41.5493 39.4913 41.6355 38.9742C41.7265 38.4523 41.851 37.94 42.009 37.4373C42.167 36.9298 42.3537 36.4486 42.5692 35.9937C42.7846 35.534 43.0168 35.1318 43.2658 34.7871C43.5196 34.4424 43.7853 34.1671 44.063 33.9612C44.3455 33.7553 44.628 33.6523 44.9105 33.6523V34.7871C44.719 34.8829 44.5299 35.0361 44.3431 35.2468C44.1612 35.4574 43.9864 35.7112 43.8188 36.0081C43.6513 36.3001 43.4956 36.6257 43.352 36.9848C43.2084 37.3439 43.0839 37.7174 42.9785 38.1052C42.8732 38.493 42.7894 38.8881 42.7272 39.2902C42.6697 39.6924 42.641 40.0827 42.641 40.4609C42.641 40.8392 42.6697 41.2294 42.7272 41.6316C42.7894 42.0338 42.8732 42.4288 42.9785 42.8166C43.0839 43.2045 43.2084 43.5779 43.352 43.937C43.4956 44.2961 43.6513 44.6241 43.8188 44.921C43.9864 45.213 44.1612 45.4644 44.3431 45.6751C44.5299 45.8858 44.719 46.039 44.9105 46.1347V47.2695Z" fill="#0A81BE"/>
<path d="M50.6883 38.1914H49.5536V37.0566H51.8231V45H50.6883V38.1914ZM50.6883 34.7871H51.8231V35.9219H50.6883V34.7871Z" fill="#0A81BE"/>
<path d="M64.5135 43.8652H63.3787L69.0525 35.9219H70.1873L64.5135 43.8652ZM66.783 42.1631C66.783 41.9285 66.8261 41.7082 66.9123 41.5023C67.0033 41.2964 67.1253 41.1169 67.2786 40.9637C67.4366 40.8057 67.6185 40.6836 67.8244 40.5974C68.0303 40.5064 68.2505 40.4609 68.4852 40.4609C68.7198 40.4609 68.94 40.5064 69.1459 40.5974C69.3518 40.6836 69.5313 40.8057 69.6846 40.9637C69.8426 41.1169 69.9647 41.2964 70.0508 41.5023C70.1418 41.7082 70.1873 41.9285 70.1873 42.1631C70.1873 42.3977 70.1418 42.6179 70.0508 42.8238C69.9647 43.0297 69.8426 43.2116 69.6846 43.3697C69.5313 43.5229 69.3518 43.645 69.1459 43.7359C68.94 43.8221 68.7198 43.8652 68.4852 43.8652C68.2505 43.8652 68.0303 43.8221 67.8244 43.7359C67.6185 43.645 67.4366 43.5229 67.2786 43.3697C67.1253 43.2116 67.0033 43.0297 66.9123 42.8238C66.8261 42.6179 66.783 42.3977 66.783 42.1631ZM63.3787 37.624C63.3787 37.3894 63.4218 37.1692 63.508 36.9633C63.599 36.7574 63.7211 36.5778 63.8743 36.4246C64.0323 36.2666 64.2142 36.1445 64.4201 36.0583C64.626 35.9674 64.8463 35.9219 65.0809 35.9219C65.3155 35.9219 65.5357 35.9674 65.7416 36.0583C65.9475 36.1445 66.127 36.2666 66.2803 36.4246C66.4383 36.5778 66.5604 36.7574 66.6465 36.9633C66.7375 37.1692 66.783 37.3894 66.783 37.624C66.783 37.8586 66.7375 38.0789 66.6465 38.2848C66.5604 38.4906 66.4383 38.6726 66.2803 38.8306C66.127 38.9838 65.9475 39.1059 65.7416 39.1969C65.5357 39.2831 65.3155 39.3262 65.0809 39.3262C64.8463 39.3262 64.626 39.2831 64.4201 39.1969C64.2142 39.1059 64.0323 38.9838 63.8743 38.8306C63.7211 38.6726 63.599 38.4906 63.508 38.2848C63.4218 38.0789 63.3787 37.8586 63.3787 37.624ZM64.5135 37.624C64.5135 37.782 64.5685 37.9161 64.6787 38.0262C64.7888 38.1363 64.9229 38.1914 65.0809 38.1914C65.2389 38.1914 65.3729 38.1363 65.4831 38.0262C65.5932 37.9161 65.6482 37.782 65.6482 37.624C65.6482 37.466 65.5932 37.3319 65.4831 37.2218C65.3729 37.1117 65.2389 37.0566 65.0809 37.0566C64.9229 37.0566 64.7888 37.1117 64.6787 37.2218C64.5685 37.3319 64.5135 37.466 64.5135 37.624ZM67.9178 42.1631C67.9178 42.3211 67.9728 42.4551 68.083 42.5653C68.1931 42.6754 68.3271 42.7304 68.4852 42.7304C68.6432 42.7304 68.7772 42.6754 68.8873 42.5653C68.9975 42.4551 69.0525 42.3211 69.0525 42.1631C69.0525 42.0051 68.9975 41.871 68.8873 41.7609C68.7772 41.6508 68.6432 41.5957 68.4852 41.5957C68.3271 41.5957 68.1931 41.6508 68.083 41.7609C67.9728 41.871 67.9178 42.0051 67.9178 42.1631Z" fill="#0A81BE"/>
<path d="M81.7429 35.9219H82.023C82.1427 35.9219 82.2528 35.9003 82.3534 35.8572C82.4587 35.8141 82.5497 35.7543 82.6263 35.6777C82.7029 35.6011 82.7628 35.5125 82.8059 35.4119C82.8537 35.3066 82.8777 35.1941 82.8777 35.0744V34.7871H84.0124V43.8652H85.1472V45H81.7429V43.8652H82.8777V37.0566H81.7429V35.9219Z" fill="#0A81BE"/>
<path d="M88.6555 43.8652H91.4924C91.727 43.8652 91.9473 43.8221 92.1532 43.7359C92.359 43.645 92.5386 43.5229 92.6918 43.3697C92.8498 43.2116 92.9719 43.0297 93.0581 42.8238C93.1491 42.6179 93.1945 42.3977 93.1945 42.1631C93.1945 41.9285 93.1491 41.7082 93.0581 41.5023C92.9719 41.2964 92.8498 41.1169 92.6918 40.9637C92.5386 40.8057 92.359 40.6836 92.1532 40.5974C91.9473 40.5064 91.727 40.4609 91.4924 40.4609H88.6555V34.7871H94.3293V35.9219H89.7903V39.3262H91.4924C91.885 39.3262 92.2537 39.4004 92.5984 39.5488C92.9432 39.6972 93.2424 39.9007 93.4962 40.1593C93.7547 40.413 93.9582 40.7123 94.1067 41.057C94.2551 41.4018 94.3293 41.7705 94.3293 42.1631C94.3293 42.5557 94.2551 42.9244 94.1067 43.2691C93.9582 43.6138 93.7547 43.9155 93.4962 44.174C93.2424 44.4278 92.9432 44.6289 92.5984 44.7773C92.2537 44.9258 91.885 45 91.4924 45H88.6555V43.8652Z" fill="#0A81BE"/>
<path d="M103.615 41.5957V40.4609H110.424V41.5957H103.615ZM103.615 39.3262V38.1914H110.424V39.3262H103.615Z" fill="#0A81BE"/>
<path d="M111.663 41.5957V40.4609H118.471V41.5957H111.663ZM111.663 39.3262V38.1914H118.471V39.3262H111.663Z" fill="#0A81BE"/>
<path d="M128.892 37.624C128.892 37.2314 128.966 36.8627 129.115 36.518C129.263 36.1732 129.464 35.874 129.718 35.6202C129.977 35.3617 130.278 35.1582 130.623 35.0098C130.968 34.8613 131.336 34.7871 131.729 34.7871C132.122 34.7871 132.49 34.8613 132.835 35.0098C133.18 35.1582 133.479 35.3617 133.733 35.6202C133.991 35.874 134.195 36.1732 134.343 36.518C134.492 36.8627 134.566 37.2314 134.566 37.624V42.1631C134.566 42.5557 134.492 42.9244 134.343 43.2691C134.195 43.6138 133.991 43.9155 133.733 44.174C133.479 44.4278 133.18 44.6289 132.835 44.7773C132.49 44.9258 132.122 45 131.729 45C131.336 45 130.968 44.9258 130.623 44.7773C130.278 44.6289 129.977 44.4278 129.718 44.174C129.464 43.9155 129.263 43.6138 129.115 43.2691C128.966 42.9244 128.892 42.5557 128.892 42.1631V37.624ZM131.729 43.8652C131.964 43.8652 132.184 43.8221 132.39 43.7359C132.596 43.645 132.775 43.5229 132.928 43.3697C133.087 43.2116 133.209 43.0297 133.295 42.8238C133.386 42.6179 133.431 42.3977 133.431 42.1631V39.1825L130.027 41.8758V42.1631C130.027 42.3977 130.07 42.6179 130.156 42.8238C130.247 43.0297 130.369 43.2116 130.523 43.3697C130.681 43.5229 130.862 43.645 131.068 43.7359C131.274 43.8221 131.494 43.8652 131.729 43.8652ZM131.729 35.9219C131.494 35.9219 131.274 35.9674 131.068 36.0583C130.862 36.1445 130.681 36.2666 130.523 36.4246C130.369 36.5778 130.247 36.7574 130.156 36.9633C130.07 37.1692 130.027 37.3894 130.027 37.624V40.425L133.431 37.7317V37.624C133.431 37.3894 133.386 37.1692 133.295 36.9633C133.209 36.7574 133.087 36.5778 132.928 36.4246C132.775 36.2666 132.596 36.1445 132.39 36.0583C132.184 35.9674 131.964 35.9219 131.729 35.9219Z" fill="#0A81BE"/>
<path d="M138.074 46.1347C138.266 46.039 138.453 45.8858 138.634 45.6751C138.821 45.4644 138.998 45.213 139.166 44.921C139.334 44.6241 139.489 44.2961 139.633 43.937C139.776 43.5779 139.901 43.2045 140.006 42.8166C140.112 42.4288 140.193 42.0338 140.25 41.6316C140.313 41.2294 140.344 40.8392 140.344 40.4609C140.344 40.0827 140.313 39.6924 140.25 39.2902C140.193 38.8881 140.112 38.493 140.006 38.1052C139.901 37.7174 139.776 37.3439 139.633 36.9848C139.489 36.6257 139.334 36.3001 139.166 36.0081C138.998 35.7112 138.821 35.4574 138.634 35.2468C138.453 35.0361 138.266 34.8829 138.074 34.7871V33.6523C138.357 33.6523 138.637 33.7553 138.915 33.9612C139.197 34.1671 139.463 34.4424 139.712 34.7871C139.966 35.1318 140.2 35.534 140.416 35.9937C140.631 36.4486 140.818 36.9298 140.976 37.4373C141.134 37.94 141.256 38.4523 141.342 38.9742C141.433 39.4913 141.479 39.9869 141.479 40.4609C141.479 40.9349 141.433 41.4329 141.342 41.9548C141.256 42.4719 141.134 42.9842 140.976 43.4917C140.818 43.9945 140.631 44.4757 140.416 44.9353C140.2 45.3902 139.966 45.79 139.712 46.1347C139.463 46.4795 139.197 46.7548 138.915 46.9607C138.637 47.1666 138.357 47.2695 138.074 47.2695V46.1347Z" fill="#0A81BE"/>
<path d="M33.4589 75.1631C33.4589 75.3977 33.5092 75.6179 33.6097 75.8238C33.7103 76.0297 33.8419 76.2116 34.0047 76.3697C34.1723 76.5229 34.3638 76.645 34.5793 76.7359C34.7995 76.8221 35.027 76.8652 35.2616 76.8652C35.4483 76.8652 35.6255 76.8389 35.7931 76.7862C35.9606 76.7288 36.1139 76.6498 36.2527 76.5492C36.3916 76.4487 36.5137 76.329 36.619 76.1901C36.7243 76.0512 36.8057 75.898 36.8632 75.7305H37.9979C37.9309 76.056 37.8112 76.3577 37.6388 76.6354C37.4713 76.9083 37.2654 77.1477 37.0212 77.3536C36.777 77.5547 36.5017 77.7127 36.1952 77.8276C35.8888 77.9425 35.5632 78 35.2185 78C34.8259 78 34.4548 77.9258 34.1053 77.7773C33.7557 77.6289 33.4493 77.4278 33.186 77.174C32.9226 76.9155 32.712 76.6138 32.554 76.2691C32.4007 75.9244 32.3241 75.5557 32.3241 75.1631V72.8935C32.3241 72.5009 32.4007 72.1322 32.554 71.7875C32.712 71.4428 32.9226 71.1435 33.186 70.8897C33.4493 70.6312 33.7557 70.4277 34.1053 70.2793C34.4548 70.1308 34.8259 70.0566 35.2185 70.0566C35.5632 70.0566 35.8888 70.1141 36.1952 70.229C36.5017 70.3439 36.777 70.5043 37.0212 70.7102C37.2654 70.9113 37.4713 71.1507 37.6388 71.4284C37.8112 71.7061 37.9309 72.0054 37.9979 72.3262H36.8632C36.8057 72.1634 36.7243 72.0125 36.619 71.8737C36.5137 71.7348 36.3916 71.6151 36.2527 71.5146C36.1139 71.414 35.9606 71.335 35.7931 71.2776C35.6255 71.2201 35.4483 71.1914 35.2616 71.1914C35.027 71.1914 34.7995 71.2369 34.5793 71.3279C34.3638 71.414 34.1723 71.5361 34.0047 71.6941C33.8419 71.8474 33.7103 72.0269 33.6097 72.2328C33.5092 72.4387 33.4589 72.6589 33.4589 72.8935V75.1631Z" fill="#0A81BE"/>
<path d="M40.3715 72.8935C40.3715 72.5009 40.4457 72.1322 40.5941 71.7875C40.7425 71.4428 40.9436 71.1435 41.1974 70.8897C41.4559 70.6312 41.7576 70.4277 42.1023 70.2793C42.4471 70.1308 42.8158 70.0566 43.2084 70.0566C43.601 70.0566 43.9697 70.1308 44.3144 70.2793C44.6591 70.4277 44.9584 70.6312 45.2122 70.8897C45.4707 71.1435 45.6742 71.4428 45.8226 71.7875C45.9711 72.1322 46.0453 72.5009 46.0453 72.8935V75.1631C46.0453 75.5557 45.9711 75.9244 45.8226 76.2691C45.6742 76.6138 45.4707 76.9155 45.2122 77.174C44.9584 77.4278 44.6591 77.6289 44.3144 77.7773C43.9697 77.9258 43.601 78 43.2084 78C42.8158 78 42.4471 77.9258 42.1023 77.7773C41.7576 77.6289 41.4559 77.4278 41.1974 77.174C40.9436 76.9155 40.7425 76.6138 40.5941 76.2691C40.4457 75.9244 40.3715 75.5557 40.3715 75.1631V72.8935ZM41.5062 75.1631C41.5062 75.3977 41.5493 75.6179 41.6355 75.8238C41.7265 76.0297 41.8486 76.2116 42.0018 76.3697C42.1598 76.5229 42.3417 76.645 42.5476 76.7359C42.7535 76.8221 42.9738 76.8652 43.2084 76.8652C43.443 76.8652 43.6632 76.8221 43.8691 76.7359C44.075 76.645 44.2546 76.5229 44.4078 76.3697C44.5658 76.2116 44.6879 76.0297 44.7741 75.8238C44.865 75.6179 44.9105 75.3977 44.9105 75.1631V72.8935C44.9105 72.6589 44.865 72.4387 44.7741 72.2328C44.6879 72.0269 44.5658 71.8474 44.4078 71.6941C44.2546 71.5361 44.075 71.414 43.8691 71.3279C43.6632 71.2369 43.443 71.1914 43.2084 71.1914C42.9738 71.1914 42.7535 71.2369 42.5476 71.3279C42.3417 71.414 42.1598 71.5361 42.0018 71.6941C41.8486 71.8474 41.7265 72.0269 41.6355 72.2328C41.5493 72.4387 41.5062 72.6589 41.5062 72.8935V75.1631Z" fill="#0A81BE"/>
<path d="M51.2557 71.1914C51.0259 71.1914 50.808 71.2345 50.6021 71.3207C50.401 71.4069 50.2239 71.5242 50.0707 71.6726C49.9175 71.8162 49.7954 71.9886 49.7044 72.1897C49.6134 72.386 49.5631 72.5967 49.5536 72.8217V78H48.4188V70.0566H49.5536V70.6312C49.793 70.4492 50.0563 70.308 50.3436 70.2075C50.6309 70.1069 50.9349 70.0566 51.2557 70.0566C51.6483 70.0566 52.017 70.1308 52.3617 70.2793C52.7065 70.4277 53.0057 70.6312 53.2595 70.8897C53.5181 71.1435 53.7215 71.4428 53.87 71.7875C54.0184 72.1322 54.0926 72.5009 54.0926 72.8935V78H52.9579V72.8935C52.9579 72.6589 52.9124 72.4387 52.8214 72.2328C52.7352 72.0269 52.6131 71.8474 52.4551 71.6941C52.3019 71.5361 52.1223 71.414 51.9165 71.3279C51.7106 71.2369 51.4903 71.1914 51.2557 71.1914Z" fill="#0A81BE"/>
<path d="M62.14 70.0566V71.1914H59.3031C59.0206 71.1914 58.7716 71.2249 58.5561 71.2919C58.3454 71.3542 58.1683 71.4404 58.0246 71.5505C57.8858 71.6558 57.7805 71.7755 57.7086 71.9096C57.6368 72.0437 57.6009 72.1825 57.6009 72.3262C57.6009 72.4698 57.6368 72.6087 57.7086 72.7427C57.7805 72.8768 57.8858 72.9989 58.0246 73.109C58.1683 73.2143 58.3454 73.3005 58.5561 73.3676C58.7716 73.4298 59.0206 73.4609 59.3031 73.4609C59.4898 73.4609 59.6909 73.4777 59.9063 73.5112C60.1218 73.5447 60.3349 73.5974 60.5455 73.6692C60.7562 73.741 60.9573 73.8368 61.1488 73.9565C61.3404 74.0714 61.5079 74.2126 61.6516 74.3802C61.8 74.5478 61.9173 74.7417 62.0035 74.962C62.0945 75.1822 62.14 75.4336 62.14 75.7161C62.14 76.0034 62.0705 76.2835 61.9317 76.5564C61.7976 76.8293 61.6061 77.0735 61.3571 77.289C61.1129 77.5044 60.8161 77.6768 60.4665 77.8061C60.117 77.9353 59.7292 78 59.3031 78H56.4661V76.8652H59.3031C59.5855 76.8652 59.8321 76.8341 60.0428 76.7719C60.2583 76.7048 60.4354 76.6186 60.5743 76.5133C60.7179 76.4032 60.8256 76.2787 60.8975 76.1398C60.9693 76.001 61.0052 75.8597 61.0052 75.7161C61.0052 75.5772 60.9693 75.4408 60.8975 75.3067C60.8256 75.1726 60.7179 75.0529 60.5743 74.9476C60.4354 74.8423 60.2583 74.7585 60.0428 74.6962C59.8321 74.6292 59.5855 74.5957 59.3031 74.5957C59.1163 74.5957 58.9152 74.5789 58.6998 74.5454C58.4843 74.5119 58.2712 74.4592 58.0606 74.3874C57.8499 74.3108 57.6488 74.215 57.4573 74.1001C57.2657 73.9804 57.0958 73.8368 56.9473 73.6692C56.8037 73.5016 56.6864 73.3077 56.5954 73.0875C56.5092 72.8624 56.4661 72.6087 56.4661 72.3262C56.4661 72.0437 56.5332 71.766 56.6672 71.493C56.8061 71.2201 56.9976 70.9783 57.2418 70.7677C57.4908 70.5522 57.79 70.3798 58.1396 70.2505C58.4891 70.1213 58.8769 70.0566 59.3031 70.0566H62.14Z" fill="#0A81BE"/>
<path d="M64.5135 72.8935C64.5135 72.5009 64.5877 72.1322 64.7361 71.7875C64.8846 71.4428 65.0857 71.1435 65.3394 70.8897C65.598 70.6312 65.8996 70.4277 66.2444 70.2793C66.5891 70.1308 66.9578 70.0566 67.3504 70.0566C67.743 70.0566 68.1117 70.1308 68.4564 70.2793C68.8012 70.4277 69.1004 70.6312 69.3542 70.8897C69.6127 71.1435 69.8162 71.4428 69.9647 71.7875C70.1131 72.1322 70.1873 72.5009 70.1873 72.8935V75.1631C70.1873 75.5557 70.1131 75.9244 69.9647 76.2691C69.8162 76.6138 69.6127 76.9155 69.3542 77.174C69.1004 77.4278 68.8012 77.6289 68.4564 77.7773C68.1117 77.9258 67.743 78 67.3504 78C66.9578 78 66.5891 77.9258 66.2444 77.7773C65.8996 77.6289 65.598 77.4278 65.3394 77.174C65.0857 76.9155 64.8846 76.6138 64.7361 76.2691C64.5877 75.9244 64.5135 75.5557 64.5135 75.1631V72.8935ZM65.6482 75.1631C65.6482 75.3977 65.6913 75.6179 65.7775 75.8238C65.8685 76.0297 65.9906 76.2116 66.1438 76.3697C66.3018 76.5229 66.4838 76.645 66.6896 76.7359C66.8955 76.8221 67.1158 76.8652 67.3504 76.8652C67.585 76.8652 67.8053 76.8221 68.0111 76.7359C68.217 76.645 68.3966 76.5229 68.5498 76.3697C68.7078 76.2116 68.8299 76.0297 68.9161 75.8238C69.007 75.6179 69.0525 75.3977 69.0525 75.1631V72.8935C69.0525 72.6589 69.007 72.4387 68.9161 72.2328C68.8299 72.0269 68.7078 71.8474 68.5498 71.6941C68.3966 71.5361 68.217 71.414 68.0111 71.3279C67.8053 71.2369 67.585 71.1914 67.3504 71.1914C67.1158 71.1914 66.8955 71.2369 66.6896 71.3279C66.4838 71.414 66.3018 71.5361 66.1438 71.6941C65.9906 71.8474 65.8685 72.0269 65.7775 72.2328C65.6913 72.4387 65.6482 72.6589 65.6482 72.8935V75.1631Z" fill="#0A81BE"/>
<path d="M74.8303 68.9219H73.6956V67.7871H75.9651V78H74.8303V68.9219Z" fill="#0A81BE"/>
<path d="M81.7429 75.1631C81.7429 75.3977 81.786 75.6179 81.8722 75.8238C81.9632 76.0297 82.0853 76.2116 82.2385 76.3697C82.3965 76.5229 82.5784 76.645 82.7843 76.7359C82.9902 76.8221 83.2104 76.8652 83.4451 76.8652H86.282V78H83.4451C83.0524 78 82.6838 77.9258 82.339 77.7773C81.9943 77.6289 81.6926 77.4278 81.4341 77.174C81.1803 76.9155 80.9792 76.6138 80.8308 76.2691C80.6824 75.9244 80.6082 75.5557 80.6082 75.1631V72.8935C80.6082 72.5009 80.6824 72.1322 80.8308 71.7875C80.9792 71.4428 81.1803 71.1435 81.4341 70.8897C81.6926 70.6312 81.9943 70.4277 82.339 70.2793C82.6838 70.1308 83.0524 70.0566 83.4451 70.0566C83.8377 70.0566 84.2064 70.1308 84.5511 70.2793C84.8958 70.4277 85.1951 70.6312 85.4489 70.8897C85.7074 71.1435 85.9109 71.4428 86.0593 71.7875C86.2078 72.1322 86.282 72.5009 86.282 72.8935V74.5957H81.7429V75.1631ZM81.7429 73.4609H85.1472V72.8935C85.1472 72.6589 85.1017 72.4387 85.0107 72.2328C84.9246 72.0269 84.8025 71.8474 84.6445 71.6941C84.4912 71.5361 84.3117 71.414 84.1058 71.3279C83.8999 71.2369 83.6797 71.1914 83.4451 71.1914C83.2104 71.1914 82.9902 71.2369 82.7843 71.3279C82.5784 71.414 82.3965 71.5361 82.2385 71.6941C82.0853 71.8474 81.9632 72.0269 81.8722 72.2328C81.786 72.4387 81.7429 72.6589 81.7429 72.8935V73.4609Z" fill="#0A81BE"/>
<path d="M89.7903 76.8652C89.7903 76.7072 89.819 76.5612 89.8764 76.4271C89.9387 76.2883 90.0201 76.1686 90.1206 76.068C90.226 75.9627 90.3457 75.8813 90.4797 75.8238C90.6186 75.7616 90.767 75.7305 90.925 75.7305C91.083 75.7305 91.2291 75.7616 91.3631 75.8238C91.502 75.8813 91.6217 75.9627 91.7222 76.068C91.8276 76.1686 91.909 76.2883 91.9664 76.4271C92.0287 76.5612 92.0598 76.7072 92.0598 76.8652C92.0598 77.0232 92.0287 77.1716 91.9664 77.3105C91.909 77.4446 91.8276 77.5643 91.7222 77.6696C91.6217 77.7702 91.502 77.8516 91.3631 77.9138C91.2291 77.9713 91.083 78 90.925 78C90.767 78 90.6186 77.9713 90.4797 77.9138C90.3457 77.8516 90.226 77.7702 90.1206 77.6696C90.0201 77.5643 89.9387 77.4446 89.8764 77.3105C89.819 77.1716 89.7903 77.0232 89.7903 76.8652Z" fill="#0A81BE"/>
<path d="M98.9724 68.9219H97.8376V67.7871H100.107V78H98.9724V68.9219Z" fill="#0A81BE"/>
<path d="M104.75 72.8935C104.75 72.5009 104.824 72.1322 104.973 71.7875C105.121 71.4428 105.322 71.1435 105.576 70.8897C105.835 70.6312 106.136 70.4277 106.481 70.2793C106.826 70.1308 107.194 70.0566 107.587 70.0566C107.98 70.0566 108.348 70.1308 108.693 70.2793C109.038 70.4277 109.337 70.6312 109.591 70.8897C109.849 71.1435 110.053 71.4428 110.201 71.7875C110.35 72.1322 110.424 72.5009 110.424 72.8935V75.1631C110.424 75.5557 110.35 75.9244 110.201 76.2691C110.053 76.6138 109.849 76.9155 109.591 77.174C109.337 77.4278 109.038 77.6289 108.693 77.7773C108.348 77.9258 107.98 78 107.587 78C107.194 78 106.826 77.9258 106.481 77.7773C106.136 77.6289 105.835 77.4278 105.576 77.174C105.322 76.9155 105.121 76.6138 104.973 76.2691C104.824 75.9244 104.75 75.5557 104.75 75.1631V72.8935ZM105.885 75.1631C105.885 75.3977 105.928 75.6179 106.014 75.8238C106.105 76.0297 106.227 76.2116 106.381 76.3697C106.539 76.5229 106.72 76.645 106.926 76.7359C107.132 76.8221 107.352 76.8652 107.587 76.8652C107.822 76.8652 108.042 76.8221 108.248 76.7359C108.454 76.645 108.633 76.5229 108.786 76.3697C108.944 76.2116 109.067 76.0297 109.153 75.8238C109.244 75.6179 109.289 75.3977 109.289 75.1631V72.8935C109.289 72.6589 109.244 72.4387 109.153 72.2328C109.067 72.0269 108.944 71.8474 108.786 71.6941C108.633 71.5361 108.454 71.414 108.248 71.3279C108.042 71.2369 107.822 71.1914 107.587 71.1914C107.352 71.1914 107.132 71.2369 106.926 71.3279C106.72 71.414 106.539 71.5361 106.381 71.6941C106.227 71.8474 106.105 72.0269 106.014 72.2328C105.928 72.4387 105.885 72.6589 105.885 72.8935V75.1631Z" fill="#0A81BE"/>
<path d="M113.932 80.2695H115.634C115.869 80.2695 116.089 80.224 116.295 80.133C116.501 80.0469 116.681 79.9248 116.834 79.7668C116.992 79.6135 117.114 79.434 117.2 79.2281C117.291 79.0222 117.337 78.802 117.337 78.5674V77.4326C117.097 77.6098 116.834 77.7486 116.547 77.8492C116.259 77.9497 115.955 78 115.634 78C115.242 78 114.873 77.9258 114.528 77.7773C114.184 77.6289 113.882 77.4278 113.623 77.174C113.37 76.9155 113.169 76.6138 113.02 76.2691C112.872 75.9244 112.798 75.5557 112.798 75.1631V72.8935C112.798 72.5009 112.872 72.1322 113.02 71.7875C113.169 71.4428 113.37 71.1435 113.623 70.8897C113.882 70.6312 114.184 70.4277 114.528 70.2793C114.873 70.1308 115.242 70.0566 115.634 70.0566C115.955 70.0566 116.259 70.1069 116.547 70.2075C116.834 70.308 117.097 70.4492 117.337 70.6312V70.0566H118.471V78.5674C118.471 78.96 118.397 79.3287 118.249 79.6734C118.1 80.0181 117.897 80.3174 117.638 80.5712C117.384 80.8297 117.085 81.0332 116.74 81.1816C116.396 81.3301 116.027 81.4043 115.634 81.4043H113.932V80.2695ZM113.932 75.1631C113.932 75.3977 113.975 75.6179 114.062 75.8238C114.153 76.0297 114.275 76.2116 114.428 76.3697C114.586 76.5229 114.768 76.645 114.974 76.7359C115.18 76.8221 115.4 76.8652 115.634 76.8652C115.864 76.8652 116.08 76.8245 116.281 76.7431C116.482 76.6569 116.659 76.5396 116.812 76.3912C116.965 76.2428 117.088 76.0704 117.179 75.8741C117.274 75.6778 117.327 75.4647 117.337 75.2349V72.8217C117.327 72.5967 117.274 72.386 117.179 72.1897C117.088 71.9886 116.965 71.8162 116.812 71.6726C116.659 71.5242 116.482 71.4069 116.281 71.3207C116.08 71.2345 115.864 71.1914 115.634 71.1914C115.4 71.1914 115.18 71.2369 114.974 71.3279C114.768 71.414 114.586 71.5361 114.428 71.6941C114.275 71.8474 114.153 72.0269 114.062 72.2328C113.975 72.4387 113.932 72.6589 113.932 72.8935V75.1631Z" fill="#0A81BE"/>
<path d="M125.384 80.2695C125.101 80.2695 124.819 80.1666 124.536 79.9607C124.259 79.7548 123.993 79.4795 123.739 79.1347C123.49 78.79 123.258 78.3902 123.043 77.9353C122.827 77.4757 122.64 76.9945 122.482 76.4917C122.324 75.9842 122.2 75.4719 122.109 74.9548C122.023 74.4329 121.98 73.9349 121.98 73.4609C121.98 72.9869 122.023 72.4914 122.109 71.9742C122.2 71.4523 122.324 70.94 122.482 70.4373C122.64 69.9297 122.827 69.4486 123.043 68.9937C123.258 68.534 123.49 68.1318 123.739 67.7871C123.993 67.4424 124.259 67.1671 124.536 66.9612C124.819 66.7553 125.101 66.6523 125.384 66.6523V67.7871C125.192 67.8829 125.003 68.0361 124.817 68.2468C124.635 68.4574 124.46 68.7112 124.292 69.0081C124.125 69.3001 123.969 69.6257 123.825 69.9848C123.682 70.3439 123.557 70.7174 123.452 71.1052C123.347 71.493 123.263 71.8881 123.201 72.2903C123.143 72.6924 123.114 73.0827 123.114 73.4609C123.114 73.8392 123.143 74.2294 123.201 74.6316C123.263 75.0338 123.347 75.4288 123.452 75.8166C123.557 76.2045 123.682 76.5779 123.825 76.937C123.969 77.2961 124.125 77.6241 124.292 77.921C124.46 78.213 124.635 78.4644 124.817 78.6751C125.003 78.8858 125.192 79.039 125.384 79.1347V80.2695Z" fill="#0A81BE"/>
<path d="M128.892 67.7871H130.027V71.1914H128.892V67.7871ZM132.296 67.7871H133.431V71.1914H132.296V67.7871Z" fill="#0A81BE"/>
<path d="M136.94 67.7871H142.613V68.9219H138.074V72.3262H141.479V73.4609H138.074V78H136.94V67.7871Z" fill="#0A81BE"/>
<path d="M147.256 71.1914H146.122V70.0566H148.391V78H147.256V71.1914ZM147.256 67.7871H148.391V68.9219H147.256V67.7871Z" fill="#0A81BE"/>
<path d="M157.358 71.1914H153.034V70.0566H158.708V71.1914L154.377 76.8652H158.708V78H153.034V76.8652L157.358 71.1914Z" fill="#0A81BE"/>
<path d="M165.405 71.1914H161.082V70.0566H166.755V71.1914L162.425 76.8652H166.755V78H161.082V76.8652L165.405 71.1914Z" fill="#0A81BE"/>
<path d="M169.129 67.7871H171.966C172.358 67.7871 172.727 67.8613 173.072 68.0098C173.417 68.1582 173.716 68.3617 173.97 68.6202C174.228 68.874 174.432 69.1732 174.58 69.518C174.728 69.8627 174.803 70.2314 174.803 70.624C174.803 71.0932 174.697 71.5242 174.487 71.9168C174.281 72.3094 174.006 72.635 173.661 72.8935C174.006 73.1521 174.281 73.4801 174.487 73.8775C174.697 74.2701 174.803 74.6986 174.803 75.1631C174.803 75.5557 174.728 75.9244 174.58 76.2691C174.432 76.6138 174.228 76.9155 173.97 77.174C173.716 77.4278 173.417 77.6289 173.072 77.7773C172.727 77.9258 172.358 78 171.966 78H169.129V67.7871ZM171.966 72.3262C172.2 72.3262 172.421 72.2831 172.627 72.1969C172.832 72.1059 173.012 71.9838 173.165 71.8306C173.323 71.6726 173.445 71.4907 173.531 71.2848C173.622 71.0789 173.668 70.8586 173.668 70.624C173.668 70.3894 173.622 70.1691 173.531 69.9633C173.445 69.7574 173.323 69.5778 173.165 69.4246C173.012 69.2666 172.832 69.1445 172.627 69.0583C172.421 68.9674 172.2 68.9219 171.966 68.9219H170.264V72.3262H171.966ZM171.966 76.8652C172.2 76.8652 172.421 76.8221 172.627 76.7359C172.832 76.645 173.012 76.5229 173.165 76.3697C173.323 76.2116 173.445 76.0297 173.531 75.8238C173.622 75.6179 173.668 75.3977 173.668 75.1631C173.668 74.9285 173.622 74.7082 173.531 74.5023C173.445 74.2964 173.323 74.1169 173.165 73.9637C173.012 73.8057 172.832 73.6836 172.627 73.5974C172.421 73.5064 172.2 73.4609 171.966 73.4609H170.264V76.8652H171.966Z" fill="#0A81BE"/>
<path d="M178.311 75.1631C178.311 75.3977 178.354 75.6179 178.44 75.8238C178.531 76.0297 178.653 76.2116 178.807 76.3697C178.965 76.5229 179.147 76.645 179.352 76.7359C179.558 76.8221 179.779 76.8652 180.013 76.8652C180.243 76.8652 180.461 76.8197 180.667 76.7288C180.873 76.6378 181.052 76.5157 181.205 76.3625C181.363 76.2045 181.488 76.0225 181.579 75.8166C181.67 75.6107 181.715 75.3929 181.715 75.1631V70.0566H182.85V78H181.715V77.4326C181.476 77.6098 181.213 77.7486 180.925 77.8492C180.638 77.9497 180.334 78 180.013 78C179.621 78 179.252 77.9258 178.907 77.7773C178.562 77.6289 178.261 77.4278 178.002 77.174C177.748 76.9155 177.547 76.6138 177.399 76.2691C177.25 75.9244 177.176 75.5557 177.176 75.1631V70.0566H178.311V75.1631Z" fill="#0A81BE"/>
<path d="M189.547 71.1914H185.224V70.0566H190.897V71.1914L186.567 76.8652H190.897V78H185.224V76.8652L189.547 71.1914Z" fill="#0A81BE"/>
<path d="M197.594 71.1914H193.271V70.0566H198.945V71.1914L194.614 76.8652H198.945V78H193.271V76.8652L197.594 71.1914Z" fill="#0A81BE"/>
<path d="M201.318 67.7871H202.453V71.1914H201.318V67.7871ZM204.723 67.7871H205.857V71.1914H204.723V67.7871Z" fill="#0A81BE"/>
<path d="M210.5 79.1347C210.692 79.039 210.879 78.8858 211.061 78.6751C211.247 78.4644 211.424 78.213 211.592 77.921C211.76 77.6241 211.915 77.2961 212.059 76.937C212.202 76.5779 212.327 76.2045 212.432 75.8166C212.538 75.4288 212.619 75.0338 212.677 74.6316C212.739 74.2294 212.77 73.8392 212.77 73.4609C212.77 73.0827 212.739 72.6924 212.677 72.2903C212.619 71.8881 212.538 71.493 212.432 71.1052C212.327 70.7174 212.202 70.3439 212.059 69.9848C211.915 69.6257 211.76 69.3001 211.592 69.0081C211.424 68.7112 211.247 68.4574 211.061 68.2468C210.879 68.0361 210.692 67.8829 210.5 67.7871V66.6523C210.783 66.6523 211.063 66.7553 211.341 66.9612C211.623 67.1671 211.889 67.4424 212.138 67.7871C212.392 68.1318 212.626 68.534 212.842 68.9937C213.057 69.4486 213.244 69.9297 213.402 70.4373C213.56 70.94 213.682 71.4523 213.768 71.9742C213.859 72.4914 213.905 72.9869 213.905 73.4609C213.905 73.9349 213.859 74.4329 213.768 74.9548C213.682 75.4719 213.56 75.9842 213.402 76.4917C213.244 76.9945 213.057 77.4757 212.842 77.9353C212.626 78.3902 212.392 78.79 212.138 79.1347C211.889 79.4795 211.623 79.7548 211.341 79.9607C211.063 80.1666 210.783 80.2695 210.5 80.2695V79.1347Z" fill="#0A81BE"/>
<path d="M218.548 72.3262C218.548 72.1682 218.576 72.0221 218.634 71.8881C218.696 71.7492 218.778 71.6295 218.878 71.529C218.983 71.4236 219.103 71.3422 219.237 71.2848C219.376 71.2225 219.524 71.1914 219.682 71.1914C219.84 71.1914 219.986 71.2225 220.121 71.2848C220.259 71.3422 220.379 71.4236 220.48 71.529C220.585 71.6295 220.666 71.7492 220.724 71.8881C220.786 72.0221 220.817 72.1682 220.817 72.3262C220.817 72.4842 220.786 72.6326 220.724 72.7714C220.666 72.9055 220.585 73.0252 220.48 73.1305C220.379 73.2311 220.259 73.3125 220.121 73.3747C219.986 73.4322 219.84 73.4609 219.682 73.4609C219.524 73.4609 219.376 73.4322 219.237 73.3747C219.103 73.3125 218.983 73.2311 218.878 73.1305C218.778 73.0252 218.696 72.9055 218.634 72.7714C218.576 72.6326 218.548 72.4842 218.548 72.3262ZM219.115 80.2695C218.957 80.2695 218.823 80.2144 218.713 80.1043C218.603 79.9942 218.548 79.8601 218.548 79.7021C218.548 79.5441 218.603 79.4101 218.713 79.2999C218.823 79.1898 218.957 79.1347 219.115 79.1347C219.259 79.1347 219.369 79.1084 219.445 79.0557C219.522 79.0079 219.577 78.936 219.611 78.8403C219.649 78.7445 219.67 78.6248 219.675 78.4812C219.68 78.3423 219.682 78.1819 219.682 78C219.524 78 219.376 77.9713 219.237 77.9138C219.103 77.8516 218.983 77.7702 218.878 77.6696C218.778 77.5643 218.696 77.4446 218.634 77.3105C218.576 77.1716 218.548 77.0232 218.548 76.8652C218.548 76.7072 218.576 76.5612 218.634 76.4271C218.696 76.2883 218.778 76.1686 218.878 76.068C218.983 75.9627 219.103 75.8813 219.237 75.8238C219.376 75.7616 219.524 75.7305 219.682 75.7305C219.84 75.7305 219.986 75.7616 220.121 75.8238C220.259 75.8813 220.379 75.9627 220.48 76.068C220.585 76.1686 220.666 76.2883 220.724 76.4271C220.786 76.5612 220.817 76.7072 220.817 76.8652V78C220.817 78.2825 220.781 78.5602 220.709 78.8331C220.638 79.106 220.53 79.3478 220.386 79.5585C220.247 79.7739 220.07 79.9463 219.855 80.0756C219.644 80.2049 219.398 80.2695 219.115 80.2695Z" fill="#0A81BE"/>
</g>
</svg>
