<svg width="200" height="201" viewBox="0 0 200 201" fill="none" xmlns="http://www.w3.org/2000/svg">
<g clip-path="url(#clip0_1383_3761)">
<path fill-rule="evenodd" clip-rule="evenodd" d="M100.908 124.849C110.152 118.998 123.575 108.225 134.605 94.3433C145.441 80.706 153.89 64.1699 153.931 46.4205C136.174 46.3843 119.596 54.7642 105.907 65.5452C91.973 76.5191 81.1379 89.8999 75.2451 99.1224C74.6873 99.9955 73.737 100.508 72.7084 100.508H54.0077C53.7006 100.508 53.4106 100.649 53.221 100.891L44.3376 112.21C43.8882 112.782 44.1816 113.628 44.889 113.799L57.2851 116.8C58.9592 117.205 59.9489 118.934 59.4512 120.583L57.4025 127.369C57.3132 127.665 57.3656 127.985 57.5447 128.237L63.2253 136.231L71.7288 142.411C71.9806 142.594 72.3032 142.649 72.6016 142.561L79.3858 140.545C81.0368 140.054 82.7611 141.051 83.1591 142.727L86.1051 155.13C86.2733 155.838 87.1175 156.135 87.692 155.688L99.044 146.858C99.2864 146.669 99.4287 146.38 99.43 146.073L99.5109 127.379C99.5153 126.351 100.032 125.403 100.908 124.849ZM61.3594 137.058L55.9144 129.396C55.3774 128.64 55.2199 127.679 55.4878 126.791L57.5365 120.005C57.7024 119.455 57.3725 118.879 56.8145 118.744L44.4184 115.743C42.2961 115.229 41.4162 112.692 42.7643 110.975L51.6477 99.656C52.2164 98.9314 53.0865 98.5082 54.0077 98.5082H72.7084C73.062 98.5082 73.3735 98.3372 73.5598 98.0456C79.5544 88.6636 90.5343 75.1064 104.669 63.974C118.756 52.8797 136.081 44.1134 154.794 44.4286C154.832 44.4237 154.87 44.4209 154.909 44.4203C155.199 44.4158 155.463 44.5359 155.649 44.7312C155.83 44.9163 155.94 45.1713 155.935 45.4509C155.934 45.4889 155.931 45.5265 155.926 45.5633C156.161 64.2719 147.323 81.5532 136.171 95.5875C124.982 109.669 111.382 120.587 101.977 126.539C101.685 126.724 101.512 127.035 101.511 127.388L101.43 146.081C101.426 147.003 100.999 147.871 100.272 148.436L88.92 157.267C87.1965 158.608 84.6638 157.717 84.1592 155.592L81.2133 143.189C81.0806 142.631 80.5058 142.298 79.9555 142.462L73.1713 144.478C72.2762 144.744 71.3083 144.578 70.5529 144.029L61.7419 137.625C61.5438 137.481 61.4142 137.278 61.3594 137.058Z" fill="url(#paint0_linear_1383_3761)"/>
<path d="M53.5739 153.914L49.0215 155.006L48.9049 154.52L46.6287 155.066C45.5329 155.329 44.5493 154.335 44.8239 153.242L45.3952 150.968L44.9103 150.847L46.0528 146.299L46.5377 146.421L47.6802 141.873L47.1953 141.751L48.3378 137.204L48.8227 137.326L49.394 135.052C49.4847 134.691 49.6701 134.425 49.8992 134.242L49.587 133.852C50.2739 133.303 51.2886 133.271 52.0089 133.775L51.7221 134.184C51.9624 134.353 52.1642 134.606 52.2775 134.96L52.956 137.082L53.4322 136.93L54.7891 141.173L54.3128 141.326L54.9913 143.447C55.2352 144.21 55.83 144.81 56.5909 145.061L58.6825 145.749L58.8388 145.274L63.022 146.651L62.8657 147.126L64.9573 147.814C65.3111 147.93 65.5628 148.135 65.729 148.377L66.1411 148.093C66.6394 148.819 66.5975 149.834 66.0412 150.516L65.6538 150.2C65.4682 150.428 65.2006 150.61 64.8383 150.697L62.5621 151.243L62.6788 151.73L58.1263 152.822L58.0097 152.336L53.4573 153.428L53.5739 153.914Z" stroke="url(#paint1_linear_1383_3761)" stroke-dasharray="5 5"/>
<circle cx="120.072" cy="81.1321" r="9.71094" stroke="url(#paint2_linear_1383_3761)" stroke-width="2" stroke-dasharray="5 5"/>
<g filter="url(#filter0_dddddd_1383_3761)">
<circle cx="50.8936" cy="116.212" r="3" fill="#2DE3E3" fill-opacity="0.8"/>
</g>
<g filter="url(#filter1_dddddd_1383_3761)">
<circle cx="83.7148" cy="148.912" r="3" fill="#2DE3E3" fill-opacity="0.8"/>
</g>
</g>
<defs>
<filter id="filter0_dddddd_1383_3761" x="-28.7575" y="36.5614" width="159.302" height="159.302" filterUnits="userSpaceOnUse" color-interpolation-filters="sRGB">
<feFlood flood-opacity="0" result="BackgroundImageFix"/>
<feColorMatrix in="SourceAlpha" type="matrix" values="0 0 0 0 0 0 0 0 0 0 0 0 0 0 0 0 0 0 127 0" result="hardAlpha"/>
<feOffset/>
<feGaussianBlur stdDeviation="0.912512"/>
<feColorMatrix type="matrix" values="0 0 0 0 0.176471 0 0 0 0 0.890196 0 0 0 0 0.890196 0 0 0 1 0"/>
<feBlend mode="normal" in2="BackgroundImageFix" result="effect1_dropShadow_1383_3761"/>
<feColorMatrix in="SourceAlpha" type="matrix" values="0 0 0 0 0 0 0 0 0 0 0 0 0 0 0 0 0 0 127 0" result="hardAlpha"/>
<feOffset/>
<feGaussianBlur stdDeviation="1.82502"/>
<feColorMatrix type="matrix" values="0 0 0 0 0.176471 0 0 0 0 0.890196 0 0 0 0 0.890196 0 0 0 1 0"/>
<feBlend mode="normal" in2="effect1_dropShadow_1383_3761" result="effect2_dropShadow_1383_3761"/>
<feColorMatrix in="SourceAlpha" type="matrix" values="0 0 0 0 0 0 0 0 0 0 0 0 0 0 0 0 0 0 127 0" result="hardAlpha"/>
<feOffset/>
<feGaussianBlur stdDeviation="6.38759"/>
<feColorMatrix type="matrix" values="0 0 0 0 0.176471 0 0 0 0 0.890196 0 0 0 0 0.890196 0 0 0 1 0"/>
<feBlend mode="normal" in2="effect2_dropShadow_1383_3761" result="effect3_dropShadow_1383_3761"/>
<feColorMatrix in="SourceAlpha" type="matrix" values="0 0 0 0 0 0 0 0 0 0 0 0 0 0 0 0 0 0 127 0" result="hardAlpha"/>
<feOffset/>
<feGaussianBlur stdDeviation="12.7752"/>
<feColorMatrix type="matrix" values="0 0 0 0 0.176471 0 0 0 0 0.890196 0 0 0 0 0.890196 0 0 0 1 0"/>
<feBlend mode="normal" in2="effect3_dropShadow_1383_3761" result="effect4_dropShadow_1383_3761"/>
<feColorMatrix in="SourceAlpha" type="matrix" values="0 0 0 0 0 0 0 0 0 0 0 0 0 0 0 0 0 0 127 0" result="hardAlpha"/>
<feOffset/>
<feGaussianBlur stdDeviation="21.9003"/>
<feColorMatrix type="matrix" values="0 0 0 0 0.176471 0 0 0 0 0.890196 0 0 0 0 0.890196 0 0 0 1 0"/>
<feBlend mode="normal" in2="effect4_dropShadow_1383_3761" result="effect5_dropShadow_1383_3761"/>
<feColorMatrix in="SourceAlpha" type="matrix" values="0 0 0 0 0 0 0 0 0 0 0 0 0 0 0 0 0 0 127 0" result="hardAlpha"/>
<feOffset/>
<feGaussianBlur stdDeviation="38.3255"/>
<feColorMatrix type="matrix" values="0 0 0 0 0.176471 0 0 0 0 0.890196 0 0 0 0 0.890196 0 0 0 1 0"/>
<feBlend mode="normal" in2="effect5_dropShadow_1383_3761" result="effect6_dropShadow_1383_3761"/>
<feBlend mode="normal" in="SourceGraphic" in2="effect6_dropShadow_1383_3761" result="shape"/>
</filter>
<filter id="filter1_dddddd_1383_3761" x="4.06383" y="69.2606" width="159.302" height="159.302" filterUnits="userSpaceOnUse" color-interpolation-filters="sRGB">
<feFlood flood-opacity="0" result="BackgroundImageFix"/>
<feColorMatrix in="SourceAlpha" type="matrix" values="0 0 0 0 0 0 0 0 0 0 0 0 0 0 0 0 0 0 127 0" result="hardAlpha"/>
<feOffset/>
<feGaussianBlur stdDeviation="0.912512"/>
<feColorMatrix type="matrix" values="0 0 0 0 0.176471 0 0 0 0 0.890196 0 0 0 0 0.890196 0 0 0 1 0"/>
<feBlend mode="normal" in2="BackgroundImageFix" result="effect1_dropShadow_1383_3761"/>
<feColorMatrix in="SourceAlpha" type="matrix" values="0 0 0 0 0 0 0 0 0 0 0 0 0 0 0 0 0 0 127 0" result="hardAlpha"/>
<feOffset/>
<feGaussianBlur stdDeviation="1.82502"/>
<feColorMatrix type="matrix" values="0 0 0 0 0.176471 0 0 0 0 0.890196 0 0 0 0 0.890196 0 0 0 1 0"/>
<feBlend mode="normal" in2="effect1_dropShadow_1383_3761" result="effect2_dropShadow_1383_3761"/>
<feColorMatrix in="SourceAlpha" type="matrix" values="0 0 0 0 0 0 0 0 0 0 0 0 0 0 0 0 0 0 127 0" result="hardAlpha"/>
<feOffset/>
<feGaussianBlur stdDeviation="6.38759"/>
<feColorMatrix type="matrix" values="0 0 0 0 0.176471 0 0 0 0 0.890196 0 0 0 0 0.890196 0 0 0 1 0"/>
<feBlend mode="normal" in2="effect2_dropShadow_1383_3761" result="effect3_dropShadow_1383_3761"/>
<feColorMatrix in="SourceAlpha" type="matrix" values="0 0 0 0 0 0 0 0 0 0 0 0 0 0 0 0 0 0 127 0" result="hardAlpha"/>
<feOffset/>
<feGaussianBlur stdDeviation="12.7752"/>
<feColorMatrix type="matrix" values="0 0 0 0 0.176471 0 0 0 0 0.890196 0 0 0 0 0.890196 0 0 0 1 0"/>
<feBlend mode="normal" in2="effect3_dropShadow_1383_3761" result="effect4_dropShadow_1383_3761"/>
<feColorMatrix in="SourceAlpha" type="matrix" values="0 0 0 0 0 0 0 0 0 0 0 0 0 0 0 0 0 0 127 0" result="hardAlpha"/>
<feOffset/>
<feGaussianBlur stdDeviation="21.9003"/>
<feColorMatrix type="matrix" values="0 0 0 0 0.176471 0 0 0 0 0.890196 0 0 0 0 0.890196 0 0 0 1 0"/>
<feBlend mode="normal" in2="effect4_dropShadow_1383_3761" result="effect5_dropShadow_1383_3761"/>
<feColorMatrix in="SourceAlpha" type="matrix" values="0 0 0 0 0 0 0 0 0 0 0 0 0 0 0 0 0 0 127 0" result="hardAlpha"/>
<feOffset/>
<feGaussianBlur stdDeviation="38.3255"/>
<feColorMatrix type="matrix" values="0 0 0 0 0.176471 0 0 0 0 0.890196 0 0 0 0 0.890196 0 0 0 1 0"/>
<feBlend mode="normal" in2="effect5_dropShadow_1383_3761" result="effect6_dropShadow_1383_3761"/>
<feBlend mode="normal" in="SourceGraphic" in2="effect6_dropShadow_1383_3761" result="shape"/>
</filter>
<linearGradient id="paint0_linear_1383_3761" x1="22.5954" y1="44.4202" x2="168.465" y2="42.6091" gradientUnits="userSpaceOnUse">
<stop stop-color="#2DE3E3"/>
<stop offset="1" stop-color="#0A81BE"/>
</linearGradient>
<linearGradient id="paint1_linear_1383_3761" x1="57.7617" y1="170.703" x2="30.1999" y2="143.669" gradientUnits="userSpaceOnUse">
<stop stop-color="#2DE3E3"/>
<stop offset="1" stop-color="#0A81BE"/>
</linearGradient>
<linearGradient id="paint2_linear_1383_3761" x1="105.686" y1="70.4211" x2="133.142" y2="70.0813" gradientUnits="userSpaceOnUse">
<stop stop-color="#2DE3E3"/>
<stop offset="1" stop-color="#0A81BE"/>
</linearGradient>
<clipPath id="clip0_1383_3761">
<rect width="200" height="200" fill="white" transform="translate(0 0.5)"/>
</clipPath>
</defs>
</svg>
