<svg width="734" height="200" viewBox="0 0 734 200" fill="none" xmlns="http://www.w3.org/2000/svg">
<g opacity="0.4" clip-path="url(#clip0_1516_1363)">
<g opacity="0.5">
<path d="M-4.99066 182.042L-13 180.356V237.67H708.842V16L703.836 18.5286L694.825 37.9142L689.819 41.2856L680.809 39.5999L670.797 31.1713L664.79 32.0142L655.78 50.5569L649.773 62.3569H641.763L633.754 51.3998L628.385 50.5569H622.741L611.728 77.5282L608.725 79.2139L603.719 80.8996L598.713 74.9997L590.704 39.5999L585.698 35.3856L580.692 37.0713L570.681 65.7283L564.674 69.0997L553.661 64.0426L547.654 59.8283H539.644L531.635 75.8425L526.629 81.7425L516.617 83.4282L508.608 91.8567L503.602 93.5424L498.597 91.8567L487.584 69.9426L478.573 68.2568L467.56 91.0139L463.556 94.3853L457.549 93.5424L445.535 79.2139L436.524 78.3711L429.516 69.0997L424.51 62.3569L419.504 60.6712L415.5 63.1997L405.488 95.2281L402.484 100.285L398.48 101.128L393.474 92.6996L383.462 48.0284L380.459 44.657H378.456L373.451 47.1855L365.441 72.4711L361.437 77.5282L353.427 79.2139L343.416 96.071L340.412 98.5995H335.406L329.399 95.2281L323.392 87.6424L318.386 85.9567L310.377 90.171L305.371 104.499L300.365 109.557L295.36 111.242L286.349 107.028L279.341 101.971L272.333 101.128L269.329 98.5995L261.32 89.3282L256.314 86.7996L251.308 89.3282L243.299 125.571L237.292 139.056H231.285L222.274 129.785L217.268 128.099L209.259 127.257L202.251 139.899L195.243 146.642L191.238 147.485L183.229 137.371L174.218 133.156L168.211 134.842L156.197 172.771L151.191 174.456L143.182 167.713L132.169 160.971H127.163L121.156 155.071L112.146 152.542L106.139 155.071L98.1296 176.142L90.1202 180.356L85.1144 182.042L78.1062 184.57L67.0934 186.256L61.0864 182.042L54.0782 172.771L45.0677 171.085L37.0584 166.028L30.0502 162.656L26.0455 163.499L22.0409 170.242L14.0315 186.256L9.02568 189.628L3.01868 188.785L-4.99066 182.042Z" fill="url(#paint0_linear_1516_1363)"/>
<path d="M708.84 16C698.528 16 698.528 41.7799 688.216 41.7799C677.904 41.7799 678.333 30.9615 667.592 30.9615C656.85 30.9615 657.709 62.726 646.968 62.726C636.226 62.726 637.945 49.9742 626.344 49.9742C614.743 49.9742 617.75 80.956 605.72 80.956C593.689 80.956 595.408 35.3349 585.096 35.3349C574.784 35.3349 575.643 68.6185 564.472 68.6185C553.3 68.6185 555.019 59.5035 543.847 59.5035C532.676 59.5035 534.395 82.2911 523.223 82.2911C512.052 82.2911 513.341 93.3396 502.599 93.3396C491.858 93.3396 492.717 68.4804 481.975 68.4804C471.234 68.4804 472.523 94.6286 461.351 94.6286C450.18 94.6286 452.758 78.8384 440.727 78.8384C428.697 78.8384 430.845 61.2529 420.103 61.2529C409.361 61.2529 410.65 101.396 399.479 101.396C388.308 101.396 390.026 44.0816 378.855 44.0816C367.684 44.0816 368.973 78.332 358.231 78.332C347.489 78.332 349.638 98.8178 337.607 98.8178C325.576 98.8178 328.584 86.3882 316.983 86.3882C305.382 86.3882 308.39 111.708 296.359 111.708C284.328 111.708 287.336 101.948 275.735 101.948C264.134 101.948 266.282 87.1708 255.111 87.1708C243.939 87.1708 245.658 140.25 234.487 140.25C223.315 140.25 225.893 127.268 213.863 127.268C201.832 127.268 203.551 147.569 193.239 147.569C182.927 147.569 184.216 133.068 172.615 133.068C161.014 133.068 162.732 174.96 151.991 174.96C141.249 174.96 143.397 162.347 131.367 162.347C119.336 162.347 122.344 153.186 110.742 153.186C99.1415 153.186 101.29 181.267 90.1184 181.267C78.947 181.267 81.5251 187.16 69.4944 187.16C57.4637 187.16 60.901 171.646 48.8703 171.646C36.8396 171.646 38.5582 163.36 28.2462 163.36C17.9342 163.36 17.9342 190.29 7.62219 190.29C-2.68983 190.29 -1.83047 180.807 -13.0018 180.807" stroke="#0A81BE" stroke-width="2"/>
</g>
</g>
<defs>
<linearGradient id="paint0_linear_1516_1363" x1="347.921" y1="16" x2="347.921" y2="237.67" gradientUnits="userSpaceOnUse">
<stop stop-color="#00D4FF" stop-opacity="0.12"/>
<stop offset="1" stop-color="white" stop-opacity="0"/>
</linearGradient>
<clipPath id="clip0_1516_1363">
<rect width="734" height="200" fill="white"/>
</clipPath>
</defs>
</svg>
