<svg width="160" height="58" viewBox="0 0 160 58" fill="none" xmlns="http://www.w3.org/2000/svg">
<rect width="159.604" height="57.2572" rx="14.3143" fill="#0A81BE"/>
<path d="M27.9084 28.0919H29.745C30.0154 28.0919 30.2345 28.3323 30.2345 28.6287C30.2345 28.9252 30.0154 29.1655 29.745 29.1655H27.9084V31.0021C27.9084 31.2724 27.6681 31.4916 27.3716 31.4916C27.0752 31.4916 26.8349 31.2724 26.8349 31.0021V29.1655H24.9983C24.7279 29.1655 24.5088 28.9252 24.5088 28.6287C24.5088 28.3323 24.7279 28.0919 24.9983 28.0919H26.8349V26.2554C26.8349 25.985 27.0752 25.7659 27.3716 25.7659C27.6681 25.7659 27.9084 25.985 27.9084 26.2554V28.0919Z" fill="#E4F2FF"/>
<path d="M42.8972 27.2112H41.787C41.7443 26.974 41.6649 26.7652 41.5486 26.5849C41.4324 26.4046 41.2901 26.2516 41.1216 26.1259C40.9532 26.0002 40.7646 25.9053 40.5559 25.8412C40.3495 25.7772 40.1301 25.7452 39.8976 25.7452C39.4777 25.7452 39.1017 25.8507 38.7696 26.0619C38.4399 26.273 38.179 26.5825 37.9868 26.9906C37.797 27.3986 37.7022 27.8967 37.7022 28.485C37.7022 29.0781 37.797 29.5786 37.9868 29.9866C38.179 30.3946 38.4411 30.703 38.7732 30.9117C39.1053 31.1205 39.4789 31.2249 39.894 31.2249C40.1241 31.2249 40.3424 31.194 40.5488 31.1324C40.7575 31.0683 40.9461 30.9746 41.1145 30.8513C41.2829 30.7279 41.4253 30.5773 41.5415 30.3994C41.6601 30.2191 41.742 30.0127 41.787 29.7802L42.8972 29.7838C42.8379 30.142 42.7228 30.4717 42.552 30.773C42.3836 31.0719 42.1666 31.3304 41.9009 31.5487C41.6376 31.7645 41.3363 31.9318 40.9971 32.0504C40.6579 32.169 40.2878 32.2283 39.8869 32.2283C39.2559 32.2283 38.6937 32.0788 38.2003 31.78C37.7069 31.4787 37.3179 31.0481 37.0332 30.4883C36.7509 29.9285 36.6098 29.2607 36.6098 28.485C36.6098 27.707 36.7521 27.0392 37.0368 26.4817C37.3214 25.9219 37.7105 25.4925 38.2039 25.1936C38.6973 24.8924 39.2583 24.7417 39.8869 24.7417C40.2736 24.7417 40.6342 24.7975 40.9686 24.909C41.3055 25.0181 41.6079 25.1794 41.876 25.3929C42.144 25.604 42.3658 25.8626 42.5414 26.1686C42.7169 26.4722 42.8355 26.8198 42.8972 27.2112ZM44.2277 32.1287V26.6632H45.256V27.5314H45.3129C45.4126 27.2373 45.5881 27.006 45.8395 26.8376C46.0934 26.6668 46.3804 26.5814 46.7006 26.5814C46.7671 26.5814 46.8453 26.5837 46.9355 26.5885C47.028 26.5932 47.1003 26.5992 47.1525 26.6063V27.6239C47.1098 27.6121 47.0339 27.599 46.9248 27.5848C46.8157 27.5682 46.7066 27.5599 46.5974 27.5599C46.346 27.5599 46.1218 27.6133 45.9249 27.72C45.7304 27.8244 45.5762 27.9703 45.4624 28.1577C45.3485 28.3427 45.2916 28.5538 45.2916 28.791V32.1287H44.2277ZM50.3333 32.239C49.7948 32.239 49.331 32.1239 48.942 31.8938C48.5553 31.6613 48.2565 31.3352 48.0453 30.9153C47.8366 30.4931 47.7322 29.9985 47.7322 29.4315C47.7322 28.8717 47.8366 28.3783 48.0453 27.9513C48.2565 27.5243 48.5506 27.191 48.9278 26.9514C49.3073 26.7118 49.7509 26.592 50.2586 26.592C50.5669 26.592 50.8658 26.643 51.1552 26.745C51.4446 26.847 51.7044 27.0072 51.9345 27.2254C52.1646 27.4436 52.3461 27.7271 52.4789 28.0758C52.6117 28.4222 52.6782 28.8432 52.6782 29.339V29.7162H48.3335V28.9191H51.6356C51.6356 28.6392 51.5787 28.3913 51.4648 28.1755C51.3509 27.9572 51.1908 27.7852 50.9844 27.6595C50.7804 27.5338 50.5408 27.4709 50.2657 27.4709C49.9668 27.4709 49.7058 27.5445 49.4829 27.6915C49.2622 27.8362 49.0915 28.026 48.9705 28.2609C48.8519 28.4933 48.7926 28.746 48.7926 29.0188V29.6415C48.7926 30.0068 48.8566 30.3175 48.9847 30.5737C49.1152 30.8299 49.2966 31.0256 49.5291 31.1608C49.7616 31.2937 50.0332 31.3601 50.344 31.3601C50.5456 31.3601 50.7294 31.3316 50.8955 31.2747C51.0615 31.2154 51.2051 31.1276 51.326 31.0114C51.447 30.8951 51.5395 30.7516 51.6036 30.5808L52.6106 30.7623C52.5299 31.0588 52.3852 31.3186 52.1765 31.5416C51.9701 31.7622 51.7103 31.9341 51.3972 32.0575C51.0864 32.1785 50.7318 32.239 50.3333 32.239ZM55.5493 32.2496C55.203 32.2496 54.8899 32.1856 54.61 32.0575C54.3301 31.927 54.1083 31.7384 53.9446 31.4917C53.7833 31.245 53.7026 30.9426 53.7026 30.5844C53.7026 30.276 53.7619 30.0222 53.8805 29.8229C53.9991 29.6237 54.1593 29.4659 54.3609 29.3497C54.5625 29.2334 54.7879 29.1457 55.037 29.0864C55.286 29.0271 55.5399 28.982 55.7984 28.9512C56.1258 28.9132 56.3915 28.8824 56.5955 28.8586C56.7995 28.8325 56.9477 28.791 57.0402 28.7341C57.1328 28.6772 57.179 28.5847 57.179 28.4566V28.4316C57.179 28.1209 57.0912 27.8801 56.9157 27.7093C56.7425 27.5385 56.484 27.4531 56.14 27.4531C55.7818 27.4531 55.4995 27.5326 55.2932 27.6915C55.0891 27.8481 54.948 28.0224 54.8697 28.2146L53.8699 27.9869C53.9885 27.6548 54.1616 27.3867 54.3894 27.1827C54.6195 26.9763 54.884 26.8269 55.1828 26.7344C55.4817 26.6395 55.796 26.592 56.1258 26.592C56.344 26.592 56.5753 26.6181 56.8196 26.6703C57.0663 26.7201 57.2964 26.8126 57.5099 26.9479C57.7258 27.0831 57.9025 27.2764 58.0401 27.5279C58.1777 27.7769 58.2465 28.1007 58.2465 28.4993V32.1287H57.2075V31.3814H57.1648C57.096 31.519 56.9928 31.6542 56.8552 31.7871C56.7176 31.9199 56.5409 32.0302 56.325 32.118C56.1092 32.2058 55.8506 32.2496 55.5493 32.2496ZM55.7806 31.3957C56.0748 31.3957 56.3262 31.3375 56.535 31.2213C56.7461 31.1051 56.9062 30.9533 57.0153 30.7659C57.1268 30.5761 57.1826 30.3733 57.1826 30.1574V29.4529C57.1446 29.4908 57.0711 29.5264 56.962 29.5596C56.8552 29.5904 56.7331 29.6177 56.5955 29.6415C56.4579 29.6628 56.3239 29.683 56.1934 29.7019C56.0629 29.7185 55.9538 29.7328 55.866 29.7446C55.6596 29.7707 55.4711 29.8146 55.3003 29.8763C55.1318 29.938 54.9966 30.0269 54.8946 30.1432C54.795 30.257 54.7452 30.4088 54.7452 30.5986C54.7452 30.8619 54.8424 31.0612 55.037 31.1964C55.2315 31.3292 55.4794 31.3957 55.7806 31.3957ZM62.315 26.6632V27.5172H59.3297V26.6632H62.315ZM60.1303 25.3538H61.1942V30.5239C61.1942 30.7303 61.225 30.8856 61.2867 30.99C61.3484 31.092 61.4278 31.162 61.5251 31.2C61.6247 31.2355 61.7327 31.2533 61.8489 31.2533C61.9343 31.2533 62.009 31.2474 62.0731 31.2355C62.1371 31.2237 62.1869 31.2142 62.2225 31.2071L62.4147 32.086C62.353 32.1097 62.2652 32.1334 62.1513 32.1571C62.0375 32.1832 61.8951 32.1975 61.7244 32.1998C61.4444 32.2046 61.1835 32.1548 60.9415 32.0504C60.6996 31.946 60.5039 31.7847 60.3544 31.5665C60.205 31.3482 60.1303 31.0742 60.1303 30.7445V25.3538ZM65.889 32.239C65.3505 32.239 64.8867 32.1239 64.4977 31.8938C64.111 31.6613 63.8121 31.3352 63.601 30.9153C63.3923 30.4931 63.2879 29.9985 63.2879 29.4315C63.2879 28.8717 63.3923 28.3783 63.601 27.9513C63.8121 27.5243 64.1063 27.191 64.4835 26.9514C64.863 26.7118 65.3066 26.592 65.8142 26.592C66.1226 26.592 66.4215 26.643 66.7109 26.745C67.0003 26.847 67.2601 27.0072 67.4902 27.2254C67.7203 27.4436 67.9017 27.7271 68.0346 28.0758C68.1674 28.4222 68.2338 28.8432 68.2338 29.339V29.7162H63.8892V28.9191H67.1913C67.1913 28.6392 67.1343 28.3913 67.0205 28.1755C66.9066 27.9572 66.7465 27.7852 66.5401 27.6595C66.3361 27.5338 66.0965 27.4709 65.8214 27.4709C65.5225 27.4709 65.2615 27.5445 65.0385 27.6915C64.8179 27.8362 64.6471 28.026 64.5262 28.2609C64.4075 28.4933 64.3482 28.746 64.3482 29.0188V29.6415C64.3482 30.0068 64.4123 30.3175 64.5404 30.5737C64.6709 30.8299 64.8523 31.0256 65.0848 31.1608C65.3173 31.2937 65.5889 31.3601 65.8996 31.3601C66.1013 31.3601 66.2851 31.3316 66.4512 31.2747C66.6172 31.2154 66.7607 31.1276 66.8817 31.0114C67.0027 30.8951 67.0952 30.7516 67.1592 30.5808L68.1662 30.7623C68.0856 31.0588 67.9409 31.3186 67.7321 31.5416C67.5257 31.7622 67.266 31.9341 66.9529 32.0575C66.6421 32.1785 66.2875 32.239 65.889 32.239ZM73.3304 28.8835V32.1287H72.2665V26.6632H73.2877V27.5528H73.3553C73.481 27.2634 73.6779 27.0309 73.946 26.8553C74.2164 26.6798 74.5568 26.592 74.9672 26.592C75.3396 26.592 75.6658 26.6703 75.9457 26.8269C76.2256 26.9811 76.4427 27.2112 76.5969 27.5172C76.751 27.8232 76.8281 28.2015 76.8281 28.6523V32.1287H75.7642V28.7804C75.7642 28.3842 75.661 28.0746 75.4547 27.8517C75.2483 27.6263 74.9648 27.5136 74.6042 27.5136C74.3575 27.5136 74.1381 27.567 73.946 27.6737C73.7562 27.7805 73.6056 27.9371 73.4941 28.1434C73.3849 28.3474 73.3304 28.5941 73.3304 28.8835ZM80.7107 32.239C80.1723 32.239 79.7085 32.1239 79.3195 31.8938C78.9328 31.6613 78.6339 31.3352 78.4228 30.9153C78.214 30.4931 78.1097 29.9985 78.1097 29.4315C78.1097 28.8717 78.214 28.3783 78.4228 27.9513C78.6339 27.5243 78.9281 27.191 79.3052 26.9514C79.6848 26.7118 80.1284 26.592 80.636 26.592C80.9444 26.592 81.2433 26.643 81.5327 26.745C81.8221 26.847 82.0819 27.0072 82.312 27.2254C82.5421 27.4436 82.7235 27.7271 82.8564 28.0758C82.9892 28.4222 83.0556 28.8432 83.0556 29.339V29.7162H78.711V28.9191H82.0131C82.0131 28.6392 81.9561 28.3913 81.8423 28.1755C81.7284 27.9572 81.5683 27.7852 81.3619 27.6595C81.1579 27.5338 80.9183 27.4709 80.6431 27.4709C80.3442 27.4709 80.0833 27.5445 79.8603 27.6915C79.6397 27.8362 79.4689 28.026 79.3479 28.2609C79.2293 28.4933 79.17 28.746 79.17 29.0188V29.6415C79.17 30.0068 79.2341 30.3175 79.3622 30.5737C79.4926 30.8299 79.6741 31.0256 79.9066 31.1608C80.1391 31.2937 80.4107 31.3601 80.7214 31.3601C80.9231 31.3601 81.1069 31.3316 81.273 31.2747C81.439 31.2154 81.5825 31.1276 81.7035 31.0114C81.8245 30.8951 81.917 30.7516 81.981 30.5808L82.988 30.7623C82.9074 31.0588 82.7627 31.3186 82.5539 31.5416C82.3475 31.7622 82.0878 31.9341 81.7747 32.0575C81.4639 32.1785 81.1093 32.239 80.7107 32.239ZM85.5114 32.1287L83.9031 26.6632H85.0026L86.0736 30.6769H86.127L87.2016 26.6632H88.3011L89.3685 30.6591H89.4219L90.4858 26.6632H91.5853L89.9805 32.1287H88.8953L87.7851 28.1826H87.7033L86.5931 32.1287H85.5114ZM97.9984 26.6632V27.5172H95.013V26.6632H97.9984ZM95.8136 25.3538H96.8776V30.5239C96.8776 30.7303 96.9084 30.8856 96.9701 30.99C97.0317 31.092 97.1112 31.162 97.2085 31.2C97.3081 31.2355 97.416 31.2533 97.5323 31.2533C97.6177 31.2533 97.6924 31.2474 97.7564 31.2355C97.8205 31.2237 97.8703 31.2142 97.9059 31.2071L98.098 32.086C98.0364 32.1097 97.9486 32.1334 97.8347 32.1571C97.7209 32.1832 97.5785 32.1975 97.4077 32.1998C97.1278 32.2046 96.8669 32.1548 96.6249 32.0504C96.383 31.946 96.1873 31.7847 96.0378 31.5665C95.8884 31.3482 95.8136 31.0742 95.8136 30.7445V25.3538ZM101.572 32.239C101.034 32.239 100.57 32.1239 100.181 31.8938C99.7944 31.6613 99.4955 31.3352 99.2844 30.9153C99.0756 30.4931 98.9713 29.9985 98.9713 29.4315C98.9713 28.8717 99.0756 28.3783 99.2844 27.9513C99.4955 27.5243 99.7897 27.191 100.167 26.9514C100.546 26.7118 100.99 26.592 101.498 26.592C101.806 26.592 102.105 26.643 102.394 26.745C102.684 26.847 102.943 27.0072 103.174 27.2254C103.404 27.4436 103.585 27.7271 103.718 28.0758C103.851 28.4222 103.917 28.8432 103.917 29.339V29.7162H99.5726V28.9191H102.875C102.875 28.6392 102.818 28.3913 102.704 28.1755C102.59 27.9572 102.43 27.7852 102.223 27.6595C102.019 27.5338 101.78 27.4709 101.505 27.4709C101.206 27.4709 100.945 27.5445 100.722 27.6915C100.501 27.8362 100.331 28.026 100.21 28.2609C100.091 28.4933 100.032 28.746 100.032 29.0188V29.6415C100.032 30.0068 100.096 30.3175 100.224 30.5737C100.354 30.8299 100.536 31.0256 100.768 31.1608C101.001 31.2937 101.272 31.3601 101.583 31.3601C101.785 31.3601 101.968 31.3316 102.135 31.2747C102.301 31.2154 102.444 31.1276 102.565 31.0114C102.686 30.8951 102.779 30.7516 102.843 30.5808L103.85 30.7623C103.769 31.0588 103.624 31.3186 103.416 31.5416C103.209 31.7622 102.949 31.9341 102.636 32.0575C102.325 32.1785 101.971 32.239 101.572 32.239ZM105.198 32.1287V26.6632H106.219V27.5528H106.287C106.401 27.2515 106.587 27.0167 106.845 26.8482C107.104 26.6774 107.413 26.592 107.774 26.592C108.139 26.592 108.445 26.6774 108.692 26.8482C108.941 27.019 109.125 27.2539 109.244 27.5528H109.301C109.431 27.261 109.639 27.0285 109.923 26.8553C110.208 26.6798 110.547 26.592 110.941 26.592C111.437 26.592 111.841 26.7474 112.154 27.0582C112.47 27.3689 112.627 27.8374 112.627 28.4637V32.1287H111.564V28.5633C111.564 28.1932 111.463 27.9252 111.261 27.7591C111.059 27.5931 110.819 27.5101 110.539 27.5101C110.192 27.5101 109.923 27.6168 109.731 27.8303C109.539 28.0414 109.443 28.313 109.443 28.6451V32.1287H108.382V28.4957C108.382 28.1992 108.29 27.9608 108.105 27.7805C107.92 27.6002 107.679 27.5101 107.383 27.5101C107.181 27.5101 106.995 27.5634 106.824 27.6702C106.656 27.7746 106.519 27.9204 106.415 28.1078C106.313 28.2952 106.262 28.5123 106.262 28.759V32.1287H105.198ZM114.154 34.1782V26.6632H115.193V27.5492H115.282C115.343 27.4353 115.432 27.3037 115.548 27.1542C115.665 27.0048 115.826 26.8743 116.032 26.7628C116.239 26.649 116.512 26.592 116.851 26.592C117.292 26.592 117.686 26.7035 118.032 26.9265C118.378 27.1495 118.65 27.4709 118.847 27.8908C119.046 28.3107 119.146 28.8159 119.146 29.4066C119.146 29.9973 119.047 30.5037 118.851 30.926C118.654 31.3458 118.383 31.6696 118.039 31.8974C117.695 32.1227 117.303 32.2354 116.861 32.2354C116.529 32.2354 116.258 32.1797 116.047 32.0682C115.838 31.9567 115.674 31.8262 115.556 31.6768C115.437 31.5273 115.346 31.3945 115.282 31.2782H115.218V34.1782H114.154ZM115.196 29.3959C115.196 29.7802 115.252 30.1171 115.363 30.4065C115.475 30.6959 115.636 30.9224 115.847 31.0861C116.058 31.2474 116.317 31.3281 116.623 31.3281C116.941 31.3281 117.207 31.2438 117.42 31.0754C117.634 30.9046 117.795 30.6733 117.904 30.3816C118.016 30.0898 118.071 29.7612 118.071 29.3959C118.071 29.0354 118.017 28.7116 117.908 28.4245C117.801 28.1375 117.64 27.911 117.424 27.7449C117.21 27.5789 116.943 27.4958 116.623 27.4958C116.315 27.4958 116.054 27.5753 115.84 27.7342C115.629 27.8932 115.469 28.115 115.36 28.3996C115.251 28.6843 115.196 29.0164 115.196 29.3959ZM121.502 24.8414V32.1287H120.438V24.8414H121.502ZM124.624 32.2496C124.278 32.2496 123.965 32.1856 123.685 32.0575C123.405 31.927 123.183 31.7384 123.019 31.4917C122.858 31.245 122.777 30.9426 122.777 30.5844C122.777 30.276 122.837 30.0222 122.955 29.8229C123.074 29.6237 123.234 29.4659 123.436 29.3497C123.637 29.2334 123.863 29.1457 124.112 29.0864C124.361 29.0271 124.615 28.982 124.873 28.9512C125.2 28.9132 125.466 28.8824 125.67 28.8586C125.874 28.8325 126.022 28.791 126.115 28.7341C126.207 28.6772 126.254 28.5847 126.254 28.4566V28.4316C126.254 28.1209 126.166 27.8801 125.99 27.7093C125.817 27.5385 125.559 27.4531 125.215 27.4531C124.856 27.4531 124.574 27.5326 124.368 27.6915C124.164 27.8481 124.023 28.0224 123.944 28.2146L122.945 27.9869C123.063 27.6548 123.236 27.3867 123.464 27.1827C123.694 26.9763 123.959 26.8269 124.258 26.7344C124.556 26.6395 124.871 26.592 125.2 26.592C125.419 26.592 125.65 26.6181 125.894 26.6703C126.141 26.7201 126.371 26.8126 126.585 26.9479C126.8 27.0831 126.977 27.2764 127.115 27.5279C127.252 27.7769 127.321 28.1007 127.321 28.4993V32.1287H126.282V31.3814H126.239C126.171 31.519 126.067 31.6542 125.93 31.7871C125.792 31.9199 125.616 32.0302 125.4 32.118C125.184 32.2058 124.925 32.2496 124.624 32.2496ZM124.855 31.3957C125.149 31.3957 125.401 31.3375 125.61 31.2213C125.821 31.1051 125.981 30.9533 126.09 30.7659C126.202 30.5761 126.257 30.3733 126.257 30.1574V29.4529C126.219 29.4908 126.146 29.5264 126.037 29.5596C125.93 29.5904 125.808 29.6177 125.67 29.6415C125.533 29.6628 125.399 29.683 125.268 29.7019C125.138 29.7185 125.028 29.7328 124.941 29.7446C124.734 29.7707 124.546 29.8146 124.375 29.8763C124.207 29.938 124.071 30.0269 123.969 30.1432C123.87 30.257 123.82 30.4088 123.82 30.5986C123.82 30.8619 123.917 31.0612 124.112 31.1964C124.306 31.3292 124.554 31.3957 124.855 31.3957ZM131.39 26.6632V27.5172H128.404V26.6632H131.39ZM129.205 25.3538H130.269V30.5239C130.269 30.7303 130.3 30.8856 130.361 30.99C130.423 31.092 130.503 31.162 130.6 31.2C130.699 31.2355 130.807 31.2533 130.924 31.2533C131.009 31.2533 131.084 31.2474 131.148 31.2355C131.212 31.2237 131.262 31.2142 131.297 31.2071L131.489 32.086C131.428 32.1097 131.34 32.1334 131.226 32.1571C131.112 32.1832 130.97 32.1975 130.799 32.1998C130.519 32.2046 130.258 32.1548 130.016 32.0504C129.774 31.946 129.579 31.7847 129.429 31.5665C129.28 31.3482 129.205 31.0742 129.205 30.7445V25.3538ZM134.964 32.239C134.425 32.239 133.961 32.1239 133.572 31.8938C133.186 31.6613 132.887 31.3352 132.676 30.9153C132.467 30.4931 132.363 29.9985 132.363 29.4315C132.363 28.8717 132.467 28.3783 132.676 27.9513C132.887 27.5243 133.181 27.191 133.558 26.9514C133.938 26.7118 134.381 26.592 134.889 26.592C135.197 26.592 135.496 26.643 135.786 26.745C136.075 26.847 136.335 27.0072 136.565 27.2254C136.795 27.4436 136.976 27.7271 137.109 28.0758C137.242 28.4222 137.309 28.8432 137.309 29.339V29.7162H132.964V28.9191H136.266C136.266 28.6392 136.209 28.3913 136.095 28.1755C135.981 27.9572 135.821 27.7852 135.615 27.6595C135.411 27.5338 135.171 27.4709 134.896 27.4709C134.597 27.4709 134.336 27.5445 134.113 27.6915C133.893 27.8362 133.722 28.026 133.601 28.2609C133.482 28.4933 133.423 28.746 133.423 29.0188V29.6415C133.423 30.0068 133.487 30.3175 133.615 30.5737C133.746 30.8299 133.927 31.0256 134.159 31.1608C134.392 31.2937 134.664 31.3601 134.974 31.3601C135.176 31.3601 135.36 31.3316 135.526 31.2747C135.692 31.2154 135.835 31.1276 135.956 31.0114C136.077 30.8951 136.17 30.7516 136.234 30.5808L137.241 30.7623C137.16 31.0588 137.016 31.3186 136.807 31.5416C136.6 31.7622 136.341 31.9341 136.028 32.0575C135.717 32.1785 135.362 32.239 134.964 32.239Z" fill="#E4F2FF"/>
</svg>
