<svg width="292" height="51" viewBox="0 0 292 51" fill="none" xmlns="http://www.w3.org/2000/svg">
<g clip-path="url(#clip0_592_380)">
<path d="M94.7091 15.6556L88.0324 34.3027C88.0018 34.3928 87.9416 34.4701 87.8614 34.5225C87.7811 34.5749 87.6854 34.5992 87.5895 34.5917H87.0836C86.9875 34.5954 86.8923 34.5698 86.8115 34.5179C86.7308 34.4662 86.6681 34.391 86.6323 34.3027L81.6269 21.2248L76.6299 34.3027C76.5967 34.3912 76.5358 34.4666 76.4561 34.5188C76.3765 34.5707 76.2822 34.5961 76.1868 34.5917H75.6727C75.5773 34.5971 75.4825 34.5717 75.4027 34.5197C75.3229 34.4676 75.2623 34.3917 75.2298 34.3027L68.5531 15.6622C68.4506 15.3732 68.5615 15.1936 68.8458 15.1936H70.912C71.0094 15.1838 71.1072 15.2072 71.1891 15.2597C71.2712 15.3123 71.3327 15.3909 71.3634 15.4826L76.1224 29.6005L80.9608 16.6712C80.9956 16.5821 81.0579 16.5062 81.1391 16.4543C81.22 16.4024 81.3157 16.3772 81.4121 16.3822H81.8468C81.9423 16.3774 82.0366 16.4029 82.1164 16.4549C82.1962 16.5068 82.2568 16.5826 82.2897 16.6712L87.272 29.6005L91.9204 15.4826C91.951 15.3909 92.0126 15.3123 92.0947 15.2597C92.1766 15.2072 92.2744 15.1838 92.3717 15.1936H94.4066C94.699 15.1936 94.8099 15.3732 94.7075 15.6556" fill="white"/>
<path d="M123.766 24.739C123.748 26.6595 123.154 28.5316 122.06 30.1196C120.966 31.7076 119.421 32.9402 117.62 33.6626C115.818 34.3847 113.84 34.5643 111.935 34.1784C110.03 33.7925 108.284 32.8585 106.915 31.4938C105.547 30.1294 104.618 28.3954 104.245 26.5102C103.872 24.6253 104.073 22.6736 104.821 20.9009C105.57 19.1282 106.832 17.6139 108.451 16.5487C110.069 15.4835 111.97 14.9151 113.914 14.915C115.221 14.8969 116.518 15.1393 117.728 15.6277C118.938 16.1162 120.035 16.8407 120.955 17.7578C121.875 18.675 122.598 19.7659 123.081 20.9655C123.564 22.165 123.797 23.4484 123.766 24.739ZM121.034 24.739C121.034 20.218 118.048 17.1044 113.914 17.1044C109.78 17.1044 106.795 20.218 106.795 24.739C106.795 29.2598 109.78 32.3736 113.914 32.3736C118.048 32.3736 121.034 29.2598 121.034 24.739Z" fill="white"/>
<path d="M149.861 33.5077C149.924 33.5796 149.963 33.6688 149.973 33.7634C149.984 33.8579 149.965 33.9534 149.92 34.0372C149.874 34.1211 149.804 34.1893 149.719 34.2329C149.633 34.2764 149.536 34.2934 149.441 34.2815H147.579C147.519 34.2797 147.46 34.2631 147.407 34.2333C147.355 34.2033 147.311 34.1611 147.278 34.1101L142.607 27.1483H137.587V33.8915C137.586 33.9949 137.543 34.0938 137.469 34.167C137.395 34.2403 137.295 34.282 137.19 34.2832H135.372C135.267 34.2815 135.167 34.2396 135.094 34.1665C135.02 34.0934 134.978 33.9946 134.977 33.8915V15.5871C134.978 15.484 135.021 15.3856 135.094 15.3125C135.168 15.2394 135.267 15.1974 135.372 15.1953H142.523C147.528 15.1953 149.999 17.7929 149.999 21.171C150.03 22.5133 149.573 23.8221 148.712 24.8607C147.851 25.8996 146.642 26.5999 145.303 26.8348L149.861 33.5077ZM142.012 24.9588C145.948 24.9588 147.27 23.3473 147.27 21.1726C147.27 18.9979 145.948 17.3864 142.012 17.3864H137.585V24.9588H142.012Z" fill="white"/>
<path d="M180.612 14.8891H181.205C181.258 14.8858 181.311 14.8936 181.361 14.9121C181.411 14.9306 181.456 14.9594 181.493 14.9964C181.531 15.0335 181.56 15.0781 181.579 15.1271C181.597 15.1762 181.605 15.2286 181.602 15.281V33.8937C181.605 33.9461 181.597 33.9985 181.579 34.0476C181.56 34.0968 181.531 34.1413 181.493 34.1783C181.456 34.2153 181.411 34.2442 181.361 34.2626C181.311 34.2812 181.258 34.2889 181.205 34.2856H179.387C179.334 34.2889 179.281 34.2812 179.231 34.2626C179.182 34.2442 179.136 34.2153 179.099 34.1783C179.061 34.1413 179.032 34.0968 179.014 34.0476C178.995 33.9985 178.987 33.9461 178.99 33.8937V20.6803L171.664 31.1541C171.64 31.2058 171.601 31.2499 171.553 31.2806C171.504 31.3113 171.448 31.3276 171.39 31.3276C171.333 31.3276 171.276 31.3113 171.228 31.2806C171.179 31.2499 171.141 31.2058 171.117 31.1541L163.792 20.6803V33.8921C163.796 33.9445 163.788 33.9969 163.769 34.046C163.75 34.0951 163.721 34.1396 163.684 34.1766C163.646 34.2137 163.601 34.2426 163.551 34.261C163.502 34.2796 163.448 34.2873 163.396 34.284H161.577C161.524 34.2873 161.471 34.2796 161.421 34.261C161.372 34.2426 161.327 34.2137 161.289 34.1766C161.252 34.1396 161.222 34.0951 161.204 34.046C161.185 33.9969 161.177 33.9445 161.18 33.8921V15.2793C161.177 15.227 161.185 15.1746 161.204 15.1255C161.222 15.0764 161.252 15.0319 161.289 14.9948C161.327 14.9577 161.372 14.929 161.421 14.9105C161.471 14.892 161.524 14.8841 161.577 14.8875H162.164C162.263 14.8878 162.359 14.9123 162.446 14.9588C162.533 15.0052 162.606 15.0722 162.66 15.1536L171.388 27.1915L180.122 15.1536C180.174 15.0726 180.245 15.0057 180.329 14.9591C180.413 14.9126 180.508 14.8879 180.605 14.8875" fill="white"/>
<path d="M210.987 15.5871V33.8898C210.985 33.9932 210.943 34.0917 210.869 34.1649C210.795 34.238 210.695 34.2799 210.59 34.2815H208.772C208.667 34.2799 208.567 34.238 208.493 34.1649C208.419 34.0917 208.377 33.9932 208.375 33.8898V25.5515H196.346V33.8898C196.345 33.9932 196.302 34.0917 196.228 34.1649C196.154 34.238 196.054 34.2799 195.949 34.2815H194.131C194.026 34.2799 193.927 34.238 193.853 34.1649C193.779 34.0917 193.736 33.9932 193.734 33.8898V15.5871C193.736 15.4838 193.779 15.3851 193.853 15.3119C193.927 15.2388 194.026 15.197 194.131 15.1953H195.949C196.054 15.197 196.154 15.2388 196.228 15.3119C196.302 15.3851 196.345 15.4838 196.346 15.5871V23.3622H208.375V15.5871C208.377 15.4838 208.419 15.3851 208.493 15.3119C208.567 15.2388 208.667 15.197 208.772 15.1953H210.59C210.695 15.197 210.795 15.2388 210.869 15.3119C210.943 15.3851 210.985 15.4838 210.987 15.5871Z" fill="white"/>
<path d="M241.899 24.739C241.88 26.6595 241.286 28.5316 240.193 30.1196C239.1 31.7076 237.554 32.9402 235.752 33.6626C233.951 34.3847 231.973 34.5643 230.068 34.1784C228.163 33.7925 226.416 32.8585 225.048 31.4938C223.68 30.1294 222.75 28.3954 222.378 26.5102C222.005 24.6253 222.206 22.6736 222.954 20.9009C223.702 19.1282 224.965 17.6139 226.583 16.5487C228.201 15.4835 230.102 14.9151 232.047 14.915C233.354 14.8969 234.65 15.1393 235.86 15.6277C237.069 16.1162 238.169 16.8407 239.089 17.7578C240.008 18.675 240.731 19.7659 241.213 20.9655C241.697 22.165 241.929 23.4484 241.899 24.739ZM239.166 24.739C239.166 20.218 236.18 17.1044 232.047 17.1044C227.913 17.1044 224.927 20.218 224.927 24.739C224.927 29.2598 227.913 32.3736 232.047 32.3736C236.18 32.3736 239.166 29.2598 239.166 24.739Z" fill="white"/>
<path d="M266.785 32.4823V33.8898C266.79 33.942 266.78 33.9946 266.762 34.0435C266.743 34.0927 266.715 34.1372 266.678 34.1742C266.64 34.2114 266.593 34.2401 266.544 34.2587C266.495 34.2771 266.441 34.285 266.39 34.2815H253.505C253.399 34.2799 253.301 34.238 253.226 34.1649C253.151 34.0917 253.109 33.9932 253.109 33.8898V15.5871C253.109 15.4838 253.151 15.3851 253.226 15.3119C253.301 15.2388 253.399 15.197 253.505 15.1953H255.323C255.428 15.1974 255.526 15.2394 255.601 15.3125C255.674 15.3856 255.716 15.484 255.718 15.5871V32.0906H266.394C266.446 32.0871 266.5 32.0951 266.549 32.1135C266.6 32.1321 266.645 32.1607 266.682 32.1978C266.72 32.235 266.748 32.2795 266.766 32.3286C266.785 32.3775 266.795 32.4299 266.79 32.4823" fill="white"/>
<path d="M291.887 32.4793V33.8865C291.892 33.9389 291.883 33.9913 291.864 34.0405C291.845 34.0896 291.817 34.1341 291.78 34.1711C291.742 34.2082 291.695 34.237 291.646 34.2554C291.597 34.2741 291.543 34.2817 291.492 34.2785H277.577C277.472 34.2768 277.374 34.2349 277.299 34.1618C277.224 34.0887 277.182 33.9899 277.18 33.8865V15.584C277.182 15.4806 277.224 15.3819 277.299 15.3088C277.374 15.2357 277.472 15.1938 277.577 15.1922H291.176C291.227 15.1888 291.281 15.1967 291.33 15.2151C291.38 15.2337 291.426 15.2624 291.464 15.2995C291.501 15.3366 291.529 15.3811 291.548 15.4302C291.567 15.4793 291.576 15.5317 291.571 15.584V16.9914C291.576 17.0437 291.567 17.0962 291.548 17.1453C291.529 17.1943 291.501 17.2389 291.464 17.2759C291.426 17.313 291.38 17.3418 291.33 17.3603C291.281 17.3788 291.227 17.3866 291.176 17.3833H279.789V23.3589H289.908C289.962 23.3556 290.013 23.3633 290.062 23.3812C290.111 23.3994 290.156 23.4274 290.193 23.4637C290.231 23.4998 290.259 23.5433 290.28 23.5915C290.299 23.6395 290.306 23.691 290.303 23.7427V25.1581C290.308 25.2103 290.299 25.2624 290.28 25.3111C290.261 25.3598 290.233 25.404 290.196 25.441C290.158 25.4778 290.114 25.5065 290.065 25.5251C290.016 25.5435 289.962 25.5514 289.908 25.5484H279.789V32.0873H291.492C291.546 32.0841 291.6 32.0918 291.649 32.1104C291.698 32.1288 291.742 32.1577 291.78 32.1947C291.817 32.2317 291.848 32.2764 291.866 32.3253C291.885 32.3745 291.892 32.4269 291.89 32.4793" fill="white"/>
<path d="M25.4468 50.8195C18.7031 50.8151 12.2366 48.1484 7.46601 43.4045C2.69541 38.6606 0.0103668 32.2269 0 25.5149C0.0103653 18.8026 2.69527 12.3685 7.46577 7.62405C12.2363 2.87958 18.7028 0.212183 25.4468 0.207031C32.1907 0.212183 38.657 2.87958 43.4275 7.62405C48.198 12.3685 50.8829 18.8026 50.8934 25.5149C50.8829 32.2269 48.198 38.6606 43.4275 43.4045C38.6568 48.1484 32.1904 50.8151 25.4468 50.8195ZM25.4468 2.15529C19.2217 2.15958 13.2525 4.62145 8.84893 9.00074C4.44535 13.38 1.96694 19.3191 1.95744 25.5149C1.96349 31.7115 4.44093 37.6522 8.84535 42.0317C13.2498 46.4112 19.2209 48.8713 25.4468 48.8713C31.6724 48.8713 37.6437 46.4112 42.048 42.0317C46.4526 37.6522 48.9299 31.7115 48.936 25.5149C48.9264 19.3191 46.4479 13.38 42.0445 9.00074C37.6409 4.62145 31.6717 2.15958 25.4468 2.15529Z" fill="white"/>
<path d="M28.6675 46.8159C23.0805 46.8115 17.7233 44.6017 13.7711 40.6712C9.81894 36.7405 7.59457 31.4101 7.58594 25.8493C7.59457 20.2885 9.81894 14.9581 13.7711 11.0275C17.7233 7.09693 23.0805 4.88712 28.6675 4.88281C34.2546 4.88712 39.6116 7.09693 43.5639 11.0275C47.516 14.9581 49.7404 20.2885 49.7491 25.8493C49.7404 31.4101 47.516 36.7405 43.5639 40.6712C39.6116 44.6017 34.2546 46.8115 28.6675 46.8159ZM28.6675 6.39598C23.484 6.40026 18.5138 8.45079 14.8472 12.0977C11.1807 15.7446 9.11723 20.6901 9.10946 25.8493C9.1181 31.008 11.182 35.9526 14.8484 39.5988C18.5149 43.2452 23.4845 45.2952 28.6675 45.2994C33.8505 45.2952 38.8201 43.2452 42.4865 39.5988C46.1531 35.9526 48.217 31.008 48.2256 25.8493C48.217 20.6907 46.1531 15.746 42.4865 12.0998C38.8201 8.45356 33.8505 6.40352 28.6675 6.39924V6.39598Z" fill="white"/>
<path d="M31.8807 42.8128C27.4504 42.8093 23.2025 41.0571 20.0687 37.9403C16.9348 34.8237 15.171 30.597 15.1641 26.1875C15.171 21.7782 16.9348 17.5516 20.0687 14.4349C23.2025 11.3182 27.4504 9.56595 31.8807 9.5625C36.311 9.56508 40.5595 11.3171 43.6933 14.4339C46.8274 17.5508 48.5911 21.778 48.597 26.1875C48.5902 30.597 46.8262 34.8237 43.6924 37.9403C40.5585 41.0571 36.3107 42.8093 31.8807 42.8128ZM31.8807 10.6438C27.7384 10.6464 23.7662 12.2844 20.8358 15.1985C17.9055 18.1126 16.2564 22.0647 16.2504 26.1875C16.2573 30.3099 17.9068 34.2611 20.837 37.1746C23.7671 40.0879 27.7389 41.7257 31.8807 41.7283C36.0222 41.7257 39.994 40.0879 42.9243 37.1746C45.8543 34.2611 47.5038 30.3099 47.5109 26.1875C47.5048 22.0647 45.8555 18.1126 42.9252 15.1985C39.9949 12.2844 36.0229 10.6464 31.8807 10.6438Z" fill="white"/>
<path d="M35.1014 38.813C31.8281 38.8104 28.6893 37.5156 26.3739 35.2129C24.0585 32.91 22.7552 29.7871 22.75 26.5292C22.7543 23.2707 24.0571 20.1469 26.3727 17.8434C28.6884 15.5399 31.8276 14.2448 35.1014 14.2422C38.3754 14.2448 41.5144 15.5399 43.83 17.8434C46.1457 20.1469 47.4485 23.2707 47.4529 26.5292C47.4475 29.7871 46.1445 32.91 43.8289 35.2129C41.5135 37.5156 38.3747 38.8104 35.1014 38.813ZM35.1014 14.8916C32.0005 14.8942 29.0274 16.1209 26.8341 18.3026C24.6409 20.4843 23.4069 23.4429 23.4024 26.5292C23.4076 29.6148 24.6423 32.5726 26.8353 34.7537C29.0284 36.9346 32.0012 38.1609 35.1014 38.1635C38.2016 38.1609 41.1744 36.9346 43.3675 34.7537C45.5605 32.5726 46.7952 29.6148 46.8003 26.5292C46.7959 23.4429 45.5619 20.4843 43.3686 18.3026C41.1756 16.1209 38.2023 14.8942 35.1014 14.8916Z" fill="white"/>
</g>
<defs>
<clipPath id="clip0_592_380">
<rect width="292" height="51" fill="white"/>
</clipPath>
</defs>
</svg>
