<svg width="282" height="47" viewBox="0 0 282 47" fill="none" xmlns="http://www.w3.org/2000/svg">
<g clip-path="url(#clip0_592_450)">
<path d="M48.8995 9.4282V14.7893H47.22C41.9895 14.7893 38.6263 18.4888 38.6263 24.039V36.6162H32.8359V9.79793H38.6263V16.6422C39.5622 12.573 42.1774 9.24333 47.22 9.24333C47.7798 9.24333 48.3397 9.24333 48.8995 9.4282ZM80.6694 9.78323L69.3476 36.5994L65.0779 46.2167H59.509L63.9646 36.2297L52.8266 9.78113H58.5815L66.5631 29.5703L74.7307 9.59836H80.6694V9.78323ZM113.868 23.1083C113.868 32.3517 107.188 36.9733 100.879 36.9733C96.0562 36.9733 92.5322 34.3852 91.6047 32.1668H91.4167V46.2167H85.6681V9.79793H91.4188V14.0499H91.6047C92.5322 12.0163 96.0562 9.24333 100.879 9.24333C107.374 9.24333 113.868 13.865 113.868 23.1083ZM108.301 23.1083C108.301 17.3775 104.034 14.4196 99.7681 14.4196C95.5005 14.4196 91.2329 17.3775 91.2329 23.1083C91.2329 28.8392 95.5005 31.7971 99.7681 31.7971C104.22 31.7971 108.301 28.8392 108.301 23.1083ZM127.062 14.2852V28.8665C127.062 30.3433 127.803 31.6353 130.024 31.6353C130.579 31.6353 131.505 31.4504 132.43 31.0807V35.5112C131.505 36.2486 129.652 36.6183 128.173 36.6183C124.099 36.6183 121.14 34.589 121.14 29.7908V14.2852H117.434V9.67399H121.137V2.84443H126.874V9.67189H132.242V14.2873H127.059L127.062 14.2852ZM137.069 23.1083C137.069 14.0499 144.078 9.24333 150.898 9.24333C157.906 9.24333 164.914 14.0499 164.914 23.1083C164.914 32.1668 157.906 36.9733 150.898 36.9733C144.078 36.9733 137.069 32.1668 137.069 23.1083ZM159.197 23.1083C159.197 17.5623 155.324 14.4196 150.9 14.4196C146.474 14.4196 142.603 17.5623 142.603 23.1083C142.603 28.6543 146.657 31.7971 150.9 31.7971C155.14 31.7971 159.197 28.6543 159.197 23.1083ZM186.689 9.4282V14.7893H185.007C179.777 14.7893 176.414 18.4888 176.414 24.039V36.6162H170.625V9.79793H176.416V16.6422C177.349 12.573 179.963 9.24333 185.007 9.24333C185.567 9.24333 186.127 9.24333 186.689 9.4282ZM249.512 20.8899V36.6162H243.772V21.8164C243.772 17.1905 241.18 14.6003 237.29 14.6003C233.401 14.6003 230.622 17.1905 230.622 21.8164V36.6162H224.882V9.9744H230.622V14.0457C232.105 11.6403 234.882 9.60466 239.141 9.60466C244.883 9.4198 249.512 12.9344 249.512 20.8899ZM265.799 25.707L262.073 29.7761V36.6183H256.295V0H262.073V22.3773L273.44 9.80213H280.336L269.34 21.8227L281.639 36.6183H275.118L265.799 25.707ZM219.171 22.8962V9.08998H213.42V13.3692H213.234C212.307 11.1361 208.781 8.53328 203.96 8.53328C197.651 8.53328 190.971 13.1823 190.971 22.4823C190.971 31.7824 197.649 36.4313 203.958 36.6183C204.628 36.6183 205.274 36.5637 205.89 36.4649C207.051 35.7486 208.334 34.6037 209.865 32.8664C208.952 32.7277 208.215 32.629 207.588 32.5428C205.384 32.2445 204.478 32.1206 201.827 31.171C200.478 30.6879 198.092 28.5409 197.378 26.5242C196.845 25.3793 196.536 24.0327 196.536 22.4823C196.536 16.7157 200.803 13.7411 205.071 13.7411C209.339 13.7411 213.606 16.7157 213.606 22.4802L213.604 22.6651C215.697 22.7365 217.655 22.8226 219.171 22.8962Z" fill="#0587FF"/>
<path d="M210.32 38.7493L209.196 37.6527L214.068 32.3462L208.82 27.4052L209.946 26.3086L216.317 32.3462L210.32 38.7493Z" fill="#0587FF" stroke="#0587FF" stroke-width="1.196" stroke-miterlimit="10"/>
<path d="M11.5766 31.5732C10.269 31.0733 8.91747 30.3233 7.9524 29.2099C6.51274 27.5077 5.72589 25.3439 5.734 23.1093C5.734 17.5633 9.61933 14.4185 14.0561 14.4185C16.2766 14.4185 18.495 15.1579 19.976 16.8217C20.4147 17.2629 20.7698 17.7187 21.0539 18.183L22.0942 17.7881C23.5355 17.2419 24.9748 16.6936 26.4161 16.1348C23.9094 11.6034 18.9838 9.24219 14.0561 9.24219C7.02911 9.24219 0 14.0487 0 23.1072C0 32.0207 6.80142 36.8188 13.7136 36.9722C14.9251 35.9428 16.3038 34.5458 17.3315 33.5017L18.0438 32.7791C15.6625 32.7791 13.2812 32.3778 11.5766 31.5732Z" fill="#0587FF"/>
<path d="M18.2811 39.4623L17.1552 38.3657L22.0285 33.0592L16.7812 28.1182L17.9051 27.0195L24.2762 33.0592L18.2811 39.4623Z" fill="#0587FF" stroke="#0587FF" stroke-width="1.196" stroke-miterlimit="10"/>
</g>
<defs>
<clipPath id="clip0_592_450">
<rect width="282" height="46.2167" fill="white"/>
</clipPath>
</defs>
</svg>
