<svg width="202" height="42" viewBox="0 0 202 42" fill="none" xmlns="http://www.w3.org/2000/svg">
<path d="M46.6184 8.96034L29.2642 39.019C28.7395 39.9256 27.9857 40.6781 27.0783 41.2014C26.1708 41.7246 25.1418 42 24.0944 42C23.047 42 22.0179 41.7246 21.1106 41.2014C20.2031 40.6781 19.4492 39.9256 18.9245 39.019L15.8822 33.7537C15.8725 33.7406 15.8683 33.7243 15.8706 33.7081C15.8729 33.6919 15.8816 33.6773 15.8946 33.6674C15.9076 33.6577 15.924 33.6535 15.9402 33.6557C15.9564 33.6581 15.971 33.6668 15.9809 33.6798C16.5235 34.2156 17.1816 34.62 17.9045 34.8623C18.6276 35.1048 19.3965 35.1786 20.1524 35.0781C20.9084 34.9777 21.6313 34.7057 22.266 34.2829C22.9006 33.8601 23.4301 33.2979 23.8141 32.639L38.3416 7.45155C38.7246 6.78656 38.9494 6.04234 38.9986 5.27653C39.0478 4.51071 38.9201 3.74384 38.6255 3.0353C38.3307 2.32676 37.8769 1.69555 37.299 1.19056C36.7211 0.685571 36.0349 0.320347 35.2933 0.12317C35.277 0.12317 35.2613 0.116682 35.2497 0.105133C35.2382 0.0935834 35.2317 0.0779195 35.2317 0.0615867C35.2317 0.0452539 35.2382 0.0295899 35.2497 0.0180409C35.2613 0.00649186 35.277 3.66165e-06 35.2933 3.66165e-06H41.4516C42.4996 0.00113199 43.5289 0.277969 44.4361 0.802719C45.3432 1.32747 46.0964 2.08166 46.62 2.98956C47.1435 3.89747 47.4189 4.92713 47.4187 5.97517C47.4184 7.0232 47.1424 8.05272 46.6184 8.96034ZM26.0742 3.66165e-06H20.0576C20.0453 0.00405332 20.0346 0.0118894 20.0269 0.0223948C20.0193 0.0329 20.0152 0.0455383 20.0152 0.0585076C20.0152 0.0714768 20.0193 0.0841151 20.0269 0.0946205C20.0346 0.105126 20.0453 0.112962 20.0576 0.117011C20.4629 0.273536 20.8295 0.515712 21.1325 0.826985C21.4356 1.13826 21.6678 1.5113 21.8134 1.92059C21.959 2.32987 22.0145 2.76579 21.9761 3.1985C21.9377 3.63122 21.8064 4.05054 21.5911 4.42783L12.8216 19.5957C12.595 19.9804 12.2861 20.31 11.917 20.5611C11.5479 20.8122 11.1278 20.9785 10.6868 21.0479C10.2459 21.1174 9.79503 21.0883 9.36661 20.963C8.9382 20.8375 8.54288 20.6187 8.20903 20.3224C8.19923 20.3093 8.18464 20.3007 8.16846 20.2984C8.1523 20.2961 8.13588 20.3003 8.1228 20.3101C8.10974 20.3199 8.1011 20.3345 8.0988 20.3506C8.09648 20.3668 8.10069 20.3833 8.11049 20.3963L11.1896 25.7417C11.5354 26.3415 12.033 26.8398 12.6325 27.1862C13.2319 27.5326 13.9121 27.715 14.6044 27.715C15.2967 27.715 15.9769 27.5326 16.5764 27.1862C17.1758 26.8398 17.6735 26.3415 18.0192 25.7417L29.4922 5.91197C29.8383 5.31249 30.0203 4.63241 30.0202 3.94017C30.0199 3.24794 29.8375 2.56796 29.491 1.96868C29.1445 1.36939 28.6464 0.871916 28.0466 0.52632C27.4467 0.180726 26.7665 -0.000801051 26.0742 3.66165e-06ZM5.19146 3.66165e-06C4.16468 3.66165e-06 3.16097 0.304477 2.30724 0.874921C1.45351 1.44537 0.788107 2.25616 0.395178 3.20478C0.00224938 4.15338 -0.100559 5.19721 0.0997546 6.20426C0.300068 7.21131 0.794505 8.13633 1.52054 8.86237C2.24658 9.5884 3.17162 10.0828 4.17865 10.2831C5.1857 10.4835 6.22953 10.3807 7.17813 9.98773C8.12675 9.5948 8.93754 8.9294 9.50799 8.07567C10.0784 7.22194 10.3829 6.21823 10.3829 5.19146C10.3837 4.50948 10.25 3.83404 9.98938 3.20382C9.72877 2.57359 9.34641 2.00097 8.86417 1.51874C8.38194 1.0365 7.80932 0.654137 7.17909 0.393529C6.54887 0.13292 5.87343 -0.000806771 5.19146 3.66165e-06Z" fill="url(#paint0_linear_592_372)"/>
<path d="M87.6501 9.72656H82.4647L75.3781 26.5963L68.3261 9.72656H63.1406L73.1311 32.8878H77.6597L87.6501 9.72656Z" fill="white"/>
<path d="M113.182 28.6358H100.287V23.3813H112.11V19.1984H100.287V13.9786H113.112V9.72656H95.5859V32.8878H113.182V28.6358Z" fill="white"/>
<path d="M144.147 9.72656H139.446V25.0061L126.621 9.72656H122.68V32.8878H127.381V18.0231L140.206 32.8878H144.147V9.72656Z" fill="white"/>
<path d="M174.106 9.72656H169.405V22.517C169.405 24.4529 168.921 26.0085 167.953 27.184C166.985 28.3593 165.706 28.9124 164.151 28.9124C162.491 28.9124 161.143 28.3593 160.141 27.184C159.138 26.0085 158.654 24.4529 158.654 22.517V9.72656H153.953V22.517C153.953 25.7666 154.886 28.3939 156.754 30.3988C158.62 32.4038 161.075 33.4064 164.151 33.4064C167.124 33.4064 169.543 32.4038 171.376 30.3988C173.174 28.3939 174.106 25.7666 174.106 22.517V9.72656Z" fill="white"/>
<path d="M192.423 9.20703C189.726 9.20703 187.584 9.86384 185.993 11.1775C184.403 12.4911 183.608 14.1849 183.608 16.2591C183.608 19.8543 185.613 22.0667 189.692 22.8963L194.601 23.8297C195.568 24.0372 196.26 24.3483 196.674 24.7286C197.09 25.1433 197.297 25.6618 197.297 26.3532C197.297 27.2174 196.916 27.9088 196.226 28.4619C195.5 29.0151 194.497 29.2916 193.183 29.2916C190.314 29.2916 188.586 28.0472 187.998 25.5236L183.055 26.5261C183.331 28.7386 184.369 30.467 186.166 31.6423C187.964 32.8177 190.176 33.4054 192.735 33.4054C195.5 33.4054 197.712 32.7485 199.407 31.4349C201.065 30.1213 201.929 28.3583 201.929 26.1113C201.929 24.3483 201.377 22.8963 200.305 21.7902C199.233 20.684 197.746 19.8889 195.846 19.474L190.867 18.4716C189.312 18.1949 188.552 17.3999 188.552 16.1208C188.552 15.3258 188.896 14.6344 189.588 14.0813C190.28 13.5281 191.179 13.2516 192.319 13.2516C193.495 13.2516 194.497 13.5973 195.362 14.2541C196.192 14.9109 196.71 15.7751 196.882 16.8468L201.583 15.8789C201.135 13.8392 200.097 12.2145 198.438 11.0046C196.778 9.82927 194.774 9.20703 192.423 9.20703Z" fill="white"/>
<defs>
<linearGradient id="paint0_linear_592_372" x1="46.812" y1="33.2365" x2="-7.40795" y2="-3.58368" gradientUnits="userSpaceOnUse">
<stop stop-color="#5433FF"/>
<stop offset="0.5" stop-color="#20BDFF"/>
<stop offset="1" stop-color="#5CFFA2"/>
</linearGradient>
</defs>
</svg>
