<svg width="276" height="54" viewBox="0 0 276 54" fill="none" xmlns="http://www.w3.org/2000/svg">
<g clip-path="url(#clip0_592_393)">
<path d="M61.1875 18.3675H66.1345V33.1474H74.1557V37.3747H61.1875V18.3675ZM74.7487 18.3675H90.9941V22.4695H85.3137V37.3904H80.3667V22.4695H74.7487V18.3675ZM102.027 18.2266C107.895 18.2266 112.265 22.3443 112.265 27.8554C112.265 33.4136 107.879 37.5939 102.027 37.5939C96.1752 37.5939 91.79 33.4136 91.79 27.8554C91.7744 22.3286 96.1596 18.2266 102.027 18.2266ZM102.074 22.4539C99.2339 22.4539 96.8618 24.7867 96.8618 27.8711C96.8618 30.9555 99.2651 33.3509 102.074 33.3509C104.914 33.3509 107.177 30.9711 107.177 27.8711C107.177 24.7711 104.914 22.4539 102.074 22.4539ZM122.829 18.3675H127.183L135.782 29.8125V18.3675H140.37V37.3747H136.047L127.449 25.9923V37.3747H122.829V18.3675ZM144.069 18.3675H159.019V22.3286H149.016V25.8827H158.036V29.8125L149.016 29.8438V33.4292H159.284V37.3904H144.069V18.3675ZM160.673 18.3675H176.918V22.4695H171.238V37.3904H166.291V22.4695H160.673V18.3675ZM177.028 18.3675H182.349L185.938 32.1141L189.512 18.3675H194.35L197.939 32.1141L201.513 18.3675H206.6L200.358 37.3747H195.255L191.853 24.5519L188.342 37.3747H183.254L177.028 18.3675ZM217.259 18.2266C223.126 18.2266 227.496 22.3443 227.496 27.8554C227.496 33.4136 223.111 37.5939 217.259 37.5939C211.391 37.5939 207.021 33.4136 207.021 27.8554C207.021 22.3286 211.407 18.2266 217.259 18.2266ZM217.321 22.4539C214.481 22.4539 212.109 24.7867 212.109 27.8711C212.109 30.9555 214.512 33.3509 217.321 33.3509C220.161 33.3509 222.424 30.9711 222.424 27.8711C222.424 24.7711 220.161 22.4539 217.321 22.4539ZM246.941 37.3747H241.338L238.576 32.1141H234.893V37.3747H229.946V18.3675H238.467C243.492 18.3675 246.363 20.8099 246.363 25.0372C246.363 27.9181 245.177 30.0317 242.992 31.159L246.941 37.3747ZM234.909 22.3286V28.1529H238.498C240.495 28.1529 241.666 27.1196 241.666 25.1938C241.666 23.315 240.511 22.313 238.498 22.313H234.909V22.3286ZM267.758 37.3747H261.844L256.928 30.0317L254.494 32.7403V37.3747H249.531V18.3675H254.478V26.3367L261.579 18.3675H267.306L260.283 26.2271L267.758 37.3747Z" fill="white"/>
<path d="M48.2827 32.0981L26.9343 10.6641L5.57031 32.0981L14.0753 40.631L26.9343 27.7299L39.7777 40.631L48.2827 32.0981Z" fill="url(#paint0_linear_592_393)"/>
</g>
<defs>
<linearGradient id="paint0_linear_592_393" x1="-20.9595" y1="25.6435" x2="60.7159" y2="25.6435" gradientUnits="userSpaceOnUse">
<stop stop-color="#F42922"/>
<stop offset="0.2942" stop-color="#00CDDD"/>
<stop offset="0.7997" stop-color="#9A1DB1"/>
</linearGradient>
<clipPath id="clip0_592_393">
<rect width="276" height="54" fill="white"/>
</clipPath>
</defs>
</svg>
