<svg width="235" height="38" viewBox="0 0 235 38" fill="none" xmlns="http://www.w3.org/2000/svg">
<g clip-path="url(#clip0_592_402)">
<path d="M16.3465 30.6149L25.5653 8.66406H32.4391V37.2838H27.9076V13.0427L17.7224 37.4367H14.4629L4.37867 13.1956V37.2838H0V8.66406H7.17951L16.3465 30.6149Z" fill="white"/>
<path d="M57.25 32.6519C56.281 34.6884 53.4831 37.8469 48.8475 37.8469C42.5824 37.8469 38.3047 33.1106 38.3047 26.5917V12.1289H42.9891V25.7263C42.9891 30.4626 45.689 33.5692 49.9667 33.5692C54.2445 33.5692 57.25 30.3617 57.25 25.7263V12.1289H61.8857V37.2873H57.25V32.6519Z" fill="white"/>
<path d="M95.6964 37.2826H89.7371C83.8785 37.2826 80.9278 34.4818 80.9278 28.8801V16.3009H75.3984V12.1242H80.9278V5.78125H85.5635V12.1242H95.6964V16.3009H85.5635V27.81C85.5635 31.4761 86.7343 33.0049 90.7583 33.0049H95.6996V37.2826H95.6964Z" fill="white"/>
<path d="M122.546 37.743H118.828L106.961 12.1289H112.156L120.812 31.5299L129.42 12.1289H134.205L122.543 37.743H122.546Z" fill="white"/>
<path d="M159.828 25.2698H138.898C139.152 29.9542 142.516 33.6232 147.454 33.6232C152.392 33.6232 154.532 30.9234 154.939 30.11H159.522C159.116 32.2993 155.905 37.9009 147.454 37.9009C139.663 37.9009 134.211 32.0944 134.211 24.7102C134.211 17.326 139.66 11.5195 146.992 11.5195C154.325 11.5195 159.825 17.0202 159.825 25.2698H159.828ZM139.204 21.3989H154.685C153.514 17.5798 150.814 15.4914 146.995 15.4914C142.922 15.4914 140.17 17.7327 139.204 21.3989Z" fill="white"/>
<path d="M168.956 37.2832H164.32V12.1277H168.956V16.763C169.668 14.9285 171.808 11.9258 177.716 11.9258H180.433V16.5612H177.615C171.147 16.5612 168.958 18.5976 168.958 23.08V37.289L168.956 37.2832Z" fill="white"/>
<path d="M190.626 26.2355C185.789 25.6759 182.377 23.3828 182.377 18.7503C182.377 14.1178 186.553 11.418 192.714 11.418C201.221 11.418 203.97 15.7966 204.783 18.3436H199.842C199.283 17.6802 197.399 15.3899 192.712 15.3899C188.893 15.3899 186.957 16.7658 186.957 18.5975C186.957 20.4291 188.232 21.4992 191.235 21.8569C193.219 22.1108 194.443 22.2145 196.632 22.4684C202.591 23.2328 205.135 25.7769 205.135 30.4122C205.135 34.6409 201.265 38.0013 194.137 38.0013C185.276 38.0013 182.169 32.5525 181.609 30.2623H186.551C186.804 31.0757 188.841 33.9284 194.14 33.9284C198.417 33.9284 200.506 32.3996 200.506 30.4152C200.506 28.4306 199.436 27.2566 196.023 26.8499L190.626 26.2384V26.2355Z" fill="white"/>
<path d="M99.1641 0H104.002V7.2833H99.1641V0ZM99.2652 12.1205H103.9V37.2789H99.2652V12.1205Z" fill="white"/>
<path d="M67.75 4.39453H72.3857V37.2804H67.75V4.39453Z" fill="white"/>
<path d="M223.748 15.3361L235.003 9.36526L233.111 5.75391L222.805 9.8931C222.539 9.99986 222.245 9.99986 221.98 9.8931L211.673 5.75391L209.781 9.36526L221.036 15.3361L209.781 21.307L211.673 24.9183L221.98 20.7791C222.245 20.6724 222.539 20.6724 222.805 20.7791L233.111 24.9183L235.003 21.307L223.748 15.3361Z" fill="#23F7DD"/>
</g>
<defs>
<clipPath id="clip0_592_402">
<rect width="235" height="38" fill="white"/>
</clipPath>
</defs>
</svg>
