<svg width="229" height="66" viewBox="0 0 229 66" fill="none" xmlns="http://www.w3.org/2000/svg">
<g clip-path="url(#clip0_592_438)">
<path d="M8.05188 27.954H0V18.5703H19.2547V53.5827H8.05188V27.954Z" fill="#00FFDE"/>
<path d="M32.2081 27.954H24.1562V18.5703H43.4137V53.5827H32.2081V27.954Z" fill="#00FFDE"/>
<path d="M56.375 27.954H48.3203V18.5703H67.5778V53.5827H56.375V27.954Z" fill="#00FFDE"/>
<path d="M136.195 18.5703H175.546L179.608 22.635V40.9788L175.546 45.0407H147.398V53.5854H136.195V18.5703ZM168.406 35.7373V27.954H147.398V35.7262L168.406 35.7373Z" fill="#5A00FF"/>
<path d="M228.984 32.2248V49.5219L224.922 53.5838H189.281L185.219 49.5219V22.6362L189.281 18.5742H225.132V27.3266H196.422V44.8314H218.481V39.5069H205.526V32.2247L228.984 32.2248Z" fill="#5A00FF"/>
<path d="M88.5333 24.0487C94.3305 18.6371 94.8384 9.75994 89.6679 4.22103C84.4973 -1.31788 75.6063 -1.4211 69.8091 3.9905C64.012 9.4021 63.5041 18.2792 68.6746 23.8182C73.8451 29.3571 82.7362 29.4603 88.5333 24.0487Z" fill="black"/>
<path d="M134.509 26.4324C139.79 21.5029 139.908 13.0474 134.772 7.54649C129.637 2.04558 121.194 1.58236 115.913 6.51186C110.632 11.4414 110.514 19.8969 115.649 25.3978C120.784 30.8987 129.228 31.3619 134.509 26.4324Z" fill="black"/>
<path d="M101.009 65.5723C117.436 65.5723 130.752 52.2559 130.752 35.8291C130.752 19.4024 117.436 6.08594 101.009 6.08594C84.5821 6.08594 71.2656 19.4024 71.2656 35.8291C71.2656 52.2559 84.5821 65.5723 101.009 65.5723Z" fill="black"/>
<path d="M77.4251 34.2006C77.3835 34.5938 76.456 43.5594 82.0823 50.6366C85.6182 55.1056 90.9427 57.7277 97.8815 58.4891C120.448 60.9645 124.368 39.6913 124.393 39.467C124.46 39.2239 124.404 38.9637 124.244 38.7692C124.088 38.5734 123.861 38.447 123.613 38.4176L78.48 33.4669C77.9944 33.4134 77.5439 33.7268 77.4251 34.2006ZM119.199 47.5549L115.785 39.4172L122.392 40.1426C121.72 42.7644 120.642 45.2653 119.199 47.5549ZM109.131 55.6427L114.641 41.5713L117.925 49.3546C115.658 52.2506 112.605 54.4334 109.131 55.6427ZM108.09 53.2615L103.746 38.1075L113.6 39.1901L108.09 53.2615ZM94.7388 56.1605L102.478 40.3558L107.024 56.2685C104.463 56.8943 101.55 57.0992 98.0781 56.7032C96.9565 56.5789 95.842 56.3978 94.7388 56.1605ZM94.0798 53.3695L89.9265 36.5901L101.617 37.8638L94.0798 53.3695ZM82.5336 48.0782L88.5033 38.5893L92.7037 55.5984C88.8688 54.3857 85.8064 52.3478 83.5664 49.5512C83.157 49.1093 82.8095 48.6137 82.5336 48.0782ZM79.211 35.4743L87.6644 36.4019L81.4261 46.259C79.3107 41.887 79.1778 37.3405 79.2138 35.4743H79.211Z" fill="#00FFA8"/>
<path d="M74.785 24.9777C68.7399 39.4378 75.5615 56.0605 90.0216 62.1056C104.482 68.1507 121.104 61.329 127.15 46.869C128.375 43.937 129.1 40.82 129.293 37.648C129.476 34.5302 129.148 31.4034 128.321 28.3917C134.792 26.5761 138.566 19.8585 136.75 13.3875C134.935 6.91654 128.217 3.14265 121.746 4.95828C118.581 5.84624 115.91 7.97666 114.341 10.8648C107.359 7.10809 99.1181 6.4629 91.6363 9.08715C89.7673 5.03906 85.6196 2.08191 80.7214 1.78287C73.7134 1.3537 67.6939 6.48995 67.2869 13.1602C66.9768 18.3047 70.089 22.9121 74.785 24.9777ZM98.6443 28.7434L81.0675 26.9297C81.7431 23.9532 83.9527 21.8821 86.3284 21.9209L94.635 21.9652C97.4039 21.9153 99.3753 25.2324 98.6443 28.7434ZM109.443 15.1039L105.99 17.319C105.897 17.3796 105.845 17.4854 105.852 17.5959L106.458 21.5C106.479 21.6391 106.383 21.7688 106.244 21.7896C106.173 21.8001 106.101 21.7805 106.046 21.7353L102.723 19.2849C102.645 19.2187 102.535 19.2076 102.446 19.2572L98.7246 20.9739C98.579 21.0207 98.4231 20.9406 98.3763 20.795C98.3624 20.7518 98.3593 20.7057 98.3674 20.661L99.7519 16.9563C99.758 16.857 99.7285 16.7589 99.6688 16.6794L96.72 13.8136C96.628 13.7051 96.6414 13.5426 96.7499 13.4507C96.8001 13.4081 96.8647 13.3864 96.9304 13.39L101.147 13.5367C101.258 13.5367 101.319 13.5007 101.385 13.3955L103.296 9.91227C103.375 9.78113 103.545 9.7386 103.676 9.81726C103.731 9.85032 103.773 9.90153 103.794 9.96211L104.968 13.7582C105.013 13.8745 105.063 13.9354 105.173 13.9465L109.327 14.6443C109.548 14.7218 109.631 15.0098 109.454 15.1039H109.443ZM119.544 25.1466C121.939 25.6228 123.667 28.2533 123.75 31.4984L105.528 29.5214C105.605 25.7917 108.272 22.7737 111.09 23.3662L119.544 25.1466ZM124.591 20.1959C123.668 18.8457 122.644 17.5666 121.529 16.3693C117.653 12.2492 121.108 5.52362 126.71 6.40135H126.906C131.54 7.23927 135.036 11.0815 135.434 15.774C135.459 16.2499 135.459 16.7268 135.434 17.2027C135.16 22.9121 127.767 24.914 124.602 20.1959L124.591 20.1959ZM79.5225 29.5574L124.722 33.8824C126.563 34.0594 127.933 35.6633 127.82 37.5096C126.937 52.3064 114.089 63.573 99.3393 62.6731C84.546 61.7515 73.2884 49.0325 74.1703 34.2368V34.187C74.358 31.4408 76.7364 29.3668 79.4825 29.5545C79.4959 29.5554 79.5092 29.5564 79.5225 29.5574ZM69.1116 15.594C68.9634 14.8132 68.9123 14.0172 68.9593 13.2238C69.3081 7.49228 74.5413 3.13685 80.5691 3.50511H80.7159C85.6999 3.85952 87.6381 10.3221 83.6564 13.3734C81.8759 14.7565 80.2611 16.3406 78.8441 18.0943C75.9147 21.752 70.0087 20.2125 69.1116 15.5829V15.594Z" fill="#FF62FF"/>
</g>
<defs>
<clipPath id="clip0_592_438">
<rect width="228.98" height="65.572" fill="white"/>
</clipPath>
</defs>
</svg>
