<svg width="227" height="54" viewBox="0 0 227 54" fill="none" xmlns="http://www.w3.org/2000/svg">
<g clip-path="url(#clip0_592_413)">
<mask id="mask0_592_413" style="mask-type:luminance" maskUnits="userSpaceOnUse" x="0" y="0" width="227" height="54">
<path d="M227 0H0V54H227V0Z" fill="white"/>
</mask>
<g mask="url(#mask0_592_413)">
<path d="M67.617 0V14.7273H62.7872V0H57.9574V14.7273H53.1277V0H48.2979V14.7273H24.1489V0H19.3191V14.7273V19.6364H67.617V24.5455H62.7872H57.9574H14.4894V0H9.65957V24.5455H4.82979V0H0V24.5455V29.4545V54H4.82979V39.2727H9.65957V54H14.4894V39.2727H19.3191V54H24.1489V39.2727H48.2979V54H53.1277V39.2727V34.3636H14.4894H9.65957H4.82979V29.4545H9.65957H14.4894H57.9574V54H62.7872V29.4545H67.617V54H72.4468V29.4545V24.5455V19.6364V14.7273V0H67.617Z" fill="#3EF2D0"/>
<path d="M105.082 19.6367V24.9662H93.2848V19.6367H89.3516V34.2934H93.2848V28.964H105.082V34.2934H109.015V19.6367H105.082Z" fill="#3EF2D0"/>
<path d="M179.808 28.9648H175.875V34.2943H179.808V28.9648Z" fill="#3EF2D0"/>
<path d="M179.807 19.6367H175.874V24.9662H164.074V19.6367H160.141V34.2934H164.074V28.964H175.874L179.807 24.9662V19.6367Z" fill="#3EF2D0"/>
<path d="M129.988 19.6367H112.945V34.2934H116.879V28.964H128.678V34.2934H132.612V19.6367H129.988ZM116.879 24.9662V23.6346H128.678V24.9662H116.879Z" fill="#3EF2D0"/>
<path d="M156.213 23.6346V19.6367H140.48H139.17H136.547V34.2934H139.17H140.48H156.213V30.2956H140.48V23.6346H156.213Z" fill="#3EF2D0"/>
<path d="M203.405 23.6346V19.6367H187.672H186.362H183.742V34.2934H186.362H187.672H203.405V30.2956H187.672V28.964H203.405V24.9662H187.672V23.6346H203.405Z" fill="#3EF2D0"/>
<path d="M223.066 19.6367V28.964L211.269 19.6367H207.336V34.2934H211.269V24.9662L223.066 34.2934H226.999V19.6367H223.066Z" fill="#3EF2D0"/>
</g>
</g>
<defs>
<clipPath id="clip0_592_413">
<rect width="227" height="54" fill="white"/>
</clipPath>
</defs>
</svg>
