<svg width="243" height="52" viewBox="0 0 243 52" fill="none" xmlns="http://www.w3.org/2000/svg">
<path d="M84.3126 43.3239H75.3984V18.1719H84.3789C86.8974 18.1719 89.0845 18.6689 90.9072 19.6631C92.7297 20.6573 94.1547 22.1153 95.1157 23.9711C96.1099 25.8599 96.5738 28.0802 96.5738 30.6981C96.5738 33.3161 96.0767 35.5695 95.0826 37.4584C94.0884 39.3472 92.6966 40.7721 90.8409 41.7995C89.0514 42.8267 86.8643 43.3239 84.3126 43.3239ZM80.7006 38.7508H84.0807C86.4335 38.7508 88.223 38.1211 89.4491 36.8287C90.6752 35.5695 91.2717 33.5149 91.2717 30.6981C91.2717 27.9145 90.6752 25.8931 89.4491 24.6007C88.223 23.3415 86.4335 22.7118 84.0807 22.7118H80.7006V38.7508Z" fill="white"/>
<path d="M100.551 43.3257H94.8516L103.534 18.207H110.393L119.043 43.3257H113.343L111.487 37.5929H102.407L100.551 43.3257ZM103.766 33.4506H110.161L107.079 23.94H106.881L103.766 33.4506Z" fill="white"/>
<path d="M140.848 30.7658C140.848 33.5163 140.318 35.8359 139.291 37.758C138.264 39.68 136.839 41.138 135.082 42.1654C133.293 43.1595 131.305 43.6896 129.084 43.6896C126.864 43.6896 124.843 43.1926 123.086 42.1654C121.297 41.138 119.905 39.68 118.878 37.758C117.85 35.8359 117.32 33.5163 117.32 30.7989C117.32 28.0484 117.85 25.7288 118.878 23.8067C119.905 21.8847 121.297 20.4267 123.086 19.3994C124.876 18.4052 126.864 17.875 129.084 17.875C131.305 17.875 133.293 18.3721 135.082 19.3994C136.872 20.3935 138.264 21.8847 139.291 23.8067C140.351 25.6625 140.848 28.0153 140.848 30.7658ZM135.48 30.7658C135.48 28.1147 134.884 26.0602 133.724 24.6683C132.564 23.2765 131.006 22.5475 129.084 22.5475C127.162 22.5475 125.605 23.2434 124.445 24.6683C123.285 26.0933 122.689 28.1147 122.689 30.7658C122.689 33.4168 123.285 35.4714 124.445 36.8632C125.605 38.255 127.162 38.9841 129.084 38.9841C131.006 38.9841 132.564 38.2882 133.724 36.8632C134.884 35.4383 135.48 33.4168 135.48 30.7658Z" fill="white"/>
<path d="M147.969 18.1719H154.53L161.456 35.0724H161.754L168.68 18.1719H175.208V43.3239H170.039V26.9535H169.84L163.345 43.1912H159.832L153.337 26.8872H153.138V43.3239H147.969V18.1719Z" fill="white"/>
<path d="M182.935 43.6554C181.146 43.6554 179.654 43.1913 178.462 42.2303C177.268 41.3025 176.672 39.8775 176.672 38.0218C176.672 36.63 177.003 35.5033 177.666 34.708C178.329 33.9126 179.19 33.3161 180.284 32.9516C181.344 32.5871 182.504 32.322 183.763 32.2226C185.387 32.0569 186.58 31.8912 187.276 31.6924C187.972 31.4936 188.337 31.129 188.337 30.4994V30.4331C188.337 29.6709 188.105 29.0413 187.607 28.6437C187.11 28.2128 186.448 28.014 185.553 28.014C184.625 28.014 183.863 28.2128 183.3 28.6437C182.736 29.0413 182.372 29.5715 182.206 30.2012L177.368 29.8035C177.732 28.0803 178.627 26.7216 180.052 25.7275C181.477 24.7333 183.333 24.2031 185.586 24.2031C186.978 24.2031 188.303 24.4351 189.496 24.8659C190.723 25.2967 191.684 25.9926 192.446 26.9205C193.208 27.8483 193.573 29.0744 193.573 30.5657V43.324H188.602V40.7059H188.469C188.005 41.5677 187.343 42.2966 186.414 42.8601C185.487 43.3902 184.327 43.6554 182.935 43.6554ZM184.426 40.0764C185.586 40.0764 186.514 39.745 187.243 39.0822C187.972 38.4194 188.337 37.591 188.337 36.5968V34.6085C188.138 34.7411 187.806 34.8736 187.376 34.9731C186.945 35.0725 186.481 35.1719 186.017 35.2382C185.52 35.3044 185.089 35.3707 184.725 35.437C183.797 35.5696 183.068 35.8347 182.504 36.1992C181.941 36.5968 181.676 37.1602 181.676 37.8892C181.676 38.6183 181.941 39.1485 182.471 39.513C182.968 39.8775 183.631 40.0764 184.426 40.0764Z" fill="white"/>
<path d="M195.555 43.3239V18.1719H200.791V31.5929H201.089L207.12 24.435H213.118L206.126 32.587L213.483 43.2906H207.352L202.182 35.702L200.758 37.3258V43.3239H195.555Z" fill="white"/>
<path d="M221.04 43.6903C219.118 43.6903 217.461 43.2929 216.036 42.4975C214.645 41.7022 213.551 40.5754 212.822 39.1505C212.06 37.6924 211.695 35.9692 211.695 33.9809C211.695 32.0589 212.06 30.3357 212.822 28.8776C213.584 27.4195 214.645 26.2597 216.003 25.4644C217.362 24.6359 218.986 24.2383 220.842 24.2383C222.498 24.2383 223.99 24.6028 225.348 25.2987C226.674 25.9946 227.734 27.055 228.53 28.48C229.325 29.9049 229.723 31.6612 229.723 33.8152V35.2402H216.898C216.898 36.632 217.296 37.7587 218.058 38.554C218.82 39.3493 219.88 39.7801 221.173 39.7801C222.034 39.7801 222.797 39.5813 223.426 39.2168C224.056 38.8523 224.52 38.2889 224.785 37.593L229.623 37.9244C229.259 39.6807 228.331 41.0725 226.839 42.133C225.315 43.1602 223.393 43.6903 221.04 43.6903ZM216.865 31.9926H224.785C224.785 30.8659 224.42 29.938 223.691 29.209C222.962 28.48 222.068 28.1155 220.908 28.1155C219.748 28.1155 218.787 28.48 218.058 29.2422C217.329 30.0043 216.931 30.9322 216.865 31.9926Z" fill="white"/>
<path d="M231.016 43.324V24.4682H236.086V27.7489H236.284C236.616 26.5891 237.213 25.6943 238.008 25.0979C238.803 24.5014 239.764 24.2031 240.791 24.2031C241.388 24.2031 241.918 24.2694 242.448 24.402V29.0413C242.216 28.975 241.852 28.9088 241.421 28.8425C240.99 28.7762 240.593 28.7762 240.228 28.7762C239.068 28.7762 238.107 29.1407 237.378 29.8698C236.616 30.5988 236.251 31.5267 236.251 32.6865V43.324H231.016Z" fill="white"/>
<path d="M0 51.9103L23.0006 9.00057L43.2829 0L20.2823 42.9096L0 51.9103Z" fill="url(#paint0_linear_592_307)"/>
<path d="M22.9375 42.1012L40.4119 9.50781L50.329 19.3158L33.0935 51.9989L22.9375 42.1012Z" fill="url(#paint1_linear_592_307)"/>
<path d="M52.2705 20.3047L65.2047 25.0293L58.7526 36.9304L43.0703 37.4687L52.2705 20.3047Z" fill="url(#paint2_linear_592_307)"/>
<defs>
<linearGradient id="paint0_linear_592_307" x1="0.0465748" y1="51.8789" x2="66.7736" y2="-0.0466626" gradientUnits="userSpaceOnUse">
<stop stop-color="#48D5FF"/>
<stop offset="1" stop-color="#4086FF"/>
</linearGradient>
<linearGradient id="paint1_linear_592_307" x1="0.621215" y1="52.0223" x2="70.1122" y2="-0.0494337" gradientUnits="userSpaceOnUse">
<stop stop-color="#48D5FF"/>
<stop offset="1" stop-color="#4086FF"/>
</linearGradient>
<linearGradient id="paint2_linear_592_307" x1="0.332237" y1="51.8077" x2="67.7236" y2="1.00674" gradientUnits="userSpaceOnUse">
<stop stop-color="#48D5FF"/>
<stop offset="1" stop-color="#4086FF"/>
</linearGradient>
</defs>
</svg>
