<svg width="173" height="41" viewBox="0 0 173 41" fill="none" xmlns="http://www.w3.org/2000/svg">
<g clip-path="url(#clip0_592_459)">
<path d="M9.14911 27.5149V31.8922H13.569V30.7979H19.6463V40.4124C9.46482 39.8652 1.17749 31.5796 0.625 21.4961H10.333V27.4367L9.14911 27.5149Z" fill="white"/>
<path d="M27.9368 30.7979V31.8922H32.3567V27.5149H31.2516V21.5742H40.9597C40.4072 31.6577 32.041 39.8652 21.8594 40.4124V30.7979H27.9368Z" fill="white"/>
<path d="M61.3171 7.58203C58.0812 7.58203 55.2398 8.75458 53.2666 10.9432V8.05104H49.3203V38.9268H53.2666V27.749C55.3188 29.8595 58.1601 31.1102 61.3171 31.1102C67.947 31.1102 73.0773 25.9512 73.0773 19.3852C73.0773 12.7411 67.947 7.58203 61.3171 7.58203ZM61.2382 11.4122C65.6581 11.4122 69.2098 14.8515 69.2098 19.307C69.2098 23.7625 65.7371 27.2018 61.2382 27.2018C56.8184 27.2018 53.2666 23.7625 53.2666 19.307C53.2666 14.8515 56.7394 11.4122 61.2382 11.4122Z" fill="white"/>
<path d="M95.6542 10.8651C93.6023 8.75458 90.7612 7.58203 87.6041 7.58203C80.974 7.58203 75.8438 12.7411 75.8438 19.307C75.8438 25.873 81.0529 31.0319 87.6041 31.0319C90.7612 31.0319 93.6023 29.8595 95.6542 27.749V30.563H99.6797V7.97286H95.6542V10.8651ZM87.7616 27.2018C83.3418 27.2018 79.79 23.7625 79.79 19.307C79.79 14.8515 83.2629 11.4122 87.7616 11.4122C92.1813 11.4122 95.6542 14.8515 95.6542 19.307C95.6542 23.7625 92.1813 27.2018 87.7616 27.2018Z" fill="white"/>
<path d="M116.174 7.73828H115.228C112.702 7.73828 110.65 8.51994 109.15 10.0051V8.05094H105.203V30.641H109.15V18.2125C109.15 12.1156 113.807 11.6466 115.228 11.6466H116.174V7.73828Z" fill="white"/>
<path d="M128.248 17.5092C125.169 16.7275 123.354 16.1804 123.354 14.3825C123.354 12.3502 125.406 11.4122 127.459 11.4122C129.59 11.4122 131.326 12.3502 131.958 13.9917L132.352 15.0078L135.745 13.0537L135.43 12.272C134.089 9.30167 131.168 7.58203 127.459 7.58203C122.801 7.58203 119.408 10.4742 119.408 14.3825C119.408 19.0725 123.67 20.1668 127.143 21.1048C130.221 21.8865 132.115 22.5119 132.115 24.3096C132.115 26.4984 129.826 27.28 127.616 27.28C124.933 27.28 122.96 26.1856 122.328 24.2315L121.934 23.1372L118.461 25.1695L118.698 25.873C119.96 29.156 123.197 31.1102 127.537 31.1102C132.51 31.1102 135.982 28.2962 135.982 24.3096C135.982 19.4634 131.642 18.369 128.248 17.5092Z" fill="white"/>
<path d="M144.743 8.05078H140.797V30.6409H144.743V8.05078Z" fill="white"/>
<path d="M168.818 8.05104V10.9432C166.767 8.83274 163.925 7.58203 160.768 7.58203C154.138 7.58203 149.008 12.7411 149.008 19.307C149.008 25.873 154.217 31.032 160.768 31.032C164.004 31.032 166.845 29.8595 168.818 27.6708V38.8486H172.765V7.97286H168.818V8.05104ZM160.847 27.2018C156.427 27.2018 152.875 23.7625 152.875 19.307C152.875 14.8515 156.348 11.4122 160.847 11.4122C165.346 11.4122 168.818 14.8515 168.818 19.307C168.818 23.7625 165.346 27.2018 160.847 27.2018Z" fill="white"/>
<path d="M145.533 0H140.008V5.47166H145.533V0Z" fill="white"/>
<path d="M19.6463 10.2396H28.0126V8.91073H32.4325V13.7571H28.0126V12.4283H19.6463V21.4956L29.1175 21.5738V27.5144H28.0126V28.6088H13.569V27.5144H12.5429V13.2881H13.6479V8.91073H9.22804V13.2881H10.333V19.2287H0.625C1.17749 9.14528 9.54374 0.937794 19.6463 0.390625V10.2396Z" fill="white"/>
</g>
<defs>
<clipPath id="clip0_592_459">
<rect width="173" height="41" fill="white"/>
</clipPath>
</defs>
</svg>
