<svg width="137" height="43" viewBox="0 0 137 43" fill="none" xmlns="http://www.w3.org/2000/svg">
<path d="M65.568 41.2713H76.315V24.6423C76.315 21.3083 78.128 19.5473 80.676 19.5473C83.224 19.5473 84.864 21.2943 84.864 24.6423V41.2713H95.611V24.6423C95.611 21.3083 97.478 19.5473 100.025 19.5473C102.572 19.5473 104.213 21.2943 104.213 24.6423V41.2713H114.96V21.1883C114.96 14.0683 110.998 9.98828 104.492 9.98828C100.025 9.98828 96.917 11.9073 94.25 14.9633C92.609 11.7873 89.501 9.98828 85.422 9.98828C81.114 9.98828 78.288 12.3093 76.316 14.8573V10.6693H65.568V41.2693V41.2713ZM42.536 23.4533C43.097 20.1193 45.03 17.9073 47.857 17.9073C50.803 17.9073 52.779 20.0563 53.177 23.4533H42.536ZM48.763 42.0223C51.3145 42.1171 53.8518 41.6015 56.1639 40.5185C58.4761 39.4354 60.4965 37.8162 62.057 35.7953L56.126 30.8733C53.926 33.0223 51.885 33.9813 49.338 33.9813C47.8113 34.0866 46.2984 33.6332 45.0814 32.7055C43.8643 31.7778 43.0261 30.4393 42.723 28.9393H63.204C63.257 28.2053 63.257 27.4043 63.257 26.7393C63.257 17.7393 58.388 9.9913 47.814 9.9913C38.76 9.9913 32.371 17.0583 32.371 26.0053V26.1113C32.364 35.6203 39.148 42.0233 48.763 42.0233M0 41.2753H10.743V24.6953C10.743 21.3613 12.662 19.5473 15.263 19.5473C17.81 19.5473 19.571 21.3613 19.571 24.6953V41.2713H30.318V21.2553C30.318 14.2943 26.412 10.0003 19.903 10.0003C15.542 10.0003 12.716 12.4273 10.74 14.9753V10.6673H0V41.2753Z" fill="white"/>
<path d="M136.694 2.62029C136.625 7.19682 135.037 11.6207 132.18 15.1963C132.224 14.9117 132.246 14.6242 132.246 14.3363C132.246 13.3651 131.993 12.4107 131.513 11.5666C131.032 10.7225 130.341 10.0177 129.506 9.52127V9.52127L129.429 9.4773C128.455 8.9082 127.722 8.00308 127.367 6.93183C127.013 5.86058 127.062 4.69684 127.504 3.65897C127.947 2.6211 128.753 1.78047 129.772 1.29483C130.79 0.809195 131.951 0.711926 133.036 1.02129C134.304 1.43455 135.529 1.97007 136.694 2.62029V2.62029Z" fill="#66B7E7"/>
<path d="M129.752 0.240005C128.694 0.646321 127.783 1.3637 127.141 2.29765C126.498 3.23161 126.153 4.33832 126.152 5.472C126.152 6.59099 125.748 7.67233 125.013 8.51614C124.278 9.35995 123.262 9.90917 122.154 10.0623C121.045 10.2155 119.919 9.96217 118.983 9.34924C118.047 8.73632 117.364 7.8052 117.061 6.728C116.765 5.37817 116.605 4.00185 116.586 2.62001C119.659 0.903376 123.119 0.00143192 126.639 0C127.681 0.000295251 128.722 0.0805361 129.752 0.240005V0.240005Z" fill="#F9B500"/>
<path d="M131.273 14.3379C131.272 15.5428 130.803 16.7002 129.964 17.5649C128.942 18.4975 127.829 19.3244 126.641 20.0329C122.711 17.685 119.674 14.0966 118.008 9.83293C118.878 10.5354 119.938 10.9612 121.052 11.0553C122.166 11.1494 123.283 10.9075 124.258 10.3609V10.3609L124.311 10.3309C125.015 9.92177 125.814 9.70524 126.628 9.70314C127.442 9.70104 128.242 9.91344 128.948 10.319C129.654 10.7245 130.241 11.3088 130.649 12.0131C131.057 12.7174 131.273 13.5168 131.274 14.3309L131.273 14.3379Z" fill="#4FB9AC"/>
</svg>
