<svg width="201" height="50" viewBox="0 0 201 50" fill="none" xmlns="http://www.w3.org/2000/svg">
<path d="M57.0199 25.447C56.9611 23.8296 57.2303 22.2168 57.8113 20.7057C58.3923 19.1946 59.2732 17.8165 60.401 16.654C61.5287 15.4914 62.88 14.5684 64.3739 13.9406C65.8679 13.3127 67.4735 12.9928 69.0943 13.0001C75.2014 13.0001 78.816 16.5786 79.9066 20.7795L76.074 22.0708C75.7367 20.5047 74.8453 19.1123 73.5634 18.1492C72.2813 17.1861 70.6946 16.717 69.0943 16.8275C65.137 16.8275 61.1798 19.7058 61.1798 25.5248C61.1798 31.3438 65.0436 34.1132 69.1409 34.1132C70.7501 34.1598 72.3285 33.6653 73.6225 32.7088C74.9165 31.7523 75.8512 30.3894 76.2766 28.8388L80 30.0525C79.3626 32.4198 77.9331 34.4978 75.9491 35.9414C73.9651 37.3849 71.546 38.1069 69.0943 37.9872C67.4588 38.0178 65.8348 37.7107 64.3238 37.0849C62.8129 36.4592 61.4478 35.5285 60.3143 34.351C59.1805 33.1736 58.3027 31.7749 57.7358 30.2426C57.169 28.7104 56.9252 27.0778 57.0199 25.447Z" fill="white"/>
<path d="M87.0255 37H83V13H87.0255V22.4139C87.6119 21.7516 88.3476 21.2251 89.1776 20.8736C90.0078 20.5221 90.9105 20.355 91.8179 20.3846C95.9873 20.3846 98 23.2377 98 26.7928V37H94.0863V27.4488C94.1597 26.9843 94.1225 26.5097 93.9775 26.0607C93.8325 25.6117 93.5835 25.1997 93.249 24.8552C92.9143 24.5108 92.5029 24.2427 92.0449 24.0709C91.587 23.8993 91.0944 23.8282 90.6038 23.8634C90.117 23.8637 89.6356 23.9607 89.1899 24.1481C88.7444 24.3356 88.3445 24.6094 88.0156 24.9523C87.6866 25.295 87.436 25.6994 87.2793 26.1398C87.1225 26.5801 87.0634 27.0466 87.1054 27.5099L87.0255 37Z" fill="white"/>
<path d="M106.817 28.3088L110.897 27.6758C111.815 27.5552 112.071 27.0881 112.071 26.5305C112.071 25.1893 111.168 24.1043 109.06 24.1043C108.654 24.0693 108.245 24.1175 107.857 24.2456C107.47 24.3738 107.113 24.5793 106.807 24.8499C106.502 25.1205 106.254 25.4504 106.08 25.8196C105.906 26.1888 105.808 26.5896 105.794 26.9976L102.331 26.214C102.617 23.4564 105.116 21 109.03 21C113.938 21 115.804 23.7878 115.804 27.0277V34.9392C115.796 35.7973 115.861 36.6544 116 37.5009H112.462C112.341 36.8301 112.29 36.1481 112.312 35.4667C111.783 36.2774 111.053 36.9361 110.192 37.3774C109.331 37.8188 108.37 38.0276 107.404 37.9832C106.731 38.0386 106.053 37.9567 105.412 37.7426C104.771 37.5284 104.18 37.1862 103.675 36.7369C103.17 36.2875 102.761 35.7403 102.473 35.1283C102.185 34.5162 102.024 33.8521 102 33.1761C102 30.2677 104.092 28.7005 106.817 28.3088ZM112.071 30.8704V30.1472L107.916 30.7649C107.351 30.7843 106.816 31.0205 106.421 31.4245C106.026 31.8286 105.801 32.3695 105.794 32.935C105.798 33.2269 105.864 33.5146 105.985 33.78C106.107 34.0454 106.282 34.2825 106.5 34.4766C106.718 34.6706 106.974 34.8174 107.251 34.9073C107.529 34.9973 107.822 35.0287 108.112 34.9994C108.66 35.0555 109.214 34.9856 109.731 34.7953C110.248 34.6051 110.716 34.2993 111.097 33.9013C111.479 33.5034 111.765 33.0236 111.934 32.4984C112.102 31.9733 112.149 31.4166 112.071 30.8704Z" fill="white"/>
<path d="M122.454 13.0002C122.787 12.9961 123.117 13.0573 123.426 13.18C123.735 13.3025 124.016 13.4841 124.252 13.7145C124.489 13.9447 124.677 14.2188 124.806 14.5211C124.934 14.8233 125 15.1476 125 15.4753C125 16.1276 124.737 16.7533 124.268 17.2146C123.799 17.676 123.163 17.9352 122.5 17.9352C121.837 17.9352 121.201 17.676 120.732 17.2146C120.263 16.7533 120 16.1276 120 15.4753C120 14.8291 120.256 14.2084 120.715 13.7459C121.174 13.2836 121.798 13.0158 122.454 13.0002ZM120.579 37V21.0552H124.375V36.925L120.579 37Z" fill="white"/>
<path d="M133.017 37H129V21.4583H132.921V23.5295C133.43 22.7344 134.162 22.0801 135.04 21.6356C135.918 21.1909 136.91 20.9724 137.911 21.0028C142.023 21.0028 144 23.7498 144 27.1726V37H139.983V27.8042C139.983 25.8946 139.043 24.3521 136.524 24.3521C136.023 24.3549 135.528 24.4555 135.071 24.647C134.615 24.8386 134.208 25.117 133.877 25.4637C133.546 25.8105 133.298 26.218 133.15 26.6594C133.002 27.1007 132.956 27.566 133.017 28.0246V37Z" fill="white"/>
<path d="M149 37V13H153V37H149Z" fill="white"/>
<path d="M159.485 13C160.152 13 160.792 13.2607 161.263 13.725C161.736 14.1891 162 14.8186 162 15.4751C161.996 15.9602 161.847 16.4338 161.572 16.8361C161.296 17.2383 160.906 17.5512 160.45 17.7356C159.993 17.92 159.492 17.9674 159.008 17.872C158.525 17.7765 158.081 17.5426 157.732 17.1994C157.384 16.8563 157.146 16.4194 157.049 15.9435C156.952 15.4677 157 14.9745 157.187 14.5255C157.375 14.0767 157.693 13.6923 158.102 13.4209C158.51 13.1494 158.992 13.003 159.485 13ZM157.595 37V21.0551H161.405V36.925L157.595 37Z" fill="white"/>
<path d="M170.017 37H166V21.4578H169.906V23.529C170.416 22.736 171.149 22.0835 172.027 21.6392C172.904 21.1948 173.895 20.9751 174.895 21.0022C179.024 21.0022 181 23.7493 181 27.1722V37H176.983V27.8038C177.057 27.3566 177.02 26.8997 176.875 26.4674C176.73 26.035 176.482 25.6383 176.148 25.3066C175.814 24.9751 175.404 24.717 174.945 24.5515C174.489 24.3863 173.997 24.3178 173.507 24.3517C173.008 24.3543 172.513 24.4547 172.058 24.6465C171.602 24.8382 171.195 25.1168 170.865 25.464C170.535 25.811 170.29 26.2187 170.143 26.6601C169.997 27.1015 169.954 27.5664 170.017 28.0243V37Z" fill="white"/>
<path d="M194.34 27.6685L201 36.9848H196.365L191.7 30.3367L189.75 32.4257V37H186V13H189.75V27.3786L195.841 20.8527H200.866L194.34 27.6685Z" fill="white"/>
<path d="M21.4175 10.4168L33.776 17.474V31.6449L21.4515 38.7474L9.0931 31.7014V17.5304L21.4175 10.4168ZM21.4175 0L16.8823 2.61547L4.53521 9.72912L0 12.3446V17.553V31.7126V36.921L4.53521 39.514L16.8937 46.5712L21.4288 49.1641L25.9642 46.5487L38.2886 39.4351L42.8238 36.8309V31.6225V17.4515V12.2431L38.2886 9.65021L25.9301 2.59293L21.3949 0H21.4175Z" fill="#375BD2"/>
</svg>
