<svg width="310" height="71" viewBox="0 0 310 71" fill="none" xmlns="http://www.w3.org/2000/svg">
<path d="M70.1362 0.0351562H0.210938V69.9606H70.1362V0.0351562Z" fill="#D01F2A"/>
<path d="M51.4428 37.6289H40.8173H29.1748H15.0424L8.625 46.466H19.8467L10.4836 59.3359H24.1601L33.6284 46.466H45.0254L51.4428 37.6289Z" fill="white"/>
<path d="M18.8984 32.332H29.5591H41.2016H55.2989L61.7163 23.4949H50.2491L59.5421 10.625H45.8656L36.5375 23.4949H25.2808L18.8984 32.332Z" fill="white"/>
<path d="M89.8828 45.4113V25.7031H95.1079V33.0323H97.3523L102.122 25.7031H108.048L101.841 34.9961L108.469 45.4113H102.577L97.6328 37.8016H95.1079V45.4113H89.8828Z" fill="white"/>
<path d="M122.562 45.4113L127.928 25.7031H137.501L142.867 45.4113H137.501L136.52 41.4837H128.875L127.893 45.4113H122.562ZM129.997 36.96H135.362L133.679 30.4724H131.715L129.997 36.96Z" fill="white"/>
<path d="M156.055 30.5074V25.7031H173.659V30.5074H167.452V45.4464H162.227V30.5074H156.055Z" fill="white"/>
<path d="M188.281 30.5074V25.7031H205.885V30.5074H199.678V45.4464H194.453V30.5074H188.281Z" fill="white"/>
<path d="M219.102 45.4113L224.467 25.7031H234.04L239.406 45.4113H234.04L233.059 41.4837H225.449L224.467 45.4113H219.102ZM226.571 36.96H231.936L230.253 30.4724H228.289L226.571 36.96Z" fill="white"/>
<path d="M255.297 45.4113V25.7031H261.644L268.553 38.0822H268.833L268.412 35.5573V25.7031H273.637V45.4113H267.29L260.382 33.0323H260.101L260.522 35.5573V45.4113H255.297Z" fill="white"/>
<path d="M289.523 45.4113L294.889 25.7031H304.462L309.828 45.4113H304.462L303.48 41.4837H295.871L294.889 45.4113H289.523ZM296.958 36.96H302.323L300.64 30.4724H298.676L296.958 36.96Z" fill="white"/>
</svg>
