<svg width="168" height="40" viewBox="0 0 168 40" fill="none" xmlns="http://www.w3.org/2000/svg">
<mask id="mask0_864_223" style="mask-type:luminance" maskUnits="userSpaceOnUse" x="0" y="0" width="168" height="40">
<path d="M167.805 0H0V40H167.805V0Z" fill="white"/>
</mask>
<g mask="url(#mask0_864_223)">
<path fill-rule="evenodd" clip-rule="evenodd" d="M34.5937 6.13999L34.8042 7.41248C34.9701 8.59624 35.0469 9.79079 35.0341 10.9861C35.0327 13.6275 34.7141 16.2591 34.085 18.8245C33.2343 22.3098 31.7525 25.6098 29.7131 28.5612C27.3564 31.9508 23.9488 35.2847 18.9818 37.9635L18.3741 38.291L17.7665 37.9635C12.7995 35.2847 9.39332 31.9508 7.03523 28.5612C4.9958 25.6098 3.51405 22.3098 2.66328 18.8245C2.03435 16.2596 1.7157 13.6284 1.71419 10.9875C1.70135 9.79218 1.77822 8.59763 1.94415 7.41387L2.15459 6.14138C2.17255 6.03761 2.1698 5.9313 2.1465 5.82859C2.1232 5.72589 2.0798 5.62881 2.0188 5.54295C1.95781 5.45709 1.88043 5.38415 1.79112 5.32834C1.70181 5.27252 1.60234 5.23493 1.49844 5.21774C1.39454 5.20054 1.28827 5.20408 1.18574 5.22815C1.08321 5.25221 0.986463 5.29634 0.901064 5.35797C0.815665 5.4196 0.743307 5.49752 0.688159 5.58724C0.633011 5.67697 0.596163 5.77672 0.57974 5.88075L0.369296 7.15324C0.188284 8.42308 0.103957 9.70483 0.117041 10.9875C0.118044 13.7585 0.452135 16.5193 1.11212 19.2106C2.01052 22.8858 3.57448 26.3653 5.72657 29.4769C8.21428 33.0575 11.8225 36.5781 17.0153 39.3725L18.002 39.9035C18.1183 39.9664 18.2483 39.9993 18.3804 39.9993C18.5125 39.9993 18.6426 39.9664 18.7588 39.9035L19.7441 39.3725C24.9314 36.5767 28.541 33.0575 31.0329 29.4769C33.1839 26.3655 34.7469 22.8865 35.6445 19.212C36.3045 16.5207 36.6386 13.7599 36.6396 10.9889C36.6527 9.70623 36.5683 8.42448 36.3874 7.15464L36.1769 5.88215C36.1605 5.77811 36.1236 5.67836 36.0685 5.58864C36.0134 5.49891 35.941 5.42099 35.8556 5.35936C35.7702 5.29773 35.6734 5.25361 35.5709 5.22954C35.4684 5.20547 35.3621 5.20194 35.2582 5.21913C35.1543 5.23633 35.0548 5.27391 34.9655 5.32973C34.8762 5.38554 34.7988 5.45848 34.7379 5.54434C34.6769 5.6302 34.6335 5.72728 34.6102 5.82999C34.5869 5.9327 34.5841 6.039 34.6021 6.14278L34.5937 6.13999Z" fill="white"/>
<path fill-rule="evenodd" clip-rule="evenodd" d="M6.51558 5.27351L18.3761 1.64979L30.5014 5.35156C30.7044 5.41225 30.9232 5.39005 31.1099 5.28982C31.2965 5.18959 31.4359 5.0195 31.4974 4.81676C31.559 4.61402 31.5377 4.39516 31.4383 4.20806C31.3389 4.02096 31.1694 3.88087 30.9669 3.81845L18.6088 0.0456035C18.4572 -0.000878237 18.295 -0.000878237 18.1433 0.0456035L6.04869 3.73761C5.94761 3.76783 5.85351 3.81771 5.77176 3.88439C5.69002 3.95108 5.62226 4.03325 5.57235 4.12619C5.52245 4.21913 5.4914 4.32102 5.48097 4.42599C5.47055 4.53097 5.48096 4.63697 5.51161 4.73791C5.54226 4.83886 5.59254 4.93275 5.65957 5.01421C5.7266 5.09567 5.80906 5.16308 5.90222 5.21259C5.99537 5.26209 6.09739 5.29271 6.2024 5.30269C6.30742 5.31266 6.41338 5.3018 6.51419 5.27072L6.51558 5.27351Z" fill="white"/>
<path fill-rule="evenodd" clip-rule="evenodd" d="M0.658965 6.37495L17.6629 39.5629C17.7292 39.6926 17.8298 39.8017 17.9537 39.8782C18.0776 39.9548 18.2201 39.996 18.3658 39.9973C18.5114 39.9986 18.6546 39.96 18.7799 39.8856C18.9051 39.8112 19.0076 39.7039 19.0762 39.5754L29.4458 20.1814L29.4611 20.1508L36.0983 6.35265C36.1882 6.16223 36.1994 5.944 36.1293 5.7454C36.0593 5.5468 35.9137 5.38387 35.7241 5.29205C35.5346 5.20023 35.3165 5.18692 35.1172 5.25503C34.9179 5.32314 34.7536 5.46716 34.6599 5.65577L28.0339 19.4427L18.3974 37.4778L2.07921 5.64462C2.03218 5.55011 1.96687 5.46586 1.88704 5.39677C1.80722 5.32768 1.71448 5.27511 1.61419 5.24212C1.51391 5.20912 1.40808 5.19636 1.30282 5.20456C1.19757 5.21277 1.09499 5.24178 1.00103 5.28991C0.907066 5.33804 0.823591 5.40434 0.755437 5.48497C0.687284 5.56559 0.635808 5.65894 0.603992 5.7596C0.572176 5.86027 0.560652 5.96624 0.570088 6.07139C0.579525 6.17654 0.609734 6.27877 0.658965 6.37216V6.37495Z" fill="white"/>
<path fill-rule="evenodd" clip-rule="evenodd" d="M8.7984 21.1544H27.7072C27.9188 21.1544 28.1217 21.0704 28.2714 20.9207C28.421 20.7711 28.5051 20.5682 28.5051 20.3565C28.5051 20.1449 28.421 19.942 28.2714 19.7923C28.1217 19.6427 27.9188 19.5586 27.7072 19.5586H8.7984C8.58678 19.5586 8.38383 19.6427 8.23419 19.7923C8.08456 19.942 8.00049 20.1449 8.00049 20.3565C8.00049 20.5682 8.08456 20.7711 8.23419 20.9207C8.38383 21.0704 8.58678 21.1544 8.7984 21.1544ZM61.5399 14.2694H49.2389C49.0263 14.2705 48.8227 14.3555 48.6724 14.5058C48.5221 14.6561 48.4372 14.8596 48.4361 15.0722V24.9454C48.4375 25.1578 48.5226 25.3612 48.6728 25.5114C48.823 25.6617 49.0264 25.7467 49.2389 25.7482H61.5399V27.4206H49.2389C48.9143 27.4221 48.5927 27.3593 48.2925 27.2358C47.9924 27.1122 47.7197 26.9305 47.4902 26.701C47.2607 26.4715 47.079 26.1988 46.9554 25.8987C46.8319 25.5985 46.7691 25.2769 46.7706 24.9524V15.0792C46.7691 14.7546 46.8319 14.433 46.9554 14.1329C47.079 13.8327 47.2607 13.56 47.4902 13.3305C47.7197 13.101 47.9924 12.9193 48.2925 12.7958C48.5927 12.6722 48.9143 12.6094 49.2389 12.6109H61.5399V14.2694ZM84.6382 12.6025V14.275H72.7915V19.1628H82.3134V20.8492H72.7901V25.7454H84.6368V27.4179H71.1176V12.6025H84.6382Z" fill="white"/>
<path d="M109.033 15.0914V19.4315C109.035 19.756 108.972 20.0775 108.848 20.3776C108.724 20.6776 108.543 20.9503 108.313 21.1797C108.084 21.4092 107.811 21.5909 107.511 21.7145C107.211 21.8381 106.889 21.9011 106.565 21.8998H104.303L108.951 27.412H106.75L102.122 21.8998H96.6862C96.4174 21.8861 96.1494 21.8587 95.8834 21.8176V27.412H94.2109V12.6231H106.552C106.877 12.6218 107.198 12.6848 107.498 12.8084C107.799 12.932 108.071 13.1137 108.301 13.3432C108.53 13.5727 108.712 13.8453 108.835 14.1453C108.959 14.4454 109.022 14.7669 109.021 15.0914H109.033ZM96.6918 20.2134H106.565C106.668 20.2147 106.77 20.1954 106.866 20.1565C106.961 20.1177 107.048 20.0602 107.121 19.9873C107.194 19.9144 107.251 19.8277 107.29 19.7323C107.329 19.6368 107.348 19.5345 107.347 19.4315V15.0914C107.348 14.9869 107.329 14.883 107.291 14.7859C107.252 14.6888 107.194 14.6003 107.121 14.5256C107.05 14.4491 106.964 14.3884 106.868 14.3476C106.772 14.3067 106.668 14.2867 106.564 14.2886H96.6904C96.4778 14.2897 96.2743 14.3747 96.1239 14.525C95.9736 14.6753 95.8887 14.8789 95.8876 15.0914V19.4315C95.8854 19.5359 95.9054 19.6395 95.9463 19.7356C95.9871 19.8317 96.0479 19.9181 96.1245 19.989C96.1994 20.0622 96.2881 20.1198 96.3855 20.1583C96.4829 20.1969 96.587 20.2156 96.6918 20.2134Z" fill="white"/>
<path fill-rule="evenodd" clip-rule="evenodd" d="M117.879 12.6025H132.683V14.275H126.133V27.4192H124.46V14.275H117.879V12.6025ZM141.656 27.4123V12.6025H143.329V27.4123H141.656ZM165.557 12.6025H167.697L161.506 20.0074L167.717 27.4123H165.557L160.045 20.8506H155.273V27.4123H153.589V12.6025H155.276V19.1628H160.048L165.557 12.6025Z" fill="white"/>
</g>
</svg>
