<svg width="600" height="173" viewBox="0 0 600 173" fill="none" xmlns="http://www.w3.org/2000/svg">
<path d="M577 0.5V36.4L540.6 0.5H522.2V71.6H544.8V35.2L581.4 71.6H599.5V0.5H577Z" fill="white"/>
<path d="M228.8 71.6H288.5V51.8H228.8V20.6H288.6V0.5H228.8H208.8H206.4V71.6H208.8H228.8Z" fill="white"/>
<path d="M440 71.6H495.1V53.7H440V43.9H495.1V28H440V18.4H495.1V0.5H440H419.5H417.7V71.6H419.9H440Z" fill="white"/>
<path d="M126.5 55.6004H159.7V71.7004H181.9V0.400391H104.3V71.5004H126.6V55.6004H126.5ZM126.5 20.2004H159.7V36.0004H126.5V20.2004Z" fill="white"/>
<path d="M22.3 46.3H54.9V71.6H77.3V0.5H54.9V25.3H22.3V0.5H0V71.6H22.3V46.3Z" fill="white"/>
<path d="M334.7 49.4H369.2L391.4 28.3H391.5V0.5H369.2V28.3H334.7V0.5H312.4V71.6H334.7V49.4Z" fill="white"/>
<path d="M391.6 49.4004H369.3V71.6004H391.6V49.4004Z" fill="white"/>
<path d="M74.2 98.3008H0V169.401H22.3V153.301H77.5V98.3008H74.2ZM55.3 133.801H22.3V118.001H55.5L55.3 133.801Z" fill="white"/>
<path d="M161.2 149.301V169.501H181.9V149.301H161.2Z" fill="white"/>
<path d="M181.8 98.3008H104.4V169.501H126.8V149.301H161.3L182 128.201L181.8 98.3008ZM159.7 131.301H126.5V115.801H159.7V131.301Z" fill="white"/>
<path d="M495.1 98.3008H440H422.6H417.8V129.301V149.101V169.401H440V149.101H495.1V129.301H440V118.001H495.1V98.3008Z" fill="white"/>
<path d="M266.3 98.3008H206.4V169.401H288.6V98.3008H266.3ZM266.3 149.201H228.8V118.001H266.3V149.201Z" fill="white"/>
<path d="M391.7 98.3008H312.3V169.401H391.7V118.301V98.3008ZM369.4 149.201H334.6V118.001H369.4V149.201Z" fill="white"/>
<path d="M563.569 151.006C573 149.476 579.405 140.589 577.874 131.158C576.344 121.727 567.457 115.322 558.026 116.853C548.595 118.383 542.19 127.27 543.721 136.701C545.251 146.132 554.138 152.537 563.569 151.006Z" fill="#F13F2D"/>
<path d="M597.4 121.901V122.301L600 121.501V121.101C596 109.101 586.8 99.6008 574.9 95.3008H574.5L573.6 97.9008H574C585.1 101.901 593.7 110.801 597.4 121.901Z" fill="white"/>
<path d="M597.1 146.8C593.1 157.8 584.4 166.5 573.3 170.4H572.9L573.8 173H574.2C586.1 168.9 595.4 159.6 599.7 147.7V147.3L597.1 146.4V146.8Z" fill="white"/>
<path d="M524.3 146.1V145.7L521.7 146.6V147C525.8 159.2 535.3 168.8 547.5 173H547.9L548.8 170.4H548.4C537.1 166.5 528.2 157.5 524.3 146.1Z" fill="white"/>
<path d="M524.5 121.3C528.5 109.9 537.6 101 549.1 97.3002H549.5L548.7 94.7002H548.3C536 98.7002 526.2 108.3 521.9 120.5V120.9L524.5 121.8V121.3Z" fill="white"/>
</svg>
