<svg width="4525" height="1364" viewBox="0 0 4525 1364" fill="none" xmlns="http://www.w3.org/2000/svg">
<path fill-rule="evenodd" clip-rule="evenodd" d="M1217.8 109.6V763.1C1217.8 916.4 1135.3 1059.4 1002.5 1136.2L608.9 1363.5L215.4 1136.3C82.6 1059.4 0 916.4 0 763.1V110.3L97.2 79.4002C262.7 26.7 434.8 0 608.9 0C742.3 0 876 16 1006.2 47.6L1007.8 46.7L1036.8 55.3C1069 63.8002 1095.7 71.5002 1120.6 79.4002L1217.8 109.6ZM861.3 131.2C613.5 91.0002 364.7 110.4 130.8 184.8L110.8 191.2V763.1C110.8 877 172.1 983.3 270.9 1040.5L608.9 1235.6L947.1 1040.4C1045.8 983.3 1107.1 877 1107.1 763.1V756.3L608.9 1043.9L276.8 852.2V468.7L861.3 131.2ZM938.9 282.8L892.8 203L813 249L829.4 277.5L387.5 532.6V788.2L608.9 916L1004.9 687.4L1021.3 715.8L1101.1 669.8L1055 590L975.3 636L991.7 664.4L830.3 757.6V547.9L989.2 456.2L1005.6 484.6L1085.3 438.5L1039.3 358.7L959.5 404.8L975.9 433.2L817.1 524.9L635.5 420.1L842.7 300.4L859.1 328.8L938.9 282.8Z" fill="white"/>
<path d="M2008.62 599.7H1968.56C1965.58 584.785 1960.18 571.007 1952.37 558.365C1944.7 545.581 1935.04 534.43 1923.39 524.913C1911.74 515.396 1898.53 508.01 1883.76 502.754C1868.99 497.498 1853.01 494.871 1835.82 494.871C1808.26 494.871 1783.12 502.044 1760.39 516.391C1737.81 530.737 1719.7 551.831 1706.06 579.672C1692.57 607.371 1685.82 641.32 1685.82 681.518C1685.82 722.001 1692.57 756.092 1706.06 783.791C1719.7 811.49 1737.81 832.513 1760.39 846.859C1783.12 861.064 1808.26 868.166 1835.82 868.166C1853.01 868.166 1868.99 865.538 1883.76 860.283C1898.53 855.027 1911.74 847.712 1923.39 838.337C1935.04 828.82 1944.7 817.669 1952.37 804.885C1960.18 792.101 1965.58 778.251 1968.56 763.337H2008.62C2005.07 783.365 1998.39 802.044 1988.59 819.373C1978.93 836.561 1966.57 851.618 1951.51 864.544C1936.6 877.47 1919.41 887.555 1899.95 894.8C1880.49 902.044 1859.11 905.666 1835.82 905.666C1799.17 905.666 1766.64 896.504 1738.23 878.18C1709.82 859.714 1687.52 833.72 1671.33 800.197C1655.28 766.675 1647.25 727.115 1647.25 681.518C1647.25 635.922 1655.28 596.362 1671.33 562.839C1687.52 529.317 1709.82 503.393 1738.23 485.069C1766.64 466.604 1799.17 457.371 1835.82 457.371C1859.11 457.371 1880.49 460.993 1899.95 468.237C1919.41 475.339 1936.6 485.425 1951.51 498.493C1966.57 511.419 1978.93 526.476 1988.59 543.663C1998.39 560.851 2005.07 579.53 2008.62 599.7ZM2211.3 463.337H2257.32L2386.65 670.439H2390.49L2519.82 463.337H2565.84L2408.39 710.709V899.7H2368.75V710.709L2211.3 463.337ZM2790.68 899.7V463.337H3043.17V499.132H2830.53V663.408H3023.35V699.203H2830.53V899.7H2790.68ZM3292.25 899.7V463.337H3433.08C3464.05 463.337 3489.9 468.947 3510.64 480.169C3531.52 491.248 3547.22 506.66 3557.73 526.405C3568.38 546.007 3573.71 568.521 3573.71 593.947C3573.71 619.373 3568.38 641.817 3557.73 661.277C3547.22 680.737 3531.59 695.936 3510.85 706.873C3490.11 717.811 3464.4 723.28 3433.72 723.28H3313.77V686.845H3432.66C3455.38 686.845 3474.28 683.081 3489.33 675.552C3504.53 668.024 3515.83 657.3 3523.21 643.379C3530.74 629.459 3534.5 612.981 3534.5 593.947C3534.5 574.913 3530.74 558.294 3523.21 544.089C3515.68 529.743 3504.32 518.663 3489.12 510.851C3474.06 503.038 3455.03 499.132 3432.02 499.132H3332.09V899.7H3292.25ZM3484.65 702.825L3592.03 899.7H3546.01L3439.69 702.825H3484.65ZM3860.6 463.337V899.7H3820.76V463.337H3860.6ZM4466.46 463.337V899.7H4427.69L4169.87 534.288H4166.46V899.7H4126.62V463.337H4165.19L4423.85 829.175H4427.26V463.337H4466.46Z" fill="white"/>
</svg>
