<svg width="1302" height="1216" viewBox="0 0 1302 1216" fill="none" xmlns="http://www.w3.org/2000/svg">
<path d="M362.888 274.137V326.451C362.888 327.756 361.829 328.833 360.5 328.833H330.703C312.928 328.833 298.518 343.212 298.518 360.947V390.677C298.518 391.983 297.459 393.06 296.13 393.06H243.72C242.412 393.06 241.332 392.003 241.332 390.677V338.364C241.332 337.058 242.391 335.981 243.72 335.981H273.517C291.292 335.981 305.702 321.603 305.702 303.868V274.137C305.702 272.832 306.761 271.754 308.09 271.754H360.521C361.829 271.754 362.909 272.811 362.909 274.137H362.888Z" fill="white"/>
<path d="M491.584 519.056V466.743C491.584 465.437 490.525 464.36 489.196 464.36H459.399C441.625 464.36 427.214 449.982 427.214 432.247V402.516C427.214 401.211 426.155 400.133 424.826 400.133H372.396C371.088 400.133 370.008 401.19 370.008 402.516V454.83C370.008 456.135 371.067 457.212 372.396 457.212H402.193C419.967 457.212 434.378 471.591 434.378 489.326V519.056C434.378 520.362 435.437 521.439 436.766 521.439H489.196C490.505 521.439 491.584 520.382 491.584 519.056Z" fill="white"/>
<path d="M362.888 583.299V530.985C362.888 529.68 361.829 528.603 360.5 528.603H330.703C312.928 528.603 298.518 514.224 298.518 496.489V466.759C298.518 465.453 297.459 464.376 296.13 464.376H243.72C242.412 464.376 241.332 465.433 241.332 466.759V519.072C241.332 520.378 242.391 521.455 243.72 521.455H273.517C291.292 521.455 305.702 535.833 305.702 553.568V583.299C305.702 584.604 306.761 585.682 308.09 585.682H360.521C361.829 585.682 362.909 584.625 362.909 583.299H362.888Z" fill="white"/>
<path d="M296.15 400.178H243.72C242.401 400.178 241.332 401.245 241.332 402.561V454.875C241.332 456.19 242.401 457.257 243.72 457.257H296.15C297.469 457.257 298.538 456.19 298.538 454.875V402.561C298.538 401.245 297.469 400.178 296.15 400.178Z" fill="white"/>
<path d="M424.738 271.754H372.308C370.989 271.754 369.92 272.821 369.92 274.137V326.451C369.92 327.767 370.989 328.833 372.308 328.833H424.738C426.057 328.833 427.126 327.767 427.126 326.451V274.137C427.126 272.821 426.057 271.754 424.738 271.754Z" fill="white"/>
<path d="M489.033 271.754H436.603C435.284 271.754 434.215 272.821 434.215 274.137V326.451C434.215 327.767 435.284 328.833 436.603 328.833H489.033C490.352 328.833 491.421 327.767 491.421 326.451V274.137C491.421 272.821 490.352 271.754 489.033 271.754Z" fill="white"/>
<path d="M424.846 528.595H372.415C371.096 528.595 370.027 529.661 370.027 530.977V583.291C370.027 584.607 371.096 585.674 372.415 585.674H424.846C426.165 585.674 427.234 584.607 427.234 583.291V530.977C427.234 529.661 426.165 528.595 424.846 528.595Z" fill="white"/>
<path d="M489.19 528.595H436.759C435.44 528.595 434.371 529.661 434.371 530.977V583.291C434.371 584.607 435.44 585.674 436.759 585.674H489.19C490.508 585.674 491.577 584.607 491.577 583.291V530.977C491.577 529.661 490.508 528.595 489.19 528.595Z" fill="white"/>
<path d="M646.846 941.752V889.438C646.846 888.133 645.787 887.055 644.458 887.055H614.661C596.886 887.055 582.476 872.677 582.476 854.942V825.211C582.476 823.906 581.417 822.829 580.088 822.829H527.657C526.349 822.829 525.27 823.885 525.27 825.211V877.525C525.27 878.83 526.328 879.908 527.657 879.908H557.455C575.229 879.908 589.64 894.286 589.64 912.021V941.752C589.64 943.057 590.699 944.134 592.028 944.134H644.458C645.766 944.134 646.846 943.078 646.846 941.752Z" fill="#FFD900"/>
<path d="M653.994 941.752V889.438C653.994 888.133 655.053 887.055 656.382 887.055H686.179C703.954 887.055 718.364 872.677 718.364 854.942V825.211C718.364 823.906 719.423 822.829 720.752 822.829H773.183C774.491 822.829 775.571 823.885 775.571 825.211V877.525C775.571 878.83 774.512 879.908 773.183 879.908H743.386C725.611 879.908 711.2 894.286 711.2 912.021V941.752C711.2 943.057 710.142 944.134 708.813 944.134H656.382C655.074 944.134 653.994 943.078 653.994 941.752Z" fill="#FFD900"/>
<path d="M580.107 630.208H527.677C526.358 630.208 525.289 631.275 525.289 632.591V684.904C525.289 686.22 526.358 687.287 527.677 687.287H580.107C581.426 687.287 582.495 686.22 582.495 684.904V632.591C582.495 631.275 581.426 630.208 580.107 630.208Z" fill="#FFD900"/>
<path d="M773.176 630.208H720.745C719.427 630.208 718.357 631.275 718.357 632.591V684.904C718.357 686.22 719.427 687.287 720.745 687.287H773.176C774.495 687.287 775.564 686.22 775.564 684.904V632.591C775.564 631.275 774.495 630.208 773.176 630.208Z" fill="#FFD900"/>
<path d="M580.107 758.632H527.677C526.358 758.632 525.289 759.699 525.289 761.014V813.328C525.289 814.644 526.358 815.711 527.677 815.711H580.107C581.426 815.711 582.495 814.644 582.495 813.328V761.014C582.495 759.699 581.426 758.632 580.107 758.632Z" fill="#FFD900"/>
<path d="M773.176 758.632H720.745C719.427 758.632 718.357 759.699 718.357 761.014V813.328C718.357 814.644 719.427 815.711 720.745 815.711H773.176C774.495 815.711 775.564 814.644 775.564 813.328V761.014C775.564 759.699 774.495 758.632 773.176 758.632Z" fill="#FFD900"/>
<path d="M773.176 694.406H720.745C719.427 694.406 718.357 695.472 718.357 696.788V749.102C718.357 750.418 719.427 751.485 720.745 751.485H773.176C774.495 751.485 775.564 750.418 775.564 749.102V696.788C775.564 695.472 774.495 694.406 773.176 694.406Z" fill="#FFD900"/>
<path d="M580.107 694.406H527.677C526.358 694.406 525.289 695.472 525.289 696.788V749.102C525.289 750.418 526.358 751.485 527.677 751.485H580.107C581.426 751.485 582.495 750.418 582.495 749.102V696.788C582.495 695.472 581.426 694.406 580.107 694.406Z" fill="#FFD900"/>
<path d="M526.207 519.056V466.743C526.207 465.437 527.266 464.36 528.595 464.36H558.392C576.167 464.36 590.577 449.982 590.577 432.247V402.516C590.577 401.211 591.636 400.133 592.965 400.133H645.396C646.704 400.133 647.784 401.19 647.784 402.516V454.83C647.784 456.135 646.725 457.212 645.396 457.212H615.598C597.824 457.212 583.413 471.591 583.413 489.326V519.056C583.413 520.362 582.354 521.439 581.025 521.439H528.595C527.287 521.439 526.207 520.382 526.207 519.056Z" fill="white"/>
<path d="M712.109 425.132V432.259C712.109 449.994 726.519 464.372 744.294 464.372H774.091C775.42 464.372 776.479 465.429 776.479 466.755V519.069C776.479 520.395 775.42 521.451 774.091 521.451H721.66C720.332 521.451 719.272 520.395 719.272 519.069V489.338C719.272 471.603 704.862 457.225 687.087 457.225H657.29C655.961 457.225 654.902 456.168 654.902 454.842V402.528C654.902 401.202 655.961 400.146 657.29 400.146H687.087C704.862 400.146 719.272 385.767 719.272 368.032V360.905C719.272 343.17 704.862 328.792 687.087 328.792H657.29C655.961 328.792 654.902 327.735 654.902 326.409V274.137C654.902 272.811 655.961 271.754 657.29 271.754H709.721C711.05 271.754 712.109 272.811 712.109 274.137V303.868C712.109 321.603 726.519 335.981 744.294 335.981H774.091C775.42 335.981 776.479 337.038 776.479 338.364V390.677C776.479 392.003 775.42 393.06 774.091 393.06H744.294C726.519 393.06 712.109 407.439 712.109 425.173V425.132Z" fill="white"/>
<path d="M581.025 528.595H528.595C527.276 528.595 526.207 529.661 526.207 530.977V583.291C526.207 584.607 527.276 585.674 528.595 585.674H581.025C582.344 585.674 583.413 584.607 583.413 583.291V530.977C583.413 529.661 582.344 528.595 581.025 528.595Z" fill="white"/>
<path d="M581.025 335.952H528.595C527.276 335.952 526.207 337.019 526.207 338.335V390.648C526.207 391.964 527.276 393.031 528.595 393.031H581.025C582.344 393.031 583.413 391.964 583.413 390.648V338.335C583.413 337.019 582.344 335.952 581.025 335.952Z" fill="white"/>
<path d="M581.025 271.754H528.595C527.276 271.754 526.207 272.821 526.207 274.137V326.451C526.207 327.767 527.276 328.833 528.595 328.833H581.025C582.344 328.833 583.413 327.767 583.413 326.451V274.137C583.413 272.821 582.344 271.754 581.025 271.754Z" fill="white"/>
<path d="M645.369 271.754H592.939C591.62 271.754 590.551 272.821 590.551 274.137V326.451C590.551 327.767 591.62 328.833 592.939 328.833H645.369C646.688 328.833 647.757 327.767 647.757 326.451V274.137C647.757 272.821 646.688 271.754 645.369 271.754Z" fill="white"/>
<path d="M774.065 528.595H721.634C720.315 528.595 719.246 529.661 719.246 530.977V583.291C719.246 584.607 720.315 585.674 721.634 585.674H774.065C775.383 585.674 776.452 584.607 776.452 583.291V530.977C776.452 529.661 775.383 528.595 774.065 528.595Z" fill="white"/>
<path d="M583.413 433.866V402.561C583.413 401.256 582.354 400.178 581.025 400.178H528.595C527.287 400.178 526.207 401.235 526.207 402.561V454.875C526.207 456.18 527.266 457.257 528.595 457.257H559.97C572.927 457.257 583.413 446.774 583.413 433.866Z" fill="white"/>
<path d="M240.146 877.51V825.196C240.146 823.891 241.205 822.814 242.534 822.814H272.332C290.106 822.814 304.517 808.435 304.517 790.7V760.97C304.517 759.664 305.576 758.587 306.905 758.587H359.335C360.643 758.587 361.723 759.644 361.723 760.97V813.283C361.723 814.588 360.664 815.666 359.335 815.666H329.538C311.763 815.666 297.353 830.044 297.353 847.779V877.51C297.353 878.815 296.294 879.893 294.965 879.893H242.534C241.226 879.893 240.146 878.836 240.146 877.51Z" fill="#FFD900"/>
<path d="M294.965 887.049H242.534C241.216 887.049 240.146 888.116 240.146 889.431V941.745C240.146 943.061 241.216 944.128 242.534 944.128H294.965C296.284 944.128 297.353 943.061 297.353 941.745V889.431C297.353 888.116 296.284 887.049 294.965 887.049Z" fill="#FFD900"/>
<path d="M294.965 694.406H242.534C241.216 694.406 240.146 695.473 240.146 696.789V749.103C240.146 750.418 241.216 751.485 242.534 751.485H294.965C296.284 751.485 297.353 750.418 297.353 749.103V696.789C297.353 695.473 296.284 694.406 294.965 694.406Z" fill="#FFD900"/>
<path d="M294.965 630.208H242.534C241.216 630.208 240.146 631.275 240.146 632.591V684.905C240.146 686.221 241.216 687.287 242.534 687.287H294.965C296.284 687.287 297.353 686.221 297.353 684.905V632.591C297.353 631.275 296.284 630.208 294.965 630.208Z" fill="#FFD900"/>
<path d="M359.309 630.208H306.878C305.559 630.208 304.49 631.275 304.49 632.591V684.905C304.49 686.221 305.559 687.287 306.878 687.287H359.309C360.627 687.287 361.697 686.221 361.697 684.905V632.591C361.697 631.275 360.627 630.208 359.309 630.208Z" fill="#FFD900"/>
<path d="M423.504 630.208H371.073C369.755 630.208 368.686 631.275 368.686 632.591V684.905C368.686 686.221 369.755 687.287 371.073 687.287H423.504C424.823 687.287 425.892 686.221 425.892 684.905V632.591C425.892 631.275 424.823 630.208 423.504 630.208Z" fill="#FFD900"/>
<path d="M488.336 630.208H435.905C434.587 630.208 433.518 631.275 433.518 632.591V684.905C433.518 686.221 434.587 687.287 435.905 687.287H488.336C489.655 687.287 490.724 686.221 490.724 684.905V632.591C490.724 631.275 489.655 630.208 488.336 630.208Z" fill="#FFD900"/>
<path d="M423.504 758.632H371.073C369.755 758.632 368.686 759.699 368.686 761.015V813.329C368.686 814.645 369.755 815.711 371.073 815.711H423.504C424.823 815.711 425.892 814.645 425.892 813.329V761.015C425.892 759.699 424.823 758.632 423.504 758.632Z" fill="#FFD900"/>
<path d="M488.336 758.632H435.905C434.587 758.632 433.518 759.699 433.518 761.015V813.329C433.518 814.645 434.587 815.711 435.905 815.711H488.336C489.655 815.711 490.724 814.645 490.724 813.329V761.015C490.724 759.699 489.655 758.632 488.336 758.632Z" fill="#FFD900"/>
<path d="M297.353 792.32V761.015C297.353 759.71 296.294 758.632 294.965 758.632H242.534C241.226 758.632 240.146 759.689 240.146 761.015V813.329C240.146 814.634 241.205 815.711 242.534 815.711H273.91C286.867 815.711 297.353 805.228 297.353 792.32Z" fill="#FFD900"/>
<path d="M932.596 274.137V326.451C932.596 327.756 931.537 328.833 930.208 328.833H900.411C882.637 328.833 868.226 343.212 868.226 360.947V390.677C868.226 391.983 867.167 393.06 865.838 393.06H813.408C812.099 393.06 811.02 392.003 811.02 390.677V338.364C811.02 337.058 812.079 335.981 813.408 335.981H843.205C860.979 335.981 875.39 321.603 875.39 303.868V274.137C875.39 272.832 876.449 271.754 877.778 271.754H930.208C931.516 271.754 932.596 272.811 932.596 274.137Z" fill="white"/>
<path d="M932.596 402.561V454.875C932.596 456.18 931.537 457.257 930.208 457.257H900.411C882.637 457.257 868.226 471.636 868.226 489.37V519.101C868.226 520.406 867.167 521.484 865.838 521.484H813.408C812.099 521.484 811.02 520.427 811.02 519.101V466.788C811.02 465.482 812.079 464.405 813.408 464.405H843.205C860.979 464.405 875.39 450.026 875.39 432.292V402.561C875.39 401.256 876.449 400.178 877.778 400.178H930.208C931.516 400.178 932.596 401.235 932.596 402.561Z" fill="white"/>
<path d="M939.764 274.137V326.451C939.764 327.756 940.823 328.833 942.152 328.833H971.949C989.723 328.833 1004.13 343.212 1004.13 360.947V390.677C1004.13 391.983 1005.19 393.06 1006.52 393.06H1058.95C1060.26 393.06 1061.34 392.003 1061.34 390.677V338.364C1061.34 337.058 1060.28 335.981 1058.95 335.981H1029.16C1011.38 335.981 996.97 321.603 996.97 303.868V274.137C996.97 272.832 995.911 271.754 994.582 271.754H942.152C940.843 271.754 939.764 272.811 939.764 274.137Z" fill="white"/>
<path d="M939.764 402.561V454.875C939.764 456.18 940.823 457.257 942.152 457.257H971.949C989.723 457.257 1004.13 471.636 1004.13 489.37V519.101C1004.13 520.406 1005.19 521.484 1006.52 521.484H1058.95C1060.26 521.484 1061.34 520.427 1061.34 519.101V466.788C1061.34 465.482 1060.28 464.405 1058.95 464.405H1029.16C1011.38 464.405 996.97 450.026 996.97 432.292V402.561C996.97 401.256 995.911 400.178 994.582 400.178H942.152C940.843 400.178 939.764 401.235 939.764 402.561Z" fill="white"/>
<path d="M865.867 528.595H813.437C812.118 528.595 811.049 529.661 811.049 530.977V583.291C811.049 584.607 812.118 585.674 813.437 585.674H865.867C867.186 585.674 868.255 584.607 868.255 583.291V530.977C868.255 529.661 867.186 528.595 865.867 528.595Z" fill="white"/>
<path d="M1058.93 528.595H1006.5C1005.18 528.595 1004.11 529.661 1004.11 530.977V583.291C1004.11 584.607 1005.18 585.674 1006.5 585.674H1058.93C1060.24 585.674 1061.31 584.607 1061.31 583.291V530.977C1061.31 529.661 1060.24 528.595 1058.93 528.595Z" fill="white"/>
<path d="M868.245 433.866V402.561C868.245 401.256 867.186 400.178 865.857 400.178H813.427C812.119 400.178 811.039 401.235 811.039 402.561V454.875C811.039 456.18 812.098 457.257 813.427 457.257H844.802C857.759 457.257 868.245 446.774 868.245 433.866Z" fill="white"/>
<path d="M1004.65 433.866V402.561C1004.65 401.256 1005.71 400.178 1007.04 400.178H1059.47C1060.78 400.178 1061.85 401.235 1061.85 402.561V454.875C1061.85 456.18 1060.8 457.257 1059.47 457.257H1028.09C1015.13 457.257 1004.65 446.774 1004.65 433.866Z" fill="white"/>
<path d="M810.16 632.591V684.904C810.16 686.21 811.219 687.287 812.548 687.287H842.345C860.12 687.287 874.53 701.665 874.53 719.4V749.131C874.53 750.436 875.589 751.514 876.918 751.514H929.349C930.657 751.514 931.737 750.457 931.737 749.131V696.817C931.737 695.512 930.678 694.435 929.349 694.435H899.552C881.777 694.435 867.367 680.056 867.367 662.321V632.591C867.367 631.285 866.307 630.208 864.979 630.208H812.548C811.24 630.208 810.16 631.265 810.16 632.591Z" fill="#FFD900"/>
<path d="M938.855 825.212V877.526C938.855 878.831 939.914 879.908 941.243 879.908H971.041C988.815 879.908 1003.23 894.287 1003.23 912.022V941.753C1003.23 943.058 1004.28 944.135 1005.61 944.135H1058.04C1059.35 944.135 1060.43 943.079 1060.43 941.753V889.439C1060.43 888.134 1059.37 887.056 1058.04 887.056H1028.25C1010.47 887.056 996.062 872.678 996.062 854.943V825.212C996.062 823.907 995.003 822.83 993.674 822.83H941.243C939.935 822.83 938.855 823.886 938.855 825.212Z" fill="#FFD900"/>
<path d="M1058.02 630.208H1005.59C1004.27 630.208 1003.2 631.275 1003.2 632.591V684.904C1003.2 686.22 1004.27 687.287 1005.59 687.287H1058.02C1059.34 687.287 1060.41 686.22 1060.41 684.904V632.591C1060.41 631.275 1059.34 630.208 1058.02 630.208Z" fill="#FFD900"/>
<path d="M864.979 758.632H812.548C811.229 758.632 810.16 759.699 810.16 761.014V813.328C810.16 814.644 811.229 815.711 812.548 815.711H864.979C866.297 815.711 867.367 814.644 867.367 813.328V761.014C867.367 759.699 866.297 758.632 864.979 758.632Z" fill="#FFD900"/>
<path d="M867.367 717.797V749.102C867.367 750.407 866.307 751.485 864.979 751.485H812.548C811.24 751.485 810.16 750.428 810.16 749.102V696.788C810.16 695.483 811.219 694.406 812.548 694.406H843.923C856.88 694.406 867.367 704.889 867.367 717.797Z" fill="#FFD900"/>
<path d="M1060.41 825.212V877.526C1060.41 878.831 1059.35 879.908 1058.02 879.908H1026.64C1013.69 879.908 1003.2 869.425 1003.2 856.518V825.212C1003.2 823.907 1004.26 822.83 1005.59 822.83H1058.02C1059.33 822.83 1060.41 823.886 1060.41 825.212Z" fill="#FFD900"/>
<path d="M864.979 822.83H812.548C811.229 822.83 810.16 823.896 810.16 825.212V877.526C810.16 878.842 811.229 879.908 812.548 879.908H864.979C866.297 879.908 867.367 878.842 867.367 877.526V825.212C867.367 823.896 866.297 822.83 864.979 822.83Z" fill="#FFD900"/>
<path d="M864.979 887.048H812.548C811.229 887.048 810.16 888.115 810.16 889.431V941.745C810.16 943.061 811.229 944.127 812.548 944.127H864.979C866.297 944.127 867.367 943.061 867.367 941.745V889.431C867.367 888.115 866.297 887.048 864.979 887.048Z" fill="#FFD900"/>
<path d="M1058.02 758.632H1005.59C1004.27 758.632 1003.2 759.699 1003.2 761.014V813.328C1003.2 814.644 1004.27 815.711 1005.59 815.711H1058.02C1059.34 815.711 1060.41 814.644 1060.41 813.328V761.014C1060.41 759.699 1059.34 758.632 1058.02 758.632Z" fill="#FFD900"/>
<path d="M1058.02 887.048H1005.59C1004.27 887.048 1003.2 888.115 1003.2 889.431V941.745C1003.2 943.061 1004.27 944.127 1005.59 944.127H1058.02C1059.34 944.127 1060.41 943.061 1060.41 941.745V889.431C1060.41 888.115 1059.34 887.048 1058.02 887.048Z" fill="#FFD900"/>
<path d="M929.322 758.632H876.892C875.573 758.632 874.504 759.699 874.504 761.014V813.328C874.504 814.644 875.573 815.711 876.892 815.711H929.322C930.641 815.711 931.71 814.644 931.71 813.328V761.014C931.71 759.699 930.641 758.632 929.322 758.632Z" fill="#FFD900"/>
<path d="M993.674 758.632H941.243C939.925 758.632 938.855 759.699 938.855 761.014V813.328C938.855 814.644 939.925 815.711 941.243 815.711H993.674C994.993 815.711 996.062 814.644 996.062 813.328V761.014C996.062 759.699 994.993 758.632 993.674 758.632Z" fill="#FFD900"/>
<path d="M1058.02 694.406H1005.59C1004.27 694.406 1003.2 695.472 1003.2 696.788V749.102C1003.2 750.418 1004.27 751.485 1005.59 751.485H1058.02C1059.34 751.485 1060.41 750.418 1060.41 749.102V696.788C1060.41 695.472 1059.34 694.406 1058.02 694.406Z" fill="#FFD900"/>
</svg>
