<svg width="1301" height="1215" viewBox="0 0 1301 1215" fill="none" xmlns="http://www.w3.org/2000/svg">
<path d="M467.598 280.9C452.643 274.496 435.61 271.31 416.475 271.31H282.223V514.906C282.223 526.167 285.848 535.273 293.083 542.239C300.318 549.219 309.701 552.698 321.216 552.698H418.098C452.928 552.698 479.337 543.777 497.286 525.959C503.313 519.986 508.324 513.067 512.326 505.2L467.598 280.9ZM468.738 444.963C468.738 464.259 464.312 478.868 455.476 488.782C446.624 498.696 433.623 503.653 416.475 503.653H337.695V320.355H414.873C430.953 320.355 443.945 324.973 453.859 334.218C463.773 343.462 468.73 355.723 468.73 371.002L468.738 444.963Z" fill="white"/>
<path d="M1016.02 319.539V271.31H851.177L850.292 275.735L805.387 499.119V552.698H860.852V443.362H1001.15V395.117H860.852V319.539H1016.02Z" fill="white"/>
<path d="M828.267 271.31L805.4 385.103L778.028 521.34C775.881 532.055 771.917 539.976 766.16 545.063C760.402 550.151 752.567 552.706 742.645 552.706H719.33L659.44 359.757H658.624L597.525 552.706H574.21C565.097 552.706 557.454 550.428 551.304 545.863C545.123 541.314 540.844 533.141 538.442 521.34L524.188 449.866L493.769 297.241L488.604 271.317H544.884L579.452 471.11H580.253L638.535 286.18H658.632C665.329 286.18 671.162 287.92 676.119 291.407C681.077 294.893 684.894 301.197 687.581 310.295L736.626 470.687H737.426L771.994 271.31H828.267Z" fill="white"/>
<path d="M286.667 936.618C283.708 933.66 282.223 929.436 282.223 923.948V710.759H300.32V924.611H425.342V941.062H299.006C293.74 941.062 289.627 939.578 286.667 936.618Z" fill="white"/>
<path d="M591.548 873.941H487.912L462.58 941.062H443.828L531.662 710.759H540.226C545.493 710.759 549.434 714.159 552.074 720.961L635.309 941.062H616.558L591.548 873.941ZM493.502 858.482H585.958L539.891 735.105H539.557L493.502 858.482Z" fill="white"/>
<path d="M665.298 936.448C662.22 933.378 660.688 929.326 660.688 924.28V710.759H756.428C774.638 710.759 789.275 715.253 800.351 724.251C811.427 733.249 816.959 745.097 816.959 759.783V778.532C816.959 787.53 814.988 795.806 811.046 803.37C807.093 810.934 801.838 816.812 795.257 820.975V821.306C806.217 823.934 814.999 829.372 821.58 837.587C828.161 845.813 831.446 855.413 831.446 866.377V884.143C831.446 901.247 825.845 915.021 814.665 925.433C803.474 935.856 788.561 941.062 769.924 941.062H677.468C672.432 941.062 668.363 939.528 665.309 936.458L665.298 936.448ZM763.009 817.023C773.75 817.023 782.418 813.522 788.998 806.49C795.579 799.478 798.876 790.148 798.876 778.522V759.773C798.876 750.122 794.98 742.228 787.2 736.088C779.409 729.949 769.152 726.879 756.428 726.879H678.782V817.023H763.009ZM768.276 924.611C781.876 924.611 792.79 920.939 801.008 913.586C809.237 906.243 813.351 896.423 813.351 884.143V866.377C813.351 856.296 809.779 848.12 802.656 841.871C795.522 835.621 786.152 832.492 774.523 832.492H678.782V924.611H768.276Z" fill="white"/>
<path d="M874.907 926.255C863.382 914.628 857.631 898.838 857.631 878.876H875.391C875.391 893.792 879.552 905.579 887.896 914.248C896.229 922.915 907.512 927.238 921.781 927.238H958.627C972.446 927.238 983.579 924.058 992.016 917.698C1000.45 911.339 1004.69 903.012 1004.69 892.69V870.319C1004.69 861.983 1001.62 854.851 995.485 848.931C989.342 843.013 980.79 839.171 969.818 837.415L910.924 827.545C895.134 824.916 882.802 819.208 873.905 810.441C865.019 801.673 860.593 790.699 860.593 777.538V758.458C860.593 743.32 866.286 731.152 877.697 721.943C889.095 712.734 904.112 708.129 922.76 708.129H959.941C977.701 708.129 992.016 713.506 1002.87 724.25C1013.73 735.004 1019.16 749.148 1019.16 766.693H1001.39C1001.39 753.973 997.605 743.721 990.033 735.927C982.473 728.142 972.434 724.25 959.929 724.25H922.749C909.368 724.25 898.672 727.38 890.674 733.63C882.664 739.879 878.665 748.165 878.665 758.468V777.548C878.665 786.325 881.627 793.668 887.551 799.587C893.486 805.505 901.807 809.348 912.56 811.103L971.12 821.305C987.359 824.154 1000.01 829.862 1009.12 838.409C1018.22 846.965 1022.78 857.609 1022.78 870.319V892.69C1022.78 908.048 1016.96 920.386 1005.34 929.705C993.721 939.035 978.243 943.69 958.961 943.69H921.446C901.923 943.69 886.409 937.881 874.896 926.255H874.907Z" fill="white"/>
<path d="M457.478 580.256C474.393 580.256 489.492 584.991 502.325 594.319C511.915 601.295 519.091 609.983 525.415 617.66C530.521 623.835 535.799 630.231 541.123 634.093C544.447 636.506 547.735 638.108 552.99 638.108C558.257 638.108 561.557 636.496 564.869 634.084C570.193 630.21 575.46 623.825 580.566 617.65C586.89 609.983 594.077 601.295 603.667 594.308C616.512 584.98 631.599 580.246 648.514 580.246C665.43 580.246 680.517 584.98 693.35 594.308C702.952 601.285 710.127 609.973 716.452 617.65C721.557 623.825 726.824 630.21 732.148 634.084C735.471 636.496 738.76 638.108 744.027 638.108C749.293 638.108 752.582 636.496 755.894 634.084C761.23 630.21 766.496 623.825 771.602 617.65C777.938 609.983 785.114 601.285 794.704 594.319C807.537 584.991 822.624 580.256 839.539 580.256C856.455 580.256 871.541 584.991 884.375 594.319C893.976 601.295 901.152 609.983 907.476 617.66C912.571 623.835 917.849 630.221 923.184 634.093C926.508 636.506 929.796 638.117 935.063 638.117C940.33 638.117 943.619 636.506 946.942 634.093C952.277 630.221 957.544 623.835 962.65 617.66C968.986 609.992 976.161 601.295 985.752 594.319C995.538 587.212 1006.62 582.769 1018.83 581.057V620.231C1018.83 620.231 1018.75 620.292 1018.72 620.322C1013.38 624.195 1008.12 630.58 1003.01 636.757C996.676 644.423 989.5 653.121 979.91 660.097C967.066 669.425 951.99 674.159 935.075 674.159C918.159 674.159 903.061 669.425 890.228 660.097C880.637 653.121 873.473 644.434 867.137 636.766C862.032 630.58 856.754 624.195 851.429 620.322C848.118 617.909 844.817 616.298 839.562 616.298C834.296 616.298 830.995 617.909 827.684 620.322C822.359 624.195 817.093 630.58 811.999 636.757C805.663 644.434 798.487 653.121 788.885 660.097C776.041 669.425 760.954 674.159 744.038 674.159C727.134 674.159 712.048 669.425 699.203 660.097C689.601 653.121 682.426 644.434 676.101 636.757C671.007 630.58 665.74 624.195 660.405 620.322C657.081 617.909 653.793 616.298 648.526 616.298C643.259 616.298 639.97 617.909 636.659 620.322C631.323 624.195 626.056 630.58 620.951 636.757C614.615 644.423 607.439 653.121 597.86 660.086C585.016 669.416 569.929 674.15 553.013 674.15C536.098 674.15 521.023 669.416 508.178 660.086C498.576 653.111 491.401 644.423 485.076 636.746C479.982 630.571 474.704 624.186 469.368 620.312C466.045 617.899 462.768 616.288 457.501 616.288C452.234 616.288 448.946 617.899 445.634 620.312C440.31 624.186 435.043 630.561 429.938 636.736C423.591 644.423 416.414 653.111 406.826 660.086C393.985 669.416 378.902 674.15 361.987 674.15C345.072 674.15 329.989 669.416 317.147 660.086C307.549 653.111 300.372 644.423 294.047 636.757C288.942 630.58 283.678 624.195 278.343 620.322C278.303 620.292 278.263 620.262 278.223 620.231V581.057C290.434 582.769 301.524 587.202 311.313 594.319C320.911 601.295 328.087 609.983 334.412 617.66C339.507 623.835 344.781 630.221 350.117 634.093C353.439 636.506 356.722 638.108 361.987 638.108C367.252 638.108 370.544 636.496 373.857 634.093C379.182 630.221 384.457 623.835 389.551 617.66C395.887 609.983 403.063 601.295 412.661 594.319C425.503 584.991 440.586 580.256 457.501 580.256H457.478Z" fill="white"/>
</svg>
