<svg width="72" height="29" viewBox="0 0 72 29" fill="none" xmlns="http://www.w3.org/2000/svg">
<path d="M33.1152 22.9307V8.06499H35.36V14.5301H42.7629V8.06499H45.0077V22.9307H42.7629V16.4556H35.36V22.9307H33.1152ZM53.0149 23.1302C51.7378 23.1302 50.5938 22.8242 49.5828 22.2123C48.5718 21.6004 47.7736 20.7258 47.1883 19.5884C46.603 18.4444 46.3103 17.0842 46.3103 15.5078C46.3103 13.9181 46.603 12.5546 47.1883 11.4172C47.7736 10.2732 48.5718 9.39525 49.5828 8.78333C50.5938 8.17141 51.7378 7.86545 53.0149 7.86545C54.3052 7.86545 55.4526 8.17141 56.4569 8.78333C57.4613 9.39525 58.2528 10.2732 58.8314 11.4172C59.4167 12.5546 59.7094 13.9181 59.7094 15.5078C59.7094 17.0908 59.4167 18.451 58.8314 19.5884C58.2528 20.7258 57.4613 21.6004 56.4569 22.2123C55.4526 22.8242 54.3052 23.1302 53.0149 23.1302ZM53.0149 21.0849C53.8729 21.0849 54.6378 20.8721 55.3096 20.4464C55.9813 20.0207 56.5101 19.3922 56.8959 18.5608C57.2883 17.7293 57.4845 16.7117 57.4845 15.5078C57.4845 14.2973 57.2883 13.2763 56.8959 12.4449C56.5101 11.6068 55.9813 10.9749 55.3096 10.5493C54.6378 10.1236 53.8729 9.91073 53.0149 9.91073C52.1635 9.91073 51.3986 10.1236 50.7202 10.5493C50.0484 10.9749 49.5163 11.6068 49.1238 12.4449C48.7314 13.2763 48.5352 14.2973 48.5352 15.5078C48.5352 16.7117 48.7314 17.7293 49.1238 18.5608C49.5163 19.3922 50.0484 20.0207 50.7202 20.4464C51.3986 20.8721 52.1635 21.0849 53.0149 21.0849ZM59.6451 9.99054V8.06499H71.1586V9.99054H66.5293V22.9307H64.2944V9.99054H59.6451Z" fill="#CFCFCF"/>
<mask id="path-2-inside-1_801_39" fill="white">
<path d="M20.2594 13.3082C19.6759 11.9424 18.8277 10.7166 17.7679 9.70738L16.8933 8.87282C16.8636 8.84526 16.8279 8.82571 16.7892 8.81587C16.7506 8.80603 16.7102 8.80621 16.6716 8.81639C16.633 8.82658 16.5975 8.84645 16.568 8.87428C16.5385 8.9021 16.5161 8.93702 16.5026 8.97597L16.1119 10.1418C15.8685 10.8733 15.4207 11.6203 14.7865 12.3548C14.7445 12.4017 14.6964 12.4142 14.6633 12.4173C14.6303 12.4205 14.5792 12.4142 14.5341 12.3705C14.492 12.3329 14.471 12.2767 14.474 12.2204C14.5852 10.3388 14.0442 8.21643 12.8601 5.90656C11.8803 3.9874 10.5189 2.4902 8.81783 1.44623L7.5766 0.686689C7.41431 0.586668 7.20694 0.717946 7.21595 0.914863L7.28207 2.41519C7.32715 3.44041 7.21295 4.34685 6.94246 5.10014C6.61187 6.02221 6.13701 6.87864 5.52993 7.64756C5.10744 8.18193 4.62858 8.66528 4.10236 9.0885C2.83501 10.1017 1.80448 11.4 1.08795 12.8862C0.373192 14.3853 0.000872048 16.0358 0 17.7091C0 19.1844 0.279502 20.6128 0.832494 21.96C1.36645 23.2571 2.13701 24.4342 3.10157 25.4264C4.07531 26.4266 5.20534 27.2143 6.4646 27.7613C7.76894 28.3301 9.15143 28.6177 10.579 28.6177C12.0065 28.6177 13.389 28.3301 14.6934 27.7644C15.9495 27.2206 17.0918 26.4275 18.0564 25.4295C19.0302 24.4293 19.7935 23.2603 20.3255 21.9631C20.8776 20.6197 21.1609 19.1733 21.158 17.7122C21.158 16.1869 20.8574 14.7053 20.2594 13.3082Z"/>
</mask>
<path d="M20.2594 13.3082C19.6759 11.9424 18.8277 10.7166 17.7679 9.70738L16.8933 8.87282C16.8636 8.84526 16.8279 8.82571 16.7892 8.81587C16.7506 8.80603 16.7102 8.80621 16.6716 8.81639C16.633 8.82658 16.5975 8.84645 16.568 8.87428C16.5385 8.9021 16.5161 8.93702 16.5026 8.97597L16.1119 10.1418C15.8685 10.8733 15.4207 11.6203 14.7865 12.3548C14.7445 12.4017 14.6964 12.4142 14.6633 12.4173C14.6303 12.4205 14.5792 12.4142 14.5341 12.3705C14.492 12.3329 14.471 12.2767 14.474 12.2204C14.5852 10.3388 14.0442 8.21643 12.8601 5.90656C11.8803 3.9874 10.5189 2.4902 8.81783 1.44623L7.5766 0.686689C7.41431 0.586668 7.20694 0.717946 7.21595 0.914863L7.28207 2.41519C7.32715 3.44041 7.21295 4.34685 6.94246 5.10014C6.61187 6.02221 6.13701 6.87864 5.52993 7.64756C5.10744 8.18193 4.62858 8.66528 4.10236 9.0885C2.83501 10.1017 1.80448 11.4 1.08795 12.8862C0.373192 14.3853 0.000872048 16.0358 0 17.7091C0 19.1844 0.279502 20.6128 0.832494 21.96C1.36645 23.2571 2.13701 24.4342 3.10157 25.4264C4.07531 26.4266 5.20534 27.2143 6.4646 27.7613C7.76894 28.3301 9.15143 28.6177 10.579 28.6177C12.0065 28.6177 13.389 28.3301 14.6934 27.7644C15.9495 27.2206 17.0918 26.4275 18.0564 25.4295C19.0302 24.4293 19.7935 23.2603 20.3255 21.9631C20.8776 20.6197 21.1609 19.1733 21.158 17.7122C21.158 16.1869 20.8574 14.7053 20.2594 13.3082Z" fill="white" fill-opacity="0.25"/>
<path d="M20.2594 13.3082L19.7996 13.5046L19.7997 13.5049L20.2594 13.3082ZM17.7679 9.70738L17.4227 10.0691L17.4231 10.0695L17.7679 9.70738ZM16.8933 8.87282L17.2385 8.51106L17.2335 8.50635L16.8933 8.87282ZM16.5026 8.97597L16.03 8.81267L16.0285 8.8171L16.5026 8.97597ZM16.1119 10.1418L15.6378 9.98297L15.6375 9.98395L16.1119 10.1418ZM14.7865 12.3548L15.1587 12.6888L15.165 12.6816L14.7865 12.3548ZM14.5341 12.3705L14.8823 12.0117L14.8747 12.0043L14.8668 11.9972L14.5341 12.3705ZM14.474 12.2204L13.9748 12.1909L13.9747 12.1937L14.474 12.2204ZM12.8601 5.90656L12.4148 6.13391L12.4151 6.13465L12.8601 5.90656ZM8.81783 1.44623L9.07936 1.02008L9.0788 1.01974L8.81783 1.44623ZM7.5766 0.686689L7.31426 1.11234L7.31562 1.11318L7.5766 0.686689ZM7.21595 0.914863L7.71547 0.89285L7.71543 0.891994L7.21595 0.914863ZM7.28207 2.41519L7.78159 2.39322L7.78158 2.39317L7.28207 2.41519ZM6.94246 5.10014L6.47188 4.93116L6.4718 4.93139L6.94246 5.10014ZM5.52993 7.64756L5.92215 7.95766L5.92235 7.9574L5.52993 7.64756ZM4.10236 9.0885L4.41459 9.47903L4.41572 9.47812L4.10236 9.0885ZM1.08795 12.8862L0.637563 12.669L0.636627 12.671L1.08795 12.8862ZM0 17.7091L-0.5 17.7088V17.7091H0ZM0.832494 21.96L0.369947 22.1499L0.37014 22.1503L0.832494 21.96ZM3.10157 25.4264L2.74306 25.7749L2.74331 25.7752L3.10157 25.4264ZM6.4646 27.7613L6.66449 27.3029L6.66381 27.3027L6.4646 27.7613ZM14.6934 27.7644L14.4947 27.3055L14.4944 27.3057L14.6934 27.7644ZM18.0564 25.4295L17.6981 25.0807L17.6969 25.082L18.0564 25.4295ZM20.3255 21.9631L19.863 21.7731L19.8629 21.7734L20.3255 21.9631ZM21.158 17.7122H20.658L20.658 17.7132L21.158 17.7122ZM20.7192 13.1117C20.1094 11.6845 19.2225 10.402 18.1127 9.34528L17.4231 10.0695C18.433 11.0311 19.2424 12.2003 19.7996 13.5046L20.7192 13.1117ZM18.1131 9.34565L17.2385 8.51109L16.5481 9.23456L17.4227 10.0691L18.1131 9.34565ZM17.2335 8.50635C17.1435 8.42286 17.0335 8.36211 16.9126 8.33132L16.6659 9.30042C16.6222 9.2893 16.5837 9.26767 16.5532 9.2393L17.2335 8.50635ZM16.9126 8.33132C16.7915 8.3005 16.6647 8.30108 16.544 8.33296L16.7992 9.29983C16.7556 9.31134 16.7096 9.31155 16.6659 9.30042L16.9126 8.33132ZM16.544 8.33296C16.4233 8.36481 16.3139 8.42651 16.2247 8.51075L16.9113 9.23781C16.881 9.26639 16.8428 9.28834 16.7992 9.29983L16.544 8.33296ZM16.2247 8.51075C16.1356 8.59488 16.0694 8.69887 16.03 8.81268L16.9752 9.13926C16.9628 9.17517 16.9414 9.20932 16.9113 9.23781L16.2247 8.51075ZM16.0285 8.8171L15.6378 9.98297L16.586 10.3007L16.9767 9.13484L16.0285 8.8171ZM15.6375 9.98395C15.4194 10.6394 15.0103 11.3305 14.4081 12.0281L15.165 12.6816C15.8311 11.9101 16.3176 11.1071 16.5863 10.2997L15.6375 9.98395ZM14.4144 12.0209C14.4437 11.9882 14.4807 11.9621 14.521 11.9445C14.5594 11.9277 14.5934 11.9217 14.6163 11.9196L14.7104 12.9151C14.8273 12.9041 15.0086 12.856 15.1587 12.6888L14.4144 12.0209ZM14.6163 11.9196C14.6892 11.9127 14.7967 11.9286 14.8823 12.0117L14.1858 12.7292C14.3616 12.8999 14.5713 12.9283 14.7104 12.9151L14.6163 11.9196ZM14.8668 11.9972C14.9489 12.0704 14.9776 12.1667 14.9733 12.2471L13.9747 12.1937C13.9644 12.3867 14.0351 12.5955 14.2014 12.7437L14.8668 11.9972ZM14.9731 12.2499C15.0912 10.2519 14.5154 8.03948 13.305 5.67847L12.4151 6.13465C13.573 8.39338 14.0792 10.4256 13.9748 12.1909L14.9731 12.2499ZM13.3054 5.67922C12.2869 3.6841 10.8643 2.11554 9.07936 1.02008L8.55629 1.87237C10.1735 2.86486 11.4738 4.29069 12.4148 6.1339L13.3054 5.67922ZM9.0788 1.01974L7.83758 0.260203L7.31562 1.11318L8.55685 1.87271L9.0788 1.01974ZM7.83893 0.261036C7.2961 -0.0735141 6.6912 0.3857 6.71648 0.937732L7.71543 0.891994C7.71961 0.983385 7.67105 1.0666 7.5994 1.11193C7.52613 1.1583 7.4124 1.17283 7.31426 1.11234L7.83893 0.261036ZM6.71644 0.936876L6.78255 2.4372L7.78158 2.39317L7.71547 0.89285L6.71644 0.936876ZM6.78255 2.43715C6.82556 3.41527 6.71509 4.25384 6.47188 4.93116L7.41304 5.26911C7.7108 4.43986 7.82874 3.46555 7.78159 2.39322L6.78255 2.43715ZM6.4718 4.93139C6.15947 5.80252 5.71104 6.6113 5.1375 7.33772L5.92235 7.9574C6.56299 7.14599 7.06426 6.24191 7.41312 5.26889L6.4718 4.93139ZM5.1377 7.33746C4.73823 7.84272 4.28578 8.29933 3.789 8.69887L4.41572 9.47812C4.97138 9.03122 5.47664 8.52115 5.92215 7.95766L5.1377 7.33746ZM3.79014 8.69796C2.46332 9.75873 1.38603 11.1167 0.637567 12.669L1.53834 13.1033C2.22293 11.6834 3.20669 10.4447 4.41459 9.47903L3.79014 8.69796ZM0.636627 12.671C-0.11039 14.2378 -0.499089 15.9617 -0.5 17.7088L0.5 17.7094C0.500834 16.1098 0.856773 14.5328 1.53928 13.1014L0.636627 12.671ZM-0.5 17.7091C-0.5 19.2486 -0.208137 20.7416 0.369947 22.1499L1.29504 21.7701C0.767141 20.4841 0.5 19.1202 0.5 17.7091H-0.5ZM0.37014 22.1503C0.927989 23.5054 1.73352 24.7365 2.74306 25.7749L3.46007 25.0779C2.5405 24.132 1.80491 23.0087 1.29485 21.7697L0.37014 22.1503ZM2.74331 25.7752C3.76097 26.8205 4.9446 27.6461 6.2654 28.2199L6.66381 27.3027C5.46609 26.7824 4.38966 26.0327 3.45983 25.0776L2.74331 25.7752ZM6.26472 28.2196C7.63239 28.8161 9.08294 29.1177 10.579 29.1177V28.1177C9.21991 28.1177 7.9055 27.8442 6.66449 27.3029L6.26472 28.2196ZM10.579 29.1177C12.075 29.1177 13.5252 28.8161 14.8923 28.2231L14.4944 27.3057C13.2529 27.8442 11.9381 28.1177 10.579 28.1177V29.1177ZM14.892 28.2232C16.2095 27.6529 17.4062 26.8217 18.4159 25.777L17.6969 25.082C16.7774 26.0334 15.6896 26.7883 14.4947 27.3055L14.892 28.2232ZM18.4147 25.7783C19.4337 24.7316 20.2322 23.5084 20.7881 22.1528L19.8629 21.7734C19.3549 23.0122 18.6267 24.127 17.6981 25.0807L18.4147 25.7783ZM20.7879 22.1532C21.3652 20.7487 21.661 19.2374 21.658 17.7112L20.658 17.7132C20.6608 19.1091 20.3901 20.4906 19.863 21.7731L20.7879 22.1532ZM21.658 17.7122C21.658 16.1201 21.344 14.5715 20.719 13.1114L19.7997 13.5049C20.3708 14.8391 20.658 16.2537 20.658 17.7122H21.658Z" fill="white" fill-opacity="0.15" mask="url(#path-2-inside-1_801_39)"/>
<path d="M6.85602 22.837C7.08696 22.3235 7.42268 21.8625 7.84218 21.483L8.18835 21.1692C8.20011 21.1589 8.21425 21.1515 8.22956 21.1478C8.24486 21.1441 8.26084 21.1442 8.27611 21.148C8.29138 21.1518 8.30546 21.1593 8.31712 21.1698C8.32879 21.1802 8.33767 21.1934 8.343 21.208L8.49765 21.6464C8.594 21.9214 8.77125 22.2023 9.02225 22.4786C9.03891 22.4962 9.05794 22.5009 9.07102 22.5021C9.08411 22.5032 9.10433 22.5009 9.12218 22.4844C9.13883 22.4703 9.14716 22.4492 9.14597 22.428C9.10195 21.7205 9.31608 20.9224 9.78477 20.0538C10.1726 19.3322 10.7115 18.7692 11.3848 18.3766L11.8761 18.091C11.9403 18.0534 12.0224 18.1028 12.0188 18.1768L11.9926 18.741C11.9748 19.1265 12.02 19.4674 12.1271 19.7506C12.2579 20.0973 12.4459 20.4194 12.6862 20.7085C12.8534 20.9094 13.0429 21.0912 13.2512 21.2503C13.7529 21.6313 14.1608 22.1195 14.4444 22.6784C14.7273 23.2421 14.8747 23.8627 14.875 24.4919C14.875 25.0466 14.7644 25.5838 14.5455 26.0903C14.3341 26.5781 14.0291 27.0207 13.6474 27.3938C13.2619 27.7699 12.8146 28.0661 12.3162 28.2718C11.7999 28.4857 11.2527 28.5938 10.6877 28.5938C10.1226 28.5938 9.57541 28.4857 9.05913 28.2729C8.56192 28.0685 8.10979 27.7702 7.72798 27.395C7.34256 27.0189 7.04041 26.5793 6.82985 26.0915C6.6113 25.5863 6.49918 25.0425 6.50033 24.4931C6.50033 23.9195 6.61929 23.3624 6.85602 22.837Z" fill="#F3C447"/>
</svg>
