<svg width="300" height="99" viewBox="0 0 300 99" fill="none" xmlns="http://www.w3.org/2000/svg">
<g clip-path="url(#clip0_2969_3903)">
<mask id="mask0_2969_3903" style="mask-type:luminance" maskUnits="userSpaceOnUse" x="0" y="0" width="300" height="99">
<path d="M300 0H0V99H300V0Z" fill="white"/>
</mask>
<g mask="url(#mask0_2969_3903)">
<path d="M293.585 74.4163C290.049 74.4163 287.17 71.5341 287.17 67.9947C287.17 64.4554 290.049 61.5732 293.585 61.5732C297.121 61.5732 300 64.4554 300 67.9947C300 71.5341 297.121 74.4163 293.585 74.4163Z" fill="#F96D30"/>
<path d="M92.9438 75.4975C87.2399 75.4975 84.3812 72.9371 83.3006 68.6036C78.9714 73.033 74.2523 75.4975 69.4307 75.4975C61.4631 75.4975 56.8398 70.4726 56.8398 62.894C56.8398 58.2662 58.9053 55.3087 62.4479 53.9326C69.0409 51.2764 78.2875 48.716 83.2048 45.6627V41.8221C83.2048 36.9956 81.4335 33.8465 77.5967 33.8465C73.3633 33.8465 71.2978 36.311 71.2978 40.446C71.2978 41.5277 71.3936 42.6162 71.5919 43.5952C71.7902 44.6768 71.3936 45.6627 70.5113 46.3541C69.3281 47.2372 67.167 47.8328 65.3956 47.8328C62.147 47.8328 59.001 46.4568 59.001 42.5135C59.001 36.9956 67.2627 30.6973 79.7579 30.6973C89.7909 30.6973 94.0244 34.6338 95.5974 37.0025C96.4865 38.2827 96.9721 40.0558 96.9721 41.7331C96.9721 44.2935 97.0473 59.9503 96.9721 65.9611C96.9037 71.6706 99.4205 71.3762 99.4205 71.3762L99.3863 74.4296C99.3863 74.4296 95.4811 75.5112 92.9438 75.5112V75.4975ZM83.2048 49.1062C81.2351 50.1879 77.9934 51.7624 75.5313 53.1453C73.1718 54.6241 71.5988 56.1987 71.5988 60.5322C71.5988 64.4686 73.2743 68.5078 77.2069 68.5078C80.2571 68.5078 81.7344 66.2417 82.5209 64.4686C82.9176 63.4828 83.1091 61.8124 83.1091 59.9366L83.2048 49.1062Z" fill="white"/>
<path d="M102.977 9.5157C109.372 9.5157 116.656 8.82425 123.146 8.13965C123.05 10.8986 122.749 15.8209 122.749 27.5413V52.5565C122.749 61.8123 122.749 65.4544 122.845 68.0216C123.044 70.8764 123.83 71.1708 128.652 71.3693V74.4227C125.013 74.4227 119.008 74.1283 114.782 74.1283C109.372 74.1283 105.241 74.4227 102.088 74.4227V71.3693C107.006 71.3693 107.792 70.5821 107.991 67.6246C108.189 65.5571 108.483 59.8475 108.483 51.5707V27.5413C108.483 20.4488 108.387 17.3955 108.285 15.0336C108.086 12.8703 107.594 12.6717 102.772 12.5691L102.971 9.5157H102.977Z" fill="white"/>
<path d="M171.554 61.4152C168.408 70.9654 162.307 75.4974 152.267 75.4974C143.609 75.4974 138.103 73.1356 134.26 68.5077C131.305 64.8656 130.026 59.5463 130.026 53.8367C130.026 40.6376 138.391 30.6904 154.23 30.6904C163.771 30.6904 170.952 34.7295 170.952 41.7193C170.952 46.6416 166.718 48.3188 163.572 48.3188C162.389 48.3188 160.816 48.0244 159.934 47.4357C158.949 46.7442 158.559 45.6626 158.751 44.4782C159.045 43.198 159.243 42.1163 159.243 40.7335C159.243 36.3041 157.67 33.9354 153.929 33.9354C148.417 33.9354 145.469 41.4181 145.469 51.8582C145.469 56.0959 146.057 60.7238 147.535 63.6744C149.504 67.8094 152.452 69.8769 156.884 69.8769C162.492 69.8769 165.932 66.8236 168.592 59.8338L171.547 61.4084L171.554 61.4152Z" fill="white"/>
<path d="M220.05 52.844C220.05 66.9262 210.701 75.4974 195.949 75.4974C179.815 75.4974 172.237 66.139 172.237 53.5355C172.237 40.932 180.896 30.6904 196.537 30.6904C210.407 30.6904 220.05 38.8645 220.05 52.8509V52.844ZM190.341 37.776C188.966 40.3364 188.077 45.4572 188.077 51.468C188.077 58.6563 188.959 64.1742 190.539 67.6177C191.914 70.7669 194.082 72.2456 196.934 72.2456C199.587 72.2456 201.557 70.7669 202.637 68.2064C203.916 64.9546 204.607 60.3267 204.607 53.8298C204.607 46.7374 203.424 40.9251 202.049 38.0704C200.77 35.51 198.999 33.9354 196.147 33.9354C193.295 33.9354 191.524 35.51 190.341 37.776Z" fill="white"/>
<path d="M219.859 71.3625C224.482 71.1639 225.07 70.7737 225.269 68.3091C225.467 65.2558 225.563 62.2025 225.563 57.5746V48.3188C225.563 43.5882 225.563 39.8503 225.269 37.2899C225.173 36.0097 224.578 35.7153 220.351 35.5168L220.447 32.4635C226.643 32.4635 233.038 32.0664 239.241 31.0874C239.535 32.9564 239.932 35.9139 240.028 37.5843C243.468 34.3324 248.098 30.6904 255.081 30.6904C261.379 30.6904 264.922 33.6478 266.393 36.3041C267.377 38.0772 267.87 39.9462 267.87 42.4107V68.6035C267.87 70.671 268.362 70.8695 273.574 71.3625L273.478 74.4158C269.443 74.4158 265.408 74.1214 260.49 74.1214C254.39 74.1214 250.553 74.4158 248.686 74.4158V71.3625C252.229 71.1639 253.015 70.5752 253.213 68.6035C253.412 66.6319 253.61 63.0856 253.61 55.3086C253.61 42.0137 253.514 40.8293 252.721 39.5491C251.839 37.8718 250.56 36.9887 248.296 36.9887C245.342 36.9887 242.688 38.666 240.917 41.4181C240.13 42.6024 239.932 43.7799 239.932 45.6557V58.1634C239.932 61.8054 239.932 66.0431 240.13 68.8021C240.226 70.5752 241.115 71.0681 245.048 71.3625V74.4158C242.688 74.4158 236.977 74.1214 232.457 74.1214C227.047 74.1214 222.813 74.4158 219.866 74.4158V71.3625H219.859Z" fill="white"/>
<path d="M63.6932 2.01482e-05C57.1002 2.01482e-05 51.6973 2.51935 47.5938 6.35311C41.972 11.5013 38.9491 17.3067 36.2476 27.0486L35.167 31.43C30.0855 53.2208 23.9302 80.2694 21.6596 86.8415C20.5791 90.6753 19.2796 92.3183 17.2279 92.3183C15.5865 92.3183 11.5719 87.8684 11.4146 87.6494C10.2246 86.2322 8.44637 85.3217 6.45618 85.3217C5.71071 85.3217 4.99259 85.4586 4.32236 85.6914C1.80554 86.5745 -0.00683594 88.9706 -0.00683594 91.7912C-0.00683594 92.51 0.116269 93.1946 0.328283 93.8381C1.1695 96.9462 4.93104 98.9932 8.3643 98.9932C11.7976 98.9932 15.3881 98.2264 19.2796 95.9262C27.384 91.2161 33.977 84.3153 38.4019 74.683C41.4248 67.8918 45.8566 52.0159 50.7193 31.4232L51.7998 27.0417C53.4207 20.0314 54.7202 14.9928 56.2316 10.2896C57.5311 6.67487 59.2545 3.60786 61.4157 3.60786C63.2555 3.60786 63.8983 5.14137 63.8983 7.66069C63.8983 8.03038 63.8641 8.47537 63.8094 8.9409C63.7957 9.05043 63.7889 9.15997 63.7684 9.2695C63.7547 9.42696 63.741 9.58442 63.741 9.74188C63.741 12.9595 66.3536 15.5747 69.568 15.5747C70.3682 15.5747 71.1273 15.4104 71.8181 15.1228C73.8014 14.2876 75.224 12.3844 75.3745 10.1321C75.4223 9.79665 75.4497 9.4475 75.4497 9.07782C75.4497 3.49148 70.9085 -0.0136719 63.6726 -0.0136719L63.6932 2.01482e-05Z" fill="white"/>
<path d="M28.1639 24.9531L26.3926 30.6901H59.8019L61.4433 24.9531H28.1639Z" fill="white"/>
</g>
</g>
<defs>
<clipPath id="clip0_2969_3903">
<rect width="300" height="99" fill="white"/>
</clipPath>
</defs>
</svg>
